<?xml version="1.0" encoding="UTF-8"?>
<svg xmlns="http://www.w3.org/2000/svg" width="720" height="420" viewBox="0 0 720 420"><rect width="100%" height="100%" fill="#FFFFFF"/><g class="fastchart"><rect x="0" y="0" width="720" height="420" fill="#FFFFFF"/>
<rect x="64" y="37" width="624" height="350" fill="#FFFFFF"/>
<line x1="64" y1="37" x2="687" y2="37" stroke="#666666"/>
<line x1="64" y1="386" x2="687" y2="386" stroke="#666666"/>
<line x1="64" y1="37" x2="64" y2="386" stroke="#666666"/>
<line x1="687" y1="37" x2="687" y2="386" stroke="#666666"/>
<g transform="translate(262.7 27)" fill="#222222"><path d="M12.89 0L11.38 0Q11.11 0 10.95 -0.12Q10.8 -0.25 10.7 -0.47L9.48 -3.67L3.42 -3.67L2.2 -0.47Q2.14 -0.28 1.97 -0.14Q1.8 0 1.55 0L0.03 0L5.47 -13.62L7.45 -13.62L12.89 0M3.97 -5.08L8.94 -5.08L6.88 -10.44Q6.78 -10.7 6.67 -11.03Q6.56 -11.38 6.45 -11.77Q6.34 -11.38 6.23 -11.03Q6.14 -10.69 6.03 -10.44L3.97 -5.08M24.16 -2.89Q24.33 -2.89 24.45 -2.77L25.22 -1.91Q24.39 -0.94 23.19 -0.39Q21.98 0.16 20.3 0.16Q18.83 0.16 17.62 -0.36Q16.42 -0.88 15.56 -1.8Q14.72 -2.72 14.25 -4Q13.8 -5.28 13.8 -6.83Q13.8 -8.36 14.28 -9.64Q14.77 -10.92 15.64 -11.84Q16.53 -12.77 17.77 -13.27Q19 -13.78 20.47 -13.78Q21.92 -13.78 23.05 -13.3Q24.17 -12.83 25.02 -12.05L24.38 -11.14Q24.3 -11.03 24.2 -10.97Q24.12 -10.92 23.95 -10.92Q23.78 -10.92 23.53 -11.09Q23.3 -11.28 22.89 -11.5Q22.5 -11.72 21.91 -11.89Q21.33 -12.08 20.47 -12.08Q19.44 -12.08 18.58 -11.72Q17.72 -11.36 17.09 -10.69Q16.48 -10.02 16.14 -9.03Q15.8 -8.06 15.8 -6.83Q15.8 -5.56 16.16 -4.58Q16.52 -3.59 17.12 -2.92Q17.75 -2.25 18.59 -1.89Q19.45 -1.53 20.42 -1.53Q21.02 -1.53 21.48 -1.61Q21.97 -1.69 22.36 -1.83Q22.77 -1.97 23.11 -2.19Q23.47 -2.42 23.83 -2.73Q23.91 -2.8 23.98 -2.84Q24.06 -2.89 24.16 -2.89M34.03 -5.05Q34.27 -4.58 34.47 -4.03Q34.58 -4.3 34.69 -4.56Q34.8 -4.83 34.94 -5.08L39.45 -13.3Q39.58 -13.53 39.72 -13.58Q39.88 -13.62 40.12 -13.62L41.58 -13.62L41.58 0L39.86 0L39.86 -9.8Q39.86 -10.02 39.86 -10.25Q39.88 -10.48 39.91 -10.73L35.33 -2.36Q35.22 -2.14 35.03 -2.02Q34.84 -1.91 34.62 -1.91L34.34 -1.91Q33.86 -1.91 33.62 -2.36L28.95 -10.77Q28.97 -10.52 28.98 -10.27Q29.02 -10.02 29.02 -9.8L29.02 0L27.3 0L27.3 -13.62L28.75 -13.62Q29 -13.62 29.14 -13.58Q29.3 -13.53 29.42 -13.3L34.03 -5.05L34.03 -5.05M53.42 -13.62L53.42 -12.03L46.95 -12.03L46.95 -7.64L52.16 -7.64L52.16 -6.11L46.95 -6.11L46.95 -1.59L53.42 -1.59L53.42 0L44.98 0L44.98 -13.62L53.42 -13.62M62.27 -9.64L62.27 0L60.45 0L60.45 -9.64L62.27 -9.64M62.61 -12.64Q62.61 -12.38 62.52 -12.16Q62.42 -11.94 62.23 -11.77Q62.06 -11.59 61.83 -11.48Q61.59 -11.39 61.34 -11.39Q61.09 -11.39 60.88 -11.48Q60.66 -11.59 60.48 -11.77Q60.31 -11.94 60.2 -12.16Q60.11 -12.38 60.11 -12.64Q60.11 -12.89 60.2 -13.12Q60.31 -13.36 60.48 -13.53Q60.66 -13.7 60.88 -13.8Q61.09 -13.91 61.34 -13.91Q61.59 -13.91 61.83 -13.8Q62.06 -13.7 62.23 -13.53Q62.42 -13.36 62.52 -13.12Q62.61 -12.89 62.61 -12.64M64.97 0L64.97 -9.64L66.05 -9.64Q66.44 -9.64 66.53 -9.28L66.66 -8.28Q67.28 -8.95 68.05 -9.38Q68.83 -9.8 69.83 -9.8Q70.62 -9.8 71.22 -9.53Q71.83 -9.27 72.23 -8.78Q72.64 -8.3 72.84 -7.62Q73.06 -6.97 73.06 -6.14L73.06 0L71.25 0L71.25 -6.14Q71.25 -7.19 70.77 -7.77Q70.28 -8.36 69.3 -8.36Q68.56 -8.36 67.94 -8.02Q67.31 -7.67 66.77 -7.08L66.77 0L64.97 0M78.59 0.16Q77.44 0.16 76.81 -0.48Q76.19 -1.14 76.19 -2.36L76.19 -8.17L75.05 -8.17Q74.89 -8.17 74.78 -8.27Q74.69 -8.38 74.69 -8.56L74.69 -9.28L76.25 -9.48L76.66 -12.41Q76.69 -12.56 76.8 -12.64Q76.91 -12.73 77.08 -12.73L77.98 -12.73L77.98 -9.48L80.73 -9.48L80.73 -8.17L77.98 -8.17L77.98 -2.48Q77.98 -1.91 78.27 -1.61Q78.55 -1.33 79 -1.33Q79.27 -1.33 79.45 -1.39Q79.64 -1.45 79.77 -1.53Q79.91 -1.62 80 -1.69Q80.11 -1.75 80.19 -1.75Q80.27 -1.75 80.31 -1.72Q80.38 -1.69 80.42 -1.59L80.95 -0.72Q80.5 -0.3 79.88 -0.06Q79.27 0.16 78.59 0.16M86.42 -9.8Q87.3 -9.8 88.03 -9.5Q88.77 -9.22 89.31 -8.66Q89.86 -8.11 90.16 -7.3Q90.47 -6.5 90.47 -5.47Q90.47 -5.05 90.38 -4.91Q90.28 -4.77 90.03 -4.77L83.67 -4.77Q83.7 -3.89 83.92 -3.23Q84.14 -2.58 84.53 -2.14Q84.92 -1.7 85.45 -1.48Q86 -1.28 86.66 -1.28Q87.3 -1.28 87.73 -1.42Q88.19 -1.56 88.52 -1.73Q88.84 -1.91 89.06 -2.05Q89.3 -2.19 89.47 -2.19Q89.7 -2.19 89.81 -2.03L90.33 -1.38Q89.98 -0.97 89.55 -0.69Q89.11 -0.41 88.61 -0.22Q88.11 -0.03 87.56 0.05Q87.03 0.14 86.52 0.14Q85.52 0.14 84.66 -0.2Q83.81 -0.55 83.19 -1.19Q82.58 -1.84 82.23 -2.8Q81.89 -3.77 81.89 -5.03Q81.89 -6.03 82.2 -6.89Q82.52 -7.77 83.09 -8.41Q83.69 -9.05 84.52 -9.42Q85.36 -9.8 86.42 -9.8M86.44 -8.47Q85.25 -8.47 84.58 -7.78Q83.91 -7.09 83.73 -5.88L88.84 -5.88Q88.84 -6.45 88.69 -6.92Q88.53 -7.41 88.22 -7.73Q87.91 -8.08 87.45 -8.27Q87.02 -8.47 86.44 -8.47M92.48 0L92.48 -9.64L93.52 -9.64Q93.81 -9.64 93.92 -9.53Q94.03 -9.44 94.06 -9.16L94.19 -7.75Q94.64 -8.72 95.3 -9.27Q95.97 -9.81 96.91 -9.81Q97.22 -9.81 97.5 -9.75Q97.78 -9.69 97.98 -9.53L97.86 -8.19Q97.8 -7.94 97.56 -7.94Q97.42 -7.94 97.16 -7.98Q96.91 -8.05 96.59 -8.05Q96.14 -8.05 95.8 -7.91Q95.45 -7.78 95.17 -7.52Q94.89 -7.27 94.67 -6.89Q94.47 -6.53 94.28 -6.05L94.28 0L92.48 0M99.42 0L99.42 -9.64L100.5 -9.64Q100.89 -9.64 100.98 -9.28L101.11 -8.28Q101.73 -8.95 102.5 -9.38Q103.28 -9.8 104.28 -9.8Q105.08 -9.8 105.67 -9.53Q106.28 -9.27 106.69 -8.78Q107.09 -8.3 107.3 -7.62Q107.52 -6.97 107.52 -6.14L107.52 0L105.7 0L105.7 -6.14Q105.7 -7.19 105.22 -7.77Q104.73 -8.36 103.75 -8.36Q103.02 -8.36 102.39 -8.02Q101.77 -7.67 101.22 -7.08L101.22 0L99.42 0M116.2 0Q115.94 0 115.8 -0.08Q115.66 -0.17 115.58 -0.42L115.38 -1.28Q115 -0.94 114.64 -0.67Q114.28 -0.41 113.89 -0.22Q113.5 -0.03 113.05 0.06Q112.59 0.16 112.05 0.16Q111.48 0.16 110.98 0Q110.48 -0.16 110.12 -0.48Q109.77 -0.81 109.55 -1.28Q109.33 -1.77 109.33 -2.42Q109.33 -3 109.64 -3.52Q109.95 -4.03 110.64 -4.44Q111.34 -4.86 112.47 -5.12Q113.59 -5.39 115.23 -5.44L115.23 -6.16Q115.23 -7.25 114.77 -7.8Q114.3 -8.36 113.39 -8.36Q112.77 -8.36 112.36 -8.2Q111.95 -8.05 111.64 -7.86Q111.34 -7.67 111.11 -7.52Q110.89 -7.38 110.66 -7.38Q110.47 -7.38 110.34 -7.47Q110.22 -7.58 110.12 -7.7L109.8 -8.3Q110.61 -9.05 111.55 -9.42Q112.48 -9.81 113.61 -9.81Q114.42 -9.81 115.06 -9.55Q115.7 -9.28 116.12 -8.8Q116.56 -8.33 116.78 -7.64Q117.02 -6.97 117.02 -6.16L117.02 0L116.2 0M112.59 -1.11Q113.02 -1.11 113.38 -1.19Q113.75 -1.28 114.06 -1.44Q114.39 -1.61 114.67 -1.84Q114.95 -2.08 115.23 -2.36L115.23 -4.3Q114.11 -4.27 113.3 -4.12Q112.5 -3.98 112 -3.75Q111.52 -3.53 111.28 -3.2Q111.05 -2.89 111.05 -2.52Q111.05 -2.14 111.17 -1.88Q111.3 -1.61 111.5 -1.44Q111.7 -1.27 111.98 -1.19Q112.27 -1.11 112.59 -1.11M121.38 -14.02L121.38 0L119.58 0L119.58 -14.02L121.38 -14.02M128.86 3.23L128.86 -9.64L129.94 -9.64Q130.33 -9.64 130.42 -9.28L130.56 -8.17Q131.17 -8.91 131.97 -9.36Q132.77 -9.81 133.78 -9.81Q134.61 -9.81 135.28 -9.48Q135.95 -9.17 136.42 -8.55Q136.91 -7.92 137.16 -7Q137.42 -6.09 137.42 -4.89Q137.42 -3.81 137.14 -2.89Q136.86 -1.98 136.31 -1.31Q135.78 -0.64 135 -0.25Q134.23 0.14 133.27 0.14Q132.38 0.14 131.75 -0.14Q131.14 -0.44 130.66 -0.97L130.66 3.23L128.86 3.23M133.2 -8.36Q132.38 -8.36 131.77 -7.98Q131.17 -7.62 130.66 -6.95L130.66 -2.34Q131.12 -1.75 131.66 -1.5Q132.19 -1.27 132.86 -1.27Q134.16 -1.27 134.86 -2.19Q135.56 -3.12 135.56 -4.89Q135.56 -5.81 135.39 -6.47Q135.23 -7.12 134.94 -7.55Q134.64 -7.97 134.2 -8.16Q133.77 -8.36 133.2 -8.36M139.53 0L139.53 -9.64L140.56 -9.64Q140.86 -9.64 140.97 -9.53Q141.08 -9.44 141.11 -9.16L141.23 -7.75Q141.69 -8.72 142.34 -9.27Q143.02 -9.81 143.95 -9.81Q144.27 -9.81 144.55 -9.75Q144.83 -9.69 145.03 -9.53L144.91 -8.19Q144.84 -7.94 144.61 -7.94Q144.47 -7.94 144.2 -7.98Q143.95 -8.05 143.64 -8.05Q143.19 -8.05 142.84 -7.91Q142.5 -7.78 142.22 -7.52Q141.94 -7.27 141.72 -6.89Q141.52 -6.53 141.33 -6.05L141.33 0L139.53 0M150.45 -9.8Q151.33 -9.8 152.06 -9.5Q152.8 -9.22 153.34 -8.66Q153.89 -8.11 154.19 -7.3Q154.5 -6.5 154.5 -5.47Q154.5 -5.05 154.41 -4.91Q154.31 -4.77 154.06 -4.77L147.7 -4.77Q147.73 -3.89 147.95 -3.23Q148.17 -2.58 148.56 -2.14Q148.95 -1.7 149.48 -1.48Q150.03 -1.28 150.69 -1.28Q151.33 -1.28 151.77 -1.42Q152.22 -1.56 152.55 -1.73Q152.88 -1.91 153.09 -2.05Q153.33 -2.19 153.5 -2.19Q153.73 -2.19 153.84 -2.03L154.36 -1.38Q154.02 -0.97 153.58 -0.69Q153.14 -0.41 152.64 -0.22Q152.14 -0.03 151.59 0.05Q151.06 0.14 150.55 0.14Q149.55 0.14 148.69 -0.2Q147.84 -0.55 147.22 -1.19Q146.61 -1.84 146.27 -2.8Q145.92 -3.77 145.92 -5.03Q145.92 -6.03 146.23 -6.89Q146.55 -7.77 147.12 -8.41Q147.72 -9.05 148.55 -9.42Q149.39 -9.8 150.45 -9.8M150.47 -8.47Q149.28 -8.47 148.61 -7.78Q147.94 -7.09 147.77 -5.88L152.88 -5.88Q152.88 -6.45 152.72 -6.92Q152.56 -7.41 152.25 -7.73Q151.94 -8.08 151.48 -8.27Q151.05 -8.47 150.47 -8.47M160.94 0L159.31 0L155.39 -9.64L156.88 -9.64Q157.09 -9.64 157.23 -9.53Q157.38 -9.44 157.42 -9.28L159.77 -3.27Q159.89 -2.91 159.97 -2.55Q160.06 -2.19 160.14 -1.84Q160.22 -2.19 160.31 -2.53Q160.41 -2.89 160.53 -3.27L162.92 -9.28Q162.97 -9.44 163.11 -9.53Q163.25 -9.64 163.44 -9.64L164.86 -9.64L160.94 0M168.25 -9.64L168.25 0L166.44 0L166.44 -9.64L168.25 -9.64M168.59 -12.64Q168.59 -12.38 168.5 -12.16Q168.41 -11.94 168.22 -11.77Q168.05 -11.59 167.81 -11.48Q167.58 -11.39 167.33 -11.39Q167.08 -11.39 166.86 -11.48Q166.64 -11.59 166.47 -11.77Q166.3 -11.94 166.19 -12.16Q166.09 -12.38 166.09 -12.64Q166.09 -12.89 166.19 -13.12Q166.3 -13.36 166.47 -13.53Q166.64 -13.7 166.86 -13.8Q167.08 -13.91 167.33 -13.91Q167.58 -13.91 167.81 -13.8Q168.05 -13.7 168.22 -13.53Q168.41 -13.36 168.5 -13.12Q168.59 -12.89 168.59 -12.64M174.94 -9.8Q175.81 -9.8 176.55 -9.5Q177.28 -9.22 177.83 -8.66Q178.38 -8.11 178.67 -7.3Q178.98 -6.5 178.98 -5.47Q178.98 -5.05 178.89 -4.91Q178.8 -4.77 178.55 -4.77L172.19 -4.77Q172.22 -3.89 172.44 -3.23Q172.66 -2.58 173.05 -2.14Q173.44 -1.7 173.97 -1.48Q174.52 -1.28 175.17 -1.28Q175.81 -1.28 176.25 -1.42Q176.7 -1.56 177.03 -1.73Q177.36 -1.91 177.58 -2.05Q177.81 -2.19 177.98 -2.19Q178.22 -2.19 178.33 -2.03L178.84 -1.38Q178.5 -0.97 178.06 -0.69Q177.62 -0.41 177.12 -0.22Q176.62 -0.03 176.08 0.05Q175.55 0.14 175.03 0.14Q174.03 0.14 173.17 -0.2Q172.33 -0.55 171.7 -1.19Q171.09 -1.84 170.75 -2.8Q170.41 -3.77 170.41 -5.03Q170.41 -6.03 170.72 -6.89Q171.03 -7.77 171.61 -8.41Q172.2 -9.05 173.03 -9.42Q173.88 -9.8 174.94 -9.8M174.95 -8.47Q173.77 -8.47 173.09 -7.78Q172.42 -7.09 172.25 -5.88L177.36 -5.88Q177.36 -6.45 177.2 -6.92Q177.05 -7.41 176.73 -7.73Q176.42 -8.08 175.97 -8.27Q175.53 -8.47 174.95 -8.47M179.97 -9.64L181.39 -9.64Q181.61 -9.64 181.75 -9.53Q181.89 -9.44 181.94 -9.28L183.72 -3.27Q183.8 -2.91 183.86 -2.56Q183.94 -2.23 183.98 -1.91Q184.08 -2.23 184.17 -2.56Q184.27 -2.91 184.38 -3.27L186.33 -9.31Q186.38 -9.47 186.5 -9.56Q186.62 -9.67 186.83 -9.67L187.59 -9.67Q187.8 -9.67 187.92 -9.56Q188.06 -9.47 188.11 -9.31L190.05 -3.27Q190.14 -2.91 190.22 -2.56Q190.31 -2.23 190.39 -1.91Q190.45 -2.23 190.52 -2.56Q190.59 -2.91 190.69 -3.27L192.5 -9.28Q192.55 -9.44 192.69 -9.53Q192.83 -9.64 193.02 -9.64L194.38 -9.64L191.27 0L189.83 0Q189.56 0 189.47 -0.34L187.41 -6.7Q187.33 -6.94 187.27 -7.16Q187.22 -7.39 187.17 -7.62Q187.12 -7.39 187.08 -7.16Q187.03 -6.92 186.95 -6.7L184.86 -0.34Q184.75 0 184.45 0L183.09 0L179.97 -9.64"/></g>
<line x1="64" y1="37" x2="64" y2="386" stroke="#333333"/>
<line x1="65" y1="386" x2="687" y2="386" stroke="#E0E0E0"/>
<line x1="60" y1="386" x2="63" y2="386" stroke="#333333"/>
<g transform="translate(41.9 389)" fill="#222222"><path d="M4.5 -3.7Q4.62 -3.88 4.75 -4.03Q4.88 -4.2 4.98 -4.36Q4.62 -4.08 4.19 -3.94Q3.75 -3.81 3.27 -3.81Q2.75 -3.81 2.27 -3.98Q1.8 -4.16 1.44 -4.5Q1.08 -4.84 0.86 -5.34Q0.66 -5.84 0.66 -6.48Q0.66 -7.09 0.88 -7.62Q1.11 -8.17 1.52 -8.56Q1.94 -8.97 2.5 -9.2Q3.08 -9.44 3.77 -9.44Q4.44 -9.44 4.98 -9.2Q5.55 -8.98 5.94 -8.58Q6.33 -8.19 6.53 -7.62Q6.75 -7.08 6.75 -6.41Q6.75 -6 6.67 -5.62Q6.61 -5.27 6.47 -4.91Q6.33 -4.56 6.12 -4.22Q5.92 -3.89 5.67 -3.53L3.42 -0.3Q3.33 -0.16 3.16 -0.08Q3 0 2.78 0L1.66 0L4.5 -3.7M5.58 -6.55Q5.58 -6.98 5.44 -7.31Q5.3 -7.66 5.05 -7.89Q4.81 -8.14 4.47 -8.27Q4.14 -8.41 3.75 -8.41Q3.33 -8.41 2.98 -8.27Q2.64 -8.12 2.39 -7.89Q2.16 -7.66 2.02 -7.31Q1.89 -6.97 1.89 -6.58Q1.89 -5.7 2.36 -5.23Q2.84 -4.77 3.67 -4.77Q4.14 -4.77 4.48 -4.91Q4.84 -5.05 5.08 -5.3Q5.31 -5.55 5.44 -5.86Q5.58 -6.19 5.58 -6.55M13.34 -3.39L14.72 -3.39L14.72 -2.67Q14.72 -2.56 14.66 -2.48Q14.59 -2.42 14.45 -2.42L13.34 -2.42L13.34 0L12.27 0L12.27 -2.42L8.17 -2.42Q8.03 -2.42 7.92 -2.5Q7.83 -2.58 7.81 -2.7L7.69 -3.33L12.2 -9.33L13.34 -9.33L13.34 -3.39M12.27 -7.09Q12.27 -7.28 12.28 -7.48Q12.3 -7.69 12.33 -7.91L9.02 -3.39L12.27 -3.39L12.27 -7.09"/></g>
<line x1="65" y1="336" x2="687" y2="336" stroke="#E0E0E0"/>
<line x1="60" y1="336" x2="63" y2="336" stroke="#333333"/>
<g transform="translate(41.9 339)" fill="#222222"><path d="M4.5 -3.7Q4.62 -3.88 4.75 -4.03Q4.88 -4.2 4.98 -4.36Q4.62 -4.08 4.19 -3.94Q3.75 -3.81 3.27 -3.81Q2.75 -3.81 2.27 -3.98Q1.8 -4.16 1.44 -4.5Q1.08 -4.84 0.86 -5.34Q0.66 -5.84 0.66 -6.48Q0.66 -7.09 0.88 -7.62Q1.11 -8.17 1.52 -8.56Q1.94 -8.97 2.5 -9.2Q3.08 -9.44 3.77 -9.44Q4.44 -9.44 4.98 -9.2Q5.55 -8.98 5.94 -8.58Q6.33 -8.19 6.53 -7.62Q6.75 -7.08 6.75 -6.41Q6.75 -6 6.67 -5.62Q6.61 -5.27 6.47 -4.91Q6.33 -4.56 6.12 -4.22Q5.92 -3.89 5.67 -3.53L3.42 -0.3Q3.33 -0.16 3.16 -0.08Q3 0 2.78 0L1.66 0L4.5 -3.7M5.58 -6.55Q5.58 -6.98 5.44 -7.31Q5.3 -7.66 5.05 -7.89Q4.81 -8.14 4.47 -8.27Q4.14 -8.41 3.75 -8.41Q3.33 -8.41 2.98 -8.27Q2.64 -8.12 2.39 -7.89Q2.16 -7.66 2.02 -7.31Q1.89 -6.97 1.89 -6.58Q1.89 -5.7 2.36 -5.23Q2.84 -4.77 3.67 -4.77Q4.14 -4.77 4.48 -4.91Q4.84 -5.05 5.08 -5.3Q5.31 -5.55 5.44 -5.86Q5.58 -6.19 5.58 -6.55M10.69 -5.84Q10.56 -5.7 10.45 -5.56Q10.34 -5.42 10.25 -5.3Q10.56 -5.5 10.95 -5.61Q11.34 -5.73 11.78 -5.73Q12.34 -5.73 12.84 -5.55Q13.34 -5.38 13.72 -5.02Q14.11 -4.66 14.33 -4.14Q14.55 -3.62 14.55 -2.95Q14.55 -2.31 14.31 -1.75Q14.08 -1.19 13.66 -0.78Q13.23 -0.38 12.64 -0.12Q12.05 0.11 11.33 0.11Q10.61 0.11 10.03 -0.11Q9.47 -0.34 9.06 -0.77Q8.66 -1.19 8.44 -1.78Q8.22 -2.38 8.22 -3.09Q8.22 -3.72 8.48 -4.41Q8.77 -5.11 9.34 -5.89L11.69 -9.03Q11.78 -9.16 11.95 -9.23Q12.14 -9.33 12.34 -9.33L13.45 -9.33L10.69 -5.84M9.41 -2.89Q9.41 -2.45 9.53 -2.09Q9.66 -1.73 9.89 -1.47Q10.14 -1.2 10.5 -1.06Q10.86 -0.92 11.3 -0.92Q11.77 -0.92 12.12 -1.06Q12.5 -1.22 12.77 -1.47Q13.03 -1.73 13.17 -2.08Q13.31 -2.44 13.31 -2.86Q13.31 -3.31 13.17 -3.67Q13.03 -4.03 12.77 -4.28Q12.52 -4.53 12.16 -4.66Q11.81 -4.8 11.38 -4.8Q10.92 -4.8 10.55 -4.64Q10.19 -4.48 9.92 -4.22Q9.67 -3.95 9.53 -3.61Q9.41 -3.27 9.41 -2.89"/></g>
<line x1="65" y1="286" x2="687" y2="286" stroke="#E0E0E0"/>
<line x1="60" y1="286" x2="63" y2="286" stroke="#333333"/>
<g transform="translate(41.9 289)" fill="#222222"><path d="M4.5 -3.7Q4.62 -3.88 4.75 -4.03Q4.88 -4.2 4.98 -4.36Q4.62 -4.08 4.19 -3.94Q3.75 -3.81 3.27 -3.81Q2.75 -3.81 2.27 -3.98Q1.8 -4.16 1.44 -4.5Q1.08 -4.84 0.86 -5.34Q0.66 -5.84 0.66 -6.48Q0.66 -7.09 0.88 -7.62Q1.11 -8.17 1.52 -8.56Q1.94 -8.97 2.5 -9.2Q3.08 -9.44 3.77 -9.44Q4.44 -9.44 4.98 -9.2Q5.55 -8.98 5.94 -8.58Q6.33 -8.19 6.53 -7.62Q6.75 -7.08 6.75 -6.41Q6.75 -6 6.67 -5.62Q6.61 -5.27 6.47 -4.91Q6.33 -4.56 6.12 -4.22Q5.92 -3.89 5.67 -3.53L3.42 -0.3Q3.33 -0.16 3.16 -0.08Q3 0 2.78 0L1.66 0L4.5 -3.7M5.58 -6.55Q5.58 -6.98 5.44 -7.31Q5.3 -7.66 5.05 -7.89Q4.81 -8.14 4.47 -8.27Q4.14 -8.41 3.75 -8.41Q3.33 -8.41 2.98 -8.27Q2.64 -8.12 2.39 -7.89Q2.16 -7.66 2.02 -7.31Q1.89 -6.97 1.89 -6.58Q1.89 -5.7 2.36 -5.23Q2.84 -4.77 3.67 -4.77Q4.14 -4.77 4.48 -4.91Q4.84 -5.05 5.08 -5.3Q5.31 -5.55 5.44 -5.86Q5.58 -6.19 5.58 -6.55M11.31 0.11Q10.61 0.11 10.03 -0.08Q9.45 -0.27 9.03 -0.61Q8.62 -0.97 8.39 -1.45Q8.16 -1.95 8.16 -2.56Q8.16 -3.45 8.61 -4.03Q9.08 -4.61 9.95 -4.86Q9.22 -5.14 8.84 -5.67Q8.47 -6.22 8.47 -6.97Q8.47 -7.5 8.67 -7.94Q8.89 -8.39 9.27 -8.72Q9.64 -9.05 10.16 -9.23Q10.69 -9.44 11.31 -9.44Q11.95 -9.44 12.47 -9.23Q13 -9.05 13.38 -8.72Q13.75 -8.39 13.95 -7.94Q14.16 -7.5 14.16 -6.97Q14.16 -6.22 13.78 -5.67Q13.41 -5.14 12.69 -4.86Q13.55 -4.61 14 -4.03Q14.47 -3.45 14.47 -2.56Q14.47 -1.95 14.23 -1.45Q14.02 -0.97 13.59 -0.61Q13.19 -0.27 12.59 -0.08Q12.02 0.11 11.31 0.11M11.31 -0.88Q11.77 -0.88 12.11 -1Q12.47 -1.12 12.7 -1.36Q12.95 -1.59 13.08 -1.89Q13.2 -2.2 13.2 -2.59Q13.2 -3.05 13.05 -3.38Q12.91 -3.72 12.64 -3.92Q12.39 -4.14 12.03 -4.23Q11.69 -4.33 11.31 -4.33Q10.94 -4.33 10.59 -4.23Q10.25 -4.14 9.98 -3.92Q9.73 -3.72 9.58 -3.38Q9.42 -3.05 9.42 -2.59Q9.42 -2.2 9.55 -1.89Q9.67 -1.59 9.92 -1.36Q10.17 -1.12 10.52 -1Q10.88 -0.88 11.31 -0.88M11.31 -5.33Q11.77 -5.33 12.08 -5.45Q12.39 -5.59 12.58 -5.81Q12.77 -6.05 12.86 -6.34Q12.95 -6.64 12.95 -6.95Q12.95 -7.27 12.84 -7.53Q12.75 -7.81 12.55 -8.02Q12.34 -8.23 12.03 -8.36Q11.72 -8.48 11.31 -8.48Q10.91 -8.48 10.59 -8.36Q10.3 -8.23 10.09 -8.02Q9.89 -7.81 9.78 -7.53Q9.69 -7.27 9.69 -6.95Q9.69 -6.64 9.77 -6.34Q9.86 -6.05 10.05 -5.81Q10.25 -5.59 10.56 -5.45Q10.88 -5.33 11.31 -5.33"/></g>
<line x1="65" y1="236" x2="687" y2="236" stroke="#E0E0E0"/>
<line x1="60" y1="236" x2="63" y2="236" stroke="#333333"/>
<g transform="translate(34.4 239)" fill="#222222"><path d="M1.61 -0.94L3.59 -0.94L3.59 -7.14Q3.59 -7.42 3.61 -7.73L2 -6.36Q1.91 -6.28 1.81 -6.27Q1.73 -6.25 1.66 -6.27Q1.58 -6.28 1.52 -6.31Q1.45 -6.36 1.42 -6.41L1.03 -6.94L3.83 -9.34L4.83 -9.34L4.83 -0.94L6.64 -0.94L6.64 0L1.61 0L1.61 -0.94M14.7 -4.67Q14.7 -3.44 14.44 -2.55Q14.19 -1.66 13.72 -1.06Q13.27 -0.47 12.64 -0.19Q12.03 0.09 11.31 0.09Q10.59 0.09 9.97 -0.19Q9.36 -0.47 8.89 -1.06Q8.44 -1.66 8.17 -2.55Q7.92 -3.44 7.92 -4.67Q7.92 -5.89 8.17 -6.78Q8.44 -7.69 8.89 -8.27Q9.36 -8.86 9.97 -9.14Q10.59 -9.44 11.31 -9.44Q12.03 -9.44 12.64 -9.14Q13.27 -8.86 13.72 -8.27Q14.19 -7.69 14.44 -6.78Q14.7 -5.89 14.7 -4.67M13.42 -4.67Q13.42 -5.72 13.25 -6.44Q13.08 -7.16 12.78 -7.58Q12.5 -8.02 12.11 -8.2Q11.72 -8.39 11.31 -8.39Q10.89 -8.39 10.5 -8.2Q10.12 -8.02 9.83 -7.58Q9.55 -7.16 9.38 -6.44Q9.2 -5.72 9.2 -4.67Q9.2 -3.61 9.38 -2.89Q9.55 -2.17 9.83 -1.73Q10.12 -1.31 10.5 -1.12Q10.89 -0.94 11.31 -0.94Q11.72 -0.94 12.11 -1.12Q12.5 -1.31 12.78 -1.73Q13.08 -2.17 13.25 -2.89Q13.42 -3.61 13.42 -4.67M22.25 -4.67Q22.25 -3.44 21.98 -2.55Q21.73 -1.66 21.27 -1.06Q20.81 -0.47 20.19 -0.19Q19.58 0.09 18.86 0.09Q18.14 0.09 17.52 -0.19Q16.91 -0.47 16.44 -1.06Q15.98 -1.66 15.72 -2.55Q15.47 -3.44 15.47 -4.67Q15.47 -5.89 15.72 -6.78Q15.98 -7.69 16.44 -8.27Q16.91 -8.86 17.52 -9.14Q18.14 -9.44 18.86 -9.44Q19.58 -9.44 20.19 -9.14Q20.81 -8.86 21.27 -8.27Q21.73 -7.69 21.98 -6.78Q22.25 -5.89 22.25 -4.67M20.97 -4.67Q20.97 -5.72 20.8 -6.44Q20.62 -7.16 20.33 -7.58Q20.05 -8.02 19.66 -8.2Q19.27 -8.39 18.86 -8.39Q18.44 -8.39 18.05 -8.2Q17.67 -8.02 17.38 -7.58Q17.09 -7.16 16.92 -6.44Q16.75 -5.72 16.75 -4.67Q16.75 -3.61 16.92 -2.89Q17.09 -2.17 17.38 -1.73Q17.67 -1.31 18.05 -1.12Q18.44 -0.94 18.86 -0.94Q19.27 -0.94 19.66 -1.12Q20.05 -1.31 20.33 -1.73Q20.62 -2.17 20.8 -2.89Q20.97 -3.61 20.97 -4.67"/></g>
<line x1="65" y1="187" x2="687" y2="187" stroke="#E0E0E0"/>
<line x1="60" y1="187" x2="63" y2="187" stroke="#333333"/>
<g transform="translate(34.4 190)" fill="#222222"><path d="M1.61 -0.94L3.59 -0.94L3.59 -7.14Q3.59 -7.42 3.61 -7.73L2 -6.36Q1.91 -6.28 1.81 -6.27Q1.73 -6.25 1.66 -6.27Q1.58 -6.28 1.52 -6.31Q1.45 -6.36 1.42 -6.41L1.03 -6.94L3.83 -9.34L4.83 -9.34L4.83 -0.94L6.64 -0.94L6.64 0L1.61 0L1.61 -0.94M14.7 -4.67Q14.7 -3.44 14.44 -2.55Q14.19 -1.66 13.72 -1.06Q13.27 -0.47 12.64 -0.19Q12.03 0.09 11.31 0.09Q10.59 0.09 9.97 -0.19Q9.36 -0.47 8.89 -1.06Q8.44 -1.66 8.17 -2.55Q7.92 -3.44 7.92 -4.67Q7.92 -5.89 8.17 -6.78Q8.44 -7.69 8.89 -8.27Q9.36 -8.86 9.97 -9.14Q10.59 -9.44 11.31 -9.44Q12.03 -9.44 12.64 -9.14Q13.27 -8.86 13.72 -8.27Q14.19 -7.69 14.44 -6.78Q14.7 -5.89 14.7 -4.67M13.42 -4.67Q13.42 -5.72 13.25 -6.44Q13.08 -7.16 12.78 -7.58Q12.5 -8.02 12.11 -8.2Q11.72 -8.39 11.31 -8.39Q10.89 -8.39 10.5 -8.2Q10.12 -8.02 9.83 -7.58Q9.55 -7.16 9.38 -6.44Q9.2 -5.72 9.2 -4.67Q9.2 -3.61 9.38 -2.89Q9.55 -2.17 9.83 -1.73Q10.12 -1.31 10.5 -1.12Q10.89 -0.94 11.31 -0.94Q11.72 -0.94 12.11 -1.12Q12.5 -1.31 12.78 -1.73Q13.08 -2.17 13.25 -2.89Q13.42 -3.61 13.42 -4.67M18.94 -9.44Q19.55 -9.44 20.06 -9.25Q20.58 -9.08 20.95 -8.73Q21.33 -8.41 21.53 -7.92Q21.75 -7.44 21.75 -6.83Q21.75 -6.31 21.59 -5.86Q21.45 -5.42 21.19 -5.02Q20.92 -4.61 20.58 -4.22Q20.23 -3.84 19.84 -3.45L17.44 -1Q17.7 -1.08 17.97 -1.12Q18.25 -1.17 18.5 -1.17L21.5 -1.17Q21.7 -1.17 21.81 -1.05Q21.94 -0.94 21.94 -0.75L21.94 0L15.69 0L15.69 -0.42Q15.69 -0.55 15.73 -0.69Q15.8 -0.83 15.91 -0.94L18.88 -3.92Q19.23 -4.3 19.53 -4.64Q19.84 -4.98 20.05 -5.33Q20.27 -5.67 20.38 -6.03Q20.5 -6.39 20.5 -6.78Q20.5 -7.19 20.38 -7.48Q20.25 -7.78 20.03 -7.98Q19.81 -8.19 19.52 -8.28Q19.22 -8.38 18.88 -8.38Q18.53 -8.38 18.23 -8.27Q17.95 -8.17 17.72 -7.98Q17.5 -7.81 17.34 -7.56Q17.2 -7.33 17.14 -7.05Q17.05 -6.8 16.91 -6.72Q16.77 -6.64 16.52 -6.67L15.88 -6.8Q15.97 -7.44 16.22 -7.92Q16.48 -8.42 16.89 -8.75Q17.3 -9.09 17.81 -9.27Q18.34 -9.44 18.94 -9.44"/></g>
<line x1="65" y1="137" x2="687" y2="137" stroke="#E0E0E0"/>
<line x1="60" y1="137" x2="63" y2="137" stroke="#333333"/>
<g transform="translate(34.4 140)" fill="#222222"><path d="M1.61 -0.94L3.59 -0.94L3.59 -7.14Q3.59 -7.42 3.61 -7.73L2 -6.36Q1.91 -6.28 1.81 -6.27Q1.73 -6.25 1.66 -6.27Q1.58 -6.28 1.52 -6.31Q1.45 -6.36 1.42 -6.41L1.03 -6.94L3.83 -9.34L4.83 -9.34L4.83 -0.94L6.64 -0.94L6.64 0L1.61 0L1.61 -0.94M14.7 -4.67Q14.7 -3.44 14.44 -2.55Q14.19 -1.66 13.72 -1.06Q13.27 -0.47 12.64 -0.19Q12.03 0.09 11.31 0.09Q10.59 0.09 9.97 -0.19Q9.36 -0.47 8.89 -1.06Q8.44 -1.66 8.17 -2.55Q7.92 -3.44 7.92 -4.67Q7.92 -5.89 8.17 -6.78Q8.44 -7.69 8.89 -8.27Q9.36 -8.86 9.97 -9.14Q10.59 -9.44 11.31 -9.44Q12.03 -9.44 12.64 -9.14Q13.27 -8.86 13.72 -8.27Q14.19 -7.69 14.44 -6.78Q14.7 -5.89 14.7 -4.67M13.42 -4.67Q13.42 -5.72 13.25 -6.44Q13.08 -7.16 12.78 -7.58Q12.5 -8.02 12.11 -8.2Q11.72 -8.39 11.31 -8.39Q10.89 -8.39 10.5 -8.2Q10.12 -8.02 9.83 -7.58Q9.55 -7.16 9.38 -6.44Q9.2 -5.72 9.2 -4.67Q9.2 -3.61 9.38 -2.89Q9.55 -2.17 9.83 -1.73Q10.12 -1.31 10.5 -1.12Q10.89 -0.94 11.31 -0.94Q11.72 -0.94 12.11 -1.12Q12.5 -1.31 12.78 -1.73Q13.08 -2.17 13.25 -2.89Q13.42 -3.61 13.42 -4.67M20.89 -3.39L22.27 -3.39L22.27 -2.67Q22.27 -2.56 22.2 -2.48Q22.14 -2.42 22 -2.42L20.89 -2.42L20.89 0L19.81 0L19.81 -2.42L15.72 -2.42Q15.58 -2.42 15.47 -2.5Q15.38 -2.58 15.36 -2.7L15.23 -3.33L19.75 -9.33L20.89 -9.33L20.89 -3.39M19.81 -7.09Q19.81 -7.28 19.83 -7.48Q19.84 -7.69 19.88 -7.91L16.56 -3.39L19.81 -3.39L19.81 -7.09"/></g>
<line x1="65" y1="87" x2="687" y2="87" stroke="#E0E0E0"/>
<line x1="60" y1="87" x2="63" y2="87" stroke="#333333"/>
<g transform="translate(34.4 90)" fill="#222222"><path d="M1.61 -0.94L3.59 -0.94L3.59 -7.14Q3.59 -7.42 3.61 -7.73L2 -6.36Q1.91 -6.28 1.81 -6.27Q1.73 -6.25 1.66 -6.27Q1.58 -6.28 1.52 -6.31Q1.45 -6.36 1.42 -6.41L1.03 -6.94L3.83 -9.34L4.83 -9.34L4.83 -0.94L6.64 -0.94L6.64 0L1.61 0L1.61 -0.94M14.7 -4.67Q14.7 -3.44 14.44 -2.55Q14.19 -1.66 13.72 -1.06Q13.27 -0.47 12.64 -0.19Q12.03 0.09 11.31 0.09Q10.59 0.09 9.97 -0.19Q9.36 -0.47 8.89 -1.06Q8.44 -1.66 8.17 -2.55Q7.92 -3.44 7.92 -4.67Q7.92 -5.89 8.17 -6.78Q8.44 -7.69 8.89 -8.27Q9.36 -8.86 9.97 -9.14Q10.59 -9.44 11.31 -9.44Q12.03 -9.44 12.64 -9.14Q13.27 -8.86 13.72 -8.27Q14.19 -7.69 14.44 -6.78Q14.7 -5.89 14.7 -4.67M13.42 -4.67Q13.42 -5.72 13.25 -6.44Q13.08 -7.16 12.78 -7.58Q12.5 -8.02 12.11 -8.2Q11.72 -8.39 11.31 -8.39Q10.89 -8.39 10.5 -8.2Q10.12 -8.02 9.83 -7.58Q9.55 -7.16 9.38 -6.44Q9.2 -5.72 9.2 -4.67Q9.2 -3.61 9.38 -2.89Q9.55 -2.17 9.83 -1.73Q10.12 -1.31 10.5 -1.12Q10.89 -0.94 11.31 -0.94Q11.72 -0.94 12.11 -1.12Q12.5 -1.31 12.78 -1.73Q13.08 -2.17 13.25 -2.89Q13.42 -3.61 13.42 -4.67M18.23 -5.84Q18.11 -5.7 18 -5.56Q17.89 -5.42 17.8 -5.3Q18.11 -5.5 18.5 -5.61Q18.89 -5.73 19.33 -5.73Q19.89 -5.73 20.39 -5.55Q20.89 -5.38 21.27 -5.02Q21.66 -4.66 21.88 -4.14Q22.09 -3.62 22.09 -2.95Q22.09 -2.31 21.86 -1.75Q21.62 -1.19 21.2 -0.78Q20.78 -0.38 20.19 -0.12Q19.59 0.11 18.88 0.11Q18.16 0.11 17.58 -0.11Q17.02 -0.34 16.61 -0.77Q16.2 -1.19 15.98 -1.78Q15.77 -2.38 15.77 -3.09Q15.77 -3.72 16.03 -4.41Q16.31 -5.11 16.89 -5.89L19.23 -9.03Q19.33 -9.16 19.5 -9.23Q19.69 -9.33 19.89 -9.33L21 -9.33L18.23 -5.84M16.95 -2.89Q16.95 -2.45 17.08 -2.09Q17.2 -1.73 17.44 -1.47Q17.69 -1.2 18.05 -1.06Q18.41 -0.92 18.84 -0.92Q19.31 -0.92 19.67 -1.06Q20.05 -1.22 20.31 -1.47Q20.58 -1.73 20.72 -2.08Q20.86 -2.44 20.86 -2.86Q20.86 -3.31 20.72 -3.67Q20.58 -4.03 20.31 -4.28Q20.06 -4.53 19.7 -4.66Q19.36 -4.8 18.92 -4.8Q18.47 -4.8 18.09 -4.64Q17.73 -4.48 17.47 -4.22Q17.22 -3.95 17.08 -3.61Q16.95 -3.27 16.95 -2.89"/></g>
<line x1="65" y1="37" x2="687" y2="37" stroke="#E0E0E0"/>
<line x1="60" y1="37" x2="63" y2="37" stroke="#333333"/>
<g transform="translate(34.4 40)" fill="#222222"><path d="M1.61 -0.94L3.59 -0.94L3.59 -7.14Q3.59 -7.42 3.61 -7.73L2 -6.36Q1.91 -6.28 1.81 -6.27Q1.73 -6.25 1.66 -6.27Q1.58 -6.28 1.52 -6.31Q1.45 -6.36 1.42 -6.41L1.03 -6.94L3.83 -9.34L4.83 -9.34L4.83 -0.94L6.64 -0.94L6.64 0L1.61 0L1.61 -0.94M14.7 -4.67Q14.7 -3.44 14.44 -2.55Q14.19 -1.66 13.72 -1.06Q13.27 -0.47 12.64 -0.19Q12.03 0.09 11.31 0.09Q10.59 0.09 9.97 -0.19Q9.36 -0.47 8.89 -1.06Q8.44 -1.66 8.17 -2.55Q7.92 -3.44 7.92 -4.67Q7.92 -5.89 8.17 -6.78Q8.44 -7.69 8.89 -8.27Q9.36 -8.86 9.97 -9.14Q10.59 -9.44 11.31 -9.44Q12.03 -9.44 12.64 -9.14Q13.27 -8.86 13.72 -8.27Q14.19 -7.69 14.44 -6.78Q14.7 -5.89 14.7 -4.67M13.42 -4.67Q13.42 -5.72 13.25 -6.44Q13.08 -7.16 12.78 -7.58Q12.5 -8.02 12.11 -8.2Q11.72 -8.39 11.31 -8.39Q10.89 -8.39 10.5 -8.2Q10.12 -8.02 9.83 -7.58Q9.55 -7.16 9.38 -6.44Q9.2 -5.72 9.2 -4.67Q9.2 -3.61 9.38 -2.89Q9.55 -2.17 9.83 -1.73Q10.12 -1.31 10.5 -1.12Q10.89 -0.94 11.31 -0.94Q11.72 -0.94 12.11 -1.12Q12.5 -1.31 12.78 -1.73Q13.08 -2.17 13.25 -2.89Q13.42 -3.61 13.42 -4.67M18.86 0.11Q18.16 0.11 17.58 -0.08Q17 -0.27 16.58 -0.61Q16.17 -0.97 15.94 -1.45Q15.7 -1.95 15.7 -2.56Q15.7 -3.45 16.16 -4.03Q16.62 -4.61 17.5 -4.86Q16.77 -5.14 16.39 -5.67Q16.02 -6.22 16.02 -6.97Q16.02 -7.5 16.22 -7.94Q16.44 -8.39 16.81 -8.72Q17.19 -9.05 17.7 -9.23Q18.23 -9.44 18.86 -9.44Q19.5 -9.44 20.02 -9.23Q20.55 -9.05 20.92 -8.72Q21.3 -8.39 21.5 -7.94Q21.7 -7.5 21.7 -6.97Q21.7 -6.22 21.33 -5.67Q20.95 -5.14 20.23 -4.86Q21.09 -4.61 21.55 -4.03Q22.02 -3.45 22.02 -2.56Q22.02 -1.95 21.78 -1.45Q21.56 -0.97 21.14 -0.61Q20.73 -0.27 20.14 -0.08Q19.56 0.11 18.86 0.11M18.86 -0.88Q19.31 -0.88 19.66 -1Q20.02 -1.12 20.25 -1.36Q20.5 -1.59 20.62 -1.89Q20.75 -2.2 20.75 -2.59Q20.75 -3.05 20.59 -3.38Q20.45 -3.72 20.19 -3.92Q19.94 -4.14 19.58 -4.23Q19.23 -4.33 18.86 -4.33Q18.48 -4.33 18.14 -4.23Q17.8 -4.14 17.53 -3.92Q17.28 -3.72 17.12 -3.38Q16.97 -3.05 16.97 -2.59Q16.97 -2.2 17.09 -1.89Q17.22 -1.59 17.47 -1.36Q17.72 -1.12 18.06 -1Q18.42 -0.88 18.86 -0.88M18.86 -5.33Q19.31 -5.33 19.62 -5.45Q19.94 -5.59 20.12 -5.81Q20.31 -6.05 20.41 -6.34Q20.5 -6.64 20.5 -6.95Q20.5 -7.27 20.39 -7.53Q20.3 -7.81 20.09 -8.02Q19.89 -8.23 19.58 -8.36Q19.27 -8.48 18.86 -8.48Q18.45 -8.48 18.14 -8.36Q17.84 -8.23 17.64 -8.02Q17.44 -7.81 17.33 -7.53Q17.23 -7.27 17.23 -6.95Q17.23 -6.64 17.31 -6.34Q17.41 -6.05 17.59 -5.81Q17.8 -5.59 18.11 -5.45Q18.42 -5.33 18.86 -5.33"/></g>
<line x1="64" y1="386" x2="687" y2="386" stroke="#333333"/>
<line x1="122" y1="387" x2="122" y2="390" stroke="#333333"/>
<g transform="translate(87 407)" fill="#222222"><path d="M3.84 -9.44Q4.45 -9.44 4.97 -9.25Q5.48 -9.08 5.86 -8.73Q6.23 -8.41 6.44 -7.92Q6.66 -7.44 6.66 -6.83Q6.66 -6.31 6.5 -5.86Q6.36 -5.42 6.09 -5.02Q5.83 -4.61 5.48 -4.22Q5.14 -3.84 4.75 -3.45L2.34 -1Q2.61 -1.08 2.88 -1.12Q3.16 -1.17 3.41 -1.17L6.41 -1.17Q6.61 -1.17 6.72 -1.05Q6.84 -0.94 6.84 -0.75L6.84 0L0.59 0L0.59 -0.42Q0.59 -0.55 0.64 -0.69Q0.7 -0.83 0.81 -0.94L3.78 -3.92Q4.14 -4.3 4.44 -4.64Q4.75 -4.98 4.95 -5.33Q5.17 -5.67 5.28 -6.03Q5.41 -6.39 5.41 -6.78Q5.41 -7.19 5.28 -7.48Q5.16 -7.78 4.94 -7.98Q4.72 -8.19 4.42 -8.28Q4.12 -8.38 3.78 -8.38Q3.44 -8.38 3.14 -8.27Q2.86 -8.17 2.62 -7.98Q2.41 -7.81 2.25 -7.56Q2.11 -7.33 2.05 -7.05Q1.95 -6.8 1.81 -6.72Q1.67 -6.64 1.42 -6.67L0.78 -6.8Q0.88 -7.44 1.12 -7.92Q1.39 -8.42 1.8 -8.75Q2.2 -9.09 2.72 -9.27Q3.25 -9.44 3.84 -9.44M14.7 -4.67Q14.7 -3.44 14.44 -2.55Q14.19 -1.66 13.72 -1.06Q13.27 -0.47 12.64 -0.19Q12.03 0.09 11.31 0.09Q10.59 0.09 9.97 -0.19Q9.36 -0.47 8.89 -1.06Q8.44 -1.66 8.17 -2.55Q7.92 -3.44 7.92 -4.67Q7.92 -5.89 8.17 -6.78Q8.44 -7.69 8.89 -8.27Q9.36 -8.86 9.97 -9.14Q10.59 -9.44 11.31 -9.44Q12.03 -9.44 12.64 -9.14Q13.27 -8.86 13.72 -8.27Q14.19 -7.69 14.44 -6.78Q14.7 -5.89 14.7 -4.67M13.42 -4.67Q13.42 -5.72 13.25 -6.44Q13.08 -7.16 12.78 -7.58Q12.5 -8.02 12.11 -8.2Q11.72 -8.39 11.31 -8.39Q10.89 -8.39 10.5 -8.2Q10.12 -8.02 9.83 -7.58Q9.55 -7.16 9.38 -6.44Q9.2 -5.72 9.2 -4.67Q9.2 -3.61 9.38 -2.89Q9.55 -2.17 9.83 -1.73Q10.12 -1.31 10.5 -1.12Q10.89 -0.94 11.31 -0.94Q11.72 -0.94 12.11 -1.12Q12.5 -1.31 12.78 -1.73Q13.08 -2.17 13.25 -2.89Q13.42 -3.61 13.42 -4.67M18.94 -9.44Q19.55 -9.44 20.06 -9.25Q20.58 -9.08 20.95 -8.73Q21.33 -8.41 21.53 -7.92Q21.75 -7.44 21.75 -6.83Q21.75 -6.31 21.59 -5.86Q21.45 -5.42 21.19 -5.02Q20.92 -4.61 20.58 -4.22Q20.23 -3.84 19.84 -3.45L17.44 -1Q17.7 -1.08 17.97 -1.12Q18.25 -1.17 18.5 -1.17L21.5 -1.17Q21.7 -1.17 21.81 -1.05Q21.94 -0.94 21.94 -0.75L21.94 0L15.69 0L15.69 -0.42Q15.69 -0.55 15.73 -0.69Q15.8 -0.83 15.91 -0.94L18.88 -3.92Q19.23 -4.3 19.53 -4.64Q19.84 -4.98 20.05 -5.33Q20.27 -5.67 20.38 -6.03Q20.5 -6.39 20.5 -6.78Q20.5 -7.19 20.38 -7.48Q20.25 -7.78 20.03 -7.98Q19.81 -8.19 19.52 -8.28Q19.22 -8.38 18.88 -8.38Q18.53 -8.38 18.23 -8.27Q17.95 -8.17 17.72 -7.98Q17.5 -7.81 17.34 -7.56Q17.2 -7.33 17.14 -7.05Q17.05 -6.8 16.91 -6.72Q16.77 -6.64 16.52 -6.67L15.88 -6.8Q15.97 -7.44 16.22 -7.92Q16.48 -8.42 16.89 -8.75Q17.3 -9.09 17.81 -9.27Q18.34 -9.44 18.94 -9.44M26.53 -9.44Q27.14 -9.44 27.64 -9.27Q28.14 -9.09 28.5 -8.77Q28.86 -8.45 29.06 -8.02Q29.27 -7.58 29.27 -7.05Q29.27 -6.59 29.16 -6.25Q29.05 -5.91 28.83 -5.64Q28.62 -5.38 28.33 -5.2Q28.03 -5.03 27.67 -4.91Q28.56 -4.66 29.02 -4.09Q29.47 -3.55 29.47 -2.69Q29.47 -2.03 29.22 -1.52Q28.98 -1 28.56 -0.64Q28.14 -0.28 27.56 -0.08Q27 0.11 26.36 0.11Q25.62 0.11 25.09 -0.08Q24.56 -0.27 24.19 -0.58Q23.83 -0.91 23.58 -1.34Q23.34 -1.8 23.19 -2.33L23.72 -2.56Q23.92 -2.66 24.11 -2.61Q24.31 -2.58 24.41 -2.39Q24.5 -2.2 24.62 -1.95Q24.75 -1.7 24.97 -1.47Q25.19 -1.25 25.52 -1.09Q25.84 -0.95 26.34 -0.95Q26.81 -0.95 27.17 -1.11Q27.53 -1.27 27.77 -1.5Q28 -1.75 28.11 -2.05Q28.23 -2.36 28.23 -2.66Q28.23 -3.03 28.14 -3.33Q28.05 -3.64 27.78 -3.86Q27.53 -4.08 27.08 -4.2Q26.62 -4.33 25.89 -4.33L25.89 -5.22Q26.48 -5.23 26.89 -5.34Q27.31 -5.47 27.56 -5.67Q27.83 -5.89 27.94 -6.19Q28.06 -6.48 28.06 -6.83Q28.06 -7.22 27.94 -7.5Q27.83 -7.8 27.61 -7.98Q27.39 -8.19 27.09 -8.28Q26.81 -8.38 26.47 -8.38Q26.12 -8.38 25.83 -8.27Q25.55 -8.17 25.31 -7.98Q25.09 -7.81 24.94 -7.56Q24.78 -7.33 24.72 -7.05Q24.62 -6.8 24.48 -6.72Q24.36 -6.64 24.11 -6.67L23.45 -6.8Q23.55 -7.44 23.81 -7.92Q24.08 -8.42 24.48 -8.75Q24.89 -9.09 25.41 -9.27Q25.92 -9.44 26.53 -9.44M30.98 -4.42L34.22 -4.42L34.22 -3.38L30.98 -3.38L30.98 -4.42M36.64 -0.94L38.62 -0.94L38.62 -7.14Q38.62 -7.42 38.64 -7.73L37.03 -6.36Q36.94 -6.28 36.84 -6.27Q36.77 -6.25 36.69 -6.27Q36.61 -6.28 36.55 -6.31Q36.48 -6.36 36.45 -6.41L36.06 -6.94L38.86 -9.34L39.86 -9.34L39.86 -0.94L41.67 -0.94L41.67 0L36.64 0L36.64 -0.94M44.19 -0.94L46.17 -0.94L46.17 -7.14Q46.17 -7.42 46.19 -7.73L44.58 -6.36Q44.48 -6.28 44.39 -6.27Q44.31 -6.25 44.23 -6.27Q44.16 -6.28 44.09 -6.31Q44.03 -6.36 44 -6.41L43.61 -6.94L46.41 -9.34L47.41 -9.34L47.41 -0.94L49.22 -0.94L49.22 0L44.19 0L44.19 -0.94M50.92 -4.42L54.16 -4.42L54.16 -3.38L50.92 -3.38L50.92 -4.42M58.81 -9.44Q59.42 -9.44 59.94 -9.25Q60.45 -9.08 60.83 -8.73Q61.2 -8.41 61.41 -7.92Q61.62 -7.44 61.62 -6.83Q61.62 -6.31 61.47 -5.86Q61.33 -5.42 61.06 -5.02Q60.8 -4.61 60.45 -4.22Q60.11 -3.84 59.72 -3.45L57.31 -1Q57.58 -1.08 57.84 -1.12Q58.12 -1.17 58.38 -1.17L61.38 -1.17Q61.58 -1.17 61.69 -1.05Q61.81 -0.94 61.81 -0.75L61.81 0L55.56 0L55.56 -0.42Q55.56 -0.55 55.61 -0.69Q55.67 -0.83 55.78 -0.94L58.75 -3.92Q59.11 -4.3 59.41 -4.64Q59.72 -4.98 59.92 -5.33Q60.14 -5.67 60.25 -6.03Q60.38 -6.39 60.38 -6.78Q60.38 -7.19 60.25 -7.48Q60.12 -7.78 59.91 -7.98Q59.69 -8.19 59.39 -8.28Q59.09 -8.38 58.75 -8.38Q58.41 -8.38 58.11 -8.27Q57.83 -8.17 57.59 -7.98Q57.38 -7.81 57.22 -7.56Q57.08 -7.33 57.02 -7.05Q56.92 -6.8 56.78 -6.72Q56.64 -6.64 56.39 -6.67L55.75 -6.8Q55.84 -7.44 56.09 -7.92Q56.36 -8.42 56.77 -8.75Q57.17 -9.09 57.69 -9.27Q58.22 -9.44 58.81 -9.44M69.67 -4.67Q69.67 -3.44 69.41 -2.55Q69.16 -1.66 68.69 -1.06Q68.23 -0.47 67.61 -0.19Q67 0.09 66.28 0.09Q65.56 0.09 64.94 -0.19Q64.33 -0.47 63.86 -1.06Q63.41 -1.66 63.14 -2.55Q62.89 -3.44 62.89 -4.67Q62.89 -5.89 63.14 -6.78Q63.41 -7.69 63.86 -8.27Q64.33 -8.86 64.94 -9.14Q65.56 -9.44 66.28 -9.44Q67 -9.44 67.61 -9.14Q68.23 -8.86 68.69 -8.27Q69.16 -7.69 69.41 -6.78Q69.67 -5.89 69.67 -4.67M68.39 -4.67Q68.39 -5.72 68.22 -6.44Q68.05 -7.16 67.75 -7.58Q67.47 -8.02 67.08 -8.2Q66.69 -8.39 66.28 -8.39Q65.86 -8.39 65.47 -8.2Q65.09 -8.02 64.8 -7.58Q64.52 -7.16 64.34 -6.44Q64.17 -5.72 64.17 -4.67Q64.17 -3.61 64.34 -2.89Q64.52 -2.17 64.8 -1.73Q65.09 -1.31 65.47 -1.12Q65.86 -0.94 66.28 -0.94Q66.69 -0.94 67.08 -1.12Q67.47 -1.31 67.75 -1.73Q68.05 -2.17 68.22 -2.89Q68.39 -3.61 68.39 -4.67"/></g>
<line x1="267" y1="387" x2="267" y2="390" stroke="#333333"/>
<g transform="translate(232 407)" fill="#222222"><path d="M3.84 -9.44Q4.45 -9.44 4.97 -9.25Q5.48 -9.08 5.86 -8.73Q6.23 -8.41 6.44 -7.92Q6.66 -7.44 6.66 -6.83Q6.66 -6.31 6.5 -5.86Q6.36 -5.42 6.09 -5.02Q5.83 -4.61 5.48 -4.22Q5.14 -3.84 4.75 -3.45L2.34 -1Q2.61 -1.08 2.88 -1.12Q3.16 -1.17 3.41 -1.17L6.41 -1.17Q6.61 -1.17 6.72 -1.05Q6.84 -0.94 6.84 -0.75L6.84 0L0.59 0L0.59 -0.42Q0.59 -0.55 0.64 -0.69Q0.7 -0.83 0.81 -0.94L3.78 -3.92Q4.14 -4.3 4.44 -4.64Q4.75 -4.98 4.95 -5.33Q5.17 -5.67 5.28 -6.03Q5.41 -6.39 5.41 -6.78Q5.41 -7.19 5.28 -7.48Q5.16 -7.78 4.94 -7.98Q4.72 -8.19 4.42 -8.28Q4.12 -8.38 3.78 -8.38Q3.44 -8.38 3.14 -8.27Q2.86 -8.17 2.62 -7.98Q2.41 -7.81 2.25 -7.56Q2.11 -7.33 2.05 -7.05Q1.95 -6.8 1.81 -6.72Q1.67 -6.64 1.42 -6.67L0.78 -6.8Q0.88 -7.44 1.12 -7.92Q1.39 -8.42 1.8 -8.75Q2.2 -9.09 2.72 -9.27Q3.25 -9.44 3.84 -9.44M14.7 -4.67Q14.7 -3.44 14.44 -2.55Q14.19 -1.66 13.72 -1.06Q13.27 -0.47 12.64 -0.19Q12.03 0.09 11.31 0.09Q10.59 0.09 9.97 -0.19Q9.36 -0.47 8.89 -1.06Q8.44 -1.66 8.17 -2.55Q7.92 -3.44 7.92 -4.67Q7.92 -5.89 8.17 -6.78Q8.44 -7.69 8.89 -8.27Q9.36 -8.86 9.97 -9.14Q10.59 -9.44 11.31 -9.44Q12.03 -9.44 12.64 -9.14Q13.27 -8.86 13.72 -8.27Q14.19 -7.69 14.44 -6.78Q14.7 -5.89 14.7 -4.67M13.42 -4.67Q13.42 -5.72 13.25 -6.44Q13.08 -7.16 12.78 -7.58Q12.5 -8.02 12.11 -8.2Q11.72 -8.39 11.31 -8.39Q10.89 -8.39 10.5 -8.2Q10.12 -8.02 9.83 -7.58Q9.55 -7.16 9.38 -6.44Q9.2 -5.72 9.2 -4.67Q9.2 -3.61 9.38 -2.89Q9.55 -2.17 9.83 -1.73Q10.12 -1.31 10.5 -1.12Q10.89 -0.94 11.31 -0.94Q11.72 -0.94 12.11 -1.12Q12.5 -1.31 12.78 -1.73Q13.08 -2.17 13.25 -2.89Q13.42 -3.61 13.42 -4.67M18.94 -9.44Q19.55 -9.44 20.06 -9.25Q20.58 -9.08 20.95 -8.73Q21.33 -8.41 21.53 -7.92Q21.75 -7.44 21.75 -6.83Q21.75 -6.31 21.59 -5.86Q21.45 -5.42 21.19 -5.02Q20.92 -4.61 20.58 -4.22Q20.23 -3.84 19.84 -3.45L17.44 -1Q17.7 -1.08 17.97 -1.12Q18.25 -1.17 18.5 -1.17L21.5 -1.17Q21.7 -1.17 21.81 -1.05Q21.94 -0.94 21.94 -0.75L21.94 0L15.69 0L15.69 -0.42Q15.69 -0.55 15.73 -0.69Q15.8 -0.83 15.91 -0.94L18.88 -3.92Q19.23 -4.3 19.53 -4.64Q19.84 -4.98 20.05 -5.33Q20.27 -5.67 20.38 -6.03Q20.5 -6.39 20.5 -6.78Q20.5 -7.19 20.38 -7.48Q20.25 -7.78 20.03 -7.98Q19.81 -8.19 19.52 -8.28Q19.22 -8.38 18.88 -8.38Q18.53 -8.38 18.23 -8.27Q17.95 -8.17 17.72 -7.98Q17.5 -7.81 17.34 -7.56Q17.2 -7.33 17.14 -7.05Q17.05 -6.8 16.91 -6.72Q16.77 -6.64 16.52 -6.67L15.88 -6.8Q15.97 -7.44 16.22 -7.92Q16.48 -8.42 16.89 -8.75Q17.3 -9.09 17.81 -9.27Q18.34 -9.44 18.94 -9.44M26.53 -9.44Q27.14 -9.44 27.64 -9.27Q28.14 -9.09 28.5 -8.77Q28.86 -8.45 29.06 -8.02Q29.27 -7.58 29.27 -7.05Q29.27 -6.59 29.16 -6.25Q29.05 -5.91 28.83 -5.64Q28.62 -5.38 28.33 -5.2Q28.03 -5.03 27.67 -4.91Q28.56 -4.66 29.02 -4.09Q29.47 -3.55 29.47 -2.69Q29.47 -2.03 29.22 -1.52Q28.98 -1 28.56 -0.64Q28.14 -0.28 27.56 -0.08Q27 0.11 26.36 0.11Q25.62 0.11 25.09 -0.08Q24.56 -0.27 24.19 -0.58Q23.83 -0.91 23.58 -1.34Q23.34 -1.8 23.19 -2.33L23.72 -2.56Q23.92 -2.66 24.11 -2.61Q24.31 -2.58 24.41 -2.39Q24.5 -2.2 24.62 -1.95Q24.75 -1.7 24.97 -1.47Q25.19 -1.25 25.52 -1.09Q25.84 -0.95 26.34 -0.95Q26.81 -0.95 27.17 -1.11Q27.53 -1.27 27.77 -1.5Q28 -1.75 28.11 -2.05Q28.23 -2.36 28.23 -2.66Q28.23 -3.03 28.14 -3.33Q28.05 -3.64 27.78 -3.86Q27.53 -4.08 27.08 -4.2Q26.62 -4.33 25.89 -4.33L25.89 -5.22Q26.48 -5.23 26.89 -5.34Q27.31 -5.47 27.56 -5.67Q27.83 -5.89 27.94 -6.19Q28.06 -6.48 28.06 -6.83Q28.06 -7.22 27.94 -7.5Q27.83 -7.8 27.61 -7.98Q27.39 -8.19 27.09 -8.28Q26.81 -8.38 26.47 -8.38Q26.12 -8.38 25.83 -8.27Q25.55 -8.17 25.31 -7.98Q25.09 -7.81 24.94 -7.56Q24.78 -7.33 24.72 -7.05Q24.62 -6.8 24.48 -6.72Q24.36 -6.64 24.11 -6.67L23.45 -6.8Q23.55 -7.44 23.81 -7.92Q24.08 -8.42 24.48 -8.75Q24.89 -9.09 25.41 -9.27Q25.92 -9.44 26.53 -9.44M30.98 -4.42L34.22 -4.42L34.22 -3.38L30.98 -3.38L30.98 -4.42M36.64 -0.94L38.62 -0.94L38.62 -7.14Q38.62 -7.42 38.64 -7.73L37.03 -6.36Q36.94 -6.28 36.84 -6.27Q36.77 -6.25 36.69 -6.27Q36.61 -6.28 36.55 -6.31Q36.48 -6.36 36.45 -6.41L36.06 -6.94L38.86 -9.34L39.86 -9.34L39.86 -0.94L41.67 -0.94L41.67 0L36.64 0L36.64 -0.94M46.42 -9.44Q47.03 -9.44 47.55 -9.25Q48.06 -9.08 48.44 -8.73Q48.81 -8.41 49.02 -7.92Q49.23 -7.44 49.23 -6.83Q49.23 -6.31 49.08 -5.86Q48.94 -5.42 48.67 -5.02Q48.41 -4.61 48.06 -4.22Q47.72 -3.84 47.33 -3.45L44.92 -1Q45.19 -1.08 45.45 -1.12Q45.73 -1.17 45.98 -1.17L48.98 -1.17Q49.19 -1.17 49.3 -1.05Q49.42 -0.94 49.42 -0.75L49.42 0L43.17 0L43.17 -0.42Q43.17 -0.55 43.22 -0.69Q43.28 -0.83 43.39 -0.94L46.36 -3.92Q46.72 -4.3 47.02 -4.64Q47.33 -4.98 47.53 -5.33Q47.75 -5.67 47.86 -6.03Q47.98 -6.39 47.98 -6.78Q47.98 -7.19 47.86 -7.48Q47.73 -7.78 47.52 -7.98Q47.3 -8.19 47 -8.28Q46.7 -8.38 46.36 -8.38Q46.02 -8.38 45.72 -8.27Q45.44 -8.17 45.2 -7.98Q44.98 -7.81 44.83 -7.56Q44.69 -7.33 44.62 -7.05Q44.53 -6.8 44.39 -6.72Q44.25 -6.64 44 -6.67L43.36 -6.8Q43.45 -7.44 43.7 -7.92Q43.97 -8.42 44.38 -8.75Q44.78 -9.09 45.3 -9.27Q45.83 -9.44 46.42 -9.44M50.92 -4.42L54.16 -4.42L54.16 -3.38L50.92 -3.38L50.92 -4.42M62.12 -4.67Q62.12 -3.44 61.86 -2.55Q61.61 -1.66 61.14 -1.06Q60.69 -0.47 60.06 -0.19Q59.45 0.09 58.73 0.09Q58.02 0.09 57.39 -0.19Q56.78 -0.47 56.31 -1.06Q55.86 -1.66 55.59 -2.55Q55.34 -3.44 55.34 -4.67Q55.34 -5.89 55.59 -6.78Q55.86 -7.69 56.31 -8.27Q56.78 -8.86 57.39 -9.14Q58.02 -9.44 58.73 -9.44Q59.45 -9.44 60.06 -9.14Q60.69 -8.86 61.14 -8.27Q61.61 -7.69 61.86 -6.78Q62.12 -5.89 62.12 -4.67M60.84 -4.67Q60.84 -5.72 60.67 -6.44Q60.5 -7.16 60.2 -7.58Q59.92 -8.02 59.53 -8.2Q59.14 -8.39 58.73 -8.39Q58.31 -8.39 57.92 -8.2Q57.55 -8.02 57.25 -7.58Q56.97 -7.16 56.8 -6.44Q56.62 -5.72 56.62 -4.67Q56.62 -3.61 56.8 -2.89Q56.97 -2.17 57.25 -1.73Q57.55 -1.31 57.92 -1.12Q58.31 -0.94 58.73 -0.94Q59.14 -0.94 59.53 -1.12Q59.92 -1.31 60.2 -1.73Q60.5 -2.17 60.67 -2.89Q60.84 -3.61 60.84 -4.67M68.31 -3.39L69.69 -3.39L69.69 -2.67Q69.69 -2.56 69.62 -2.48Q69.56 -2.42 69.42 -2.42L68.31 -2.42L68.31 0L67.23 0L67.23 -2.42L63.14 -2.42Q63 -2.42 62.89 -2.5Q62.8 -2.58 62.78 -2.7L62.66 -3.33L67.17 -9.33L68.31 -9.33L68.31 -3.39M67.23 -7.09Q67.23 -7.28 67.25 -7.48Q67.27 -7.69 67.3 -7.91L63.98 -3.39L67.23 -3.39L67.23 -7.09"/></g>
<line x1="413" y1="387" x2="413" y2="390" stroke="#333333"/>
<g transform="translate(378 407)" fill="#222222"><path d="M3.84 -9.44Q4.45 -9.44 4.97 -9.25Q5.48 -9.08 5.86 -8.73Q6.23 -8.41 6.44 -7.92Q6.66 -7.44 6.66 -6.83Q6.66 -6.31 6.5 -5.86Q6.36 -5.42 6.09 -5.02Q5.83 -4.61 5.48 -4.22Q5.14 -3.84 4.75 -3.45L2.34 -1Q2.61 -1.08 2.88 -1.12Q3.16 -1.17 3.41 -1.17L6.41 -1.17Q6.61 -1.17 6.72 -1.05Q6.84 -0.94 6.84 -0.75L6.84 0L0.59 0L0.59 -0.42Q0.59 -0.55 0.64 -0.69Q0.7 -0.83 0.81 -0.94L3.78 -3.92Q4.14 -4.3 4.44 -4.64Q4.75 -4.98 4.95 -5.33Q5.17 -5.67 5.28 -6.03Q5.41 -6.39 5.41 -6.78Q5.41 -7.19 5.28 -7.48Q5.16 -7.78 4.94 -7.98Q4.72 -8.19 4.42 -8.28Q4.12 -8.38 3.78 -8.38Q3.44 -8.38 3.14 -8.27Q2.86 -8.17 2.62 -7.98Q2.41 -7.81 2.25 -7.56Q2.11 -7.33 2.05 -7.05Q1.95 -6.8 1.81 -6.72Q1.67 -6.64 1.42 -6.67L0.78 -6.8Q0.88 -7.44 1.12 -7.92Q1.39 -8.42 1.8 -8.75Q2.2 -9.09 2.72 -9.27Q3.25 -9.44 3.84 -9.44M14.7 -4.67Q14.7 -3.44 14.44 -2.55Q14.19 -1.66 13.72 -1.06Q13.27 -0.47 12.64 -0.19Q12.03 0.09 11.31 0.09Q10.59 0.09 9.97 -0.19Q9.36 -0.47 8.89 -1.06Q8.44 -1.66 8.17 -2.55Q7.92 -3.44 7.92 -4.67Q7.92 -5.89 8.17 -6.78Q8.44 -7.69 8.89 -8.27Q9.36 -8.86 9.97 -9.14Q10.59 -9.44 11.31 -9.44Q12.03 -9.44 12.64 -9.14Q13.27 -8.86 13.72 -8.27Q14.19 -7.69 14.44 -6.78Q14.7 -5.89 14.7 -4.67M13.42 -4.67Q13.42 -5.72 13.25 -6.44Q13.08 -7.16 12.78 -7.58Q12.5 -8.02 12.11 -8.2Q11.72 -8.39 11.31 -8.39Q10.89 -8.39 10.5 -8.2Q10.12 -8.02 9.83 -7.58Q9.55 -7.16 9.38 -6.44Q9.2 -5.72 9.2 -4.67Q9.2 -3.61 9.38 -2.89Q9.55 -2.17 9.83 -1.73Q10.12 -1.31 10.5 -1.12Q10.89 -0.94 11.31 -0.94Q11.72 -0.94 12.11 -1.12Q12.5 -1.31 12.78 -1.73Q13.08 -2.17 13.25 -2.89Q13.42 -3.61 13.42 -4.67M18.94 -9.44Q19.55 -9.44 20.06 -9.25Q20.58 -9.08 20.95 -8.73Q21.33 -8.41 21.53 -7.92Q21.75 -7.44 21.75 -6.83Q21.75 -6.31 21.59 -5.86Q21.45 -5.42 21.19 -5.02Q20.92 -4.61 20.58 -4.22Q20.23 -3.84 19.84 -3.45L17.44 -1Q17.7 -1.08 17.97 -1.12Q18.25 -1.17 18.5 -1.17L21.5 -1.17Q21.7 -1.17 21.81 -1.05Q21.94 -0.94 21.94 -0.75L21.94 0L15.69 0L15.69 -0.42Q15.69 -0.55 15.73 -0.69Q15.8 -0.83 15.91 -0.94L18.88 -3.92Q19.23 -4.3 19.53 -4.64Q19.84 -4.98 20.05 -5.33Q20.27 -5.67 20.38 -6.03Q20.5 -6.39 20.5 -6.78Q20.5 -7.19 20.38 -7.48Q20.25 -7.78 20.03 -7.98Q19.81 -8.19 19.52 -8.28Q19.22 -8.38 18.88 -8.38Q18.53 -8.38 18.23 -8.27Q17.95 -8.17 17.72 -7.98Q17.5 -7.81 17.34 -7.56Q17.2 -7.33 17.14 -7.05Q17.05 -6.8 16.91 -6.72Q16.77 -6.64 16.52 -6.67L15.88 -6.8Q15.97 -7.44 16.22 -7.92Q16.48 -8.42 16.89 -8.75Q17.3 -9.09 17.81 -9.27Q18.34 -9.44 18.94 -9.44M26.53 -9.44Q27.14 -9.44 27.64 -9.27Q28.14 -9.09 28.5 -8.77Q28.86 -8.45 29.06 -8.02Q29.27 -7.58 29.27 -7.05Q29.27 -6.59 29.16 -6.25Q29.05 -5.91 28.83 -5.64Q28.62 -5.38 28.33 -5.2Q28.03 -5.03 27.67 -4.91Q28.56 -4.66 29.02 -4.09Q29.47 -3.55 29.47 -2.69Q29.47 -2.03 29.22 -1.52Q28.98 -1 28.56 -0.64Q28.14 -0.28 27.56 -0.08Q27 0.11 26.36 0.11Q25.62 0.11 25.09 -0.08Q24.56 -0.27 24.19 -0.58Q23.83 -0.91 23.58 -1.34Q23.34 -1.8 23.19 -2.33L23.72 -2.56Q23.92 -2.66 24.11 -2.61Q24.31 -2.58 24.41 -2.39Q24.5 -2.2 24.62 -1.95Q24.75 -1.7 24.97 -1.47Q25.19 -1.25 25.52 -1.09Q25.84 -0.95 26.34 -0.95Q26.81 -0.95 27.17 -1.11Q27.53 -1.27 27.77 -1.5Q28 -1.75 28.11 -2.05Q28.23 -2.36 28.23 -2.66Q28.23 -3.03 28.14 -3.33Q28.05 -3.64 27.78 -3.86Q27.53 -4.08 27.08 -4.2Q26.62 -4.33 25.89 -4.33L25.89 -5.22Q26.48 -5.23 26.89 -5.34Q27.31 -5.47 27.56 -5.67Q27.83 -5.89 27.94 -6.19Q28.06 -6.48 28.06 -6.83Q28.06 -7.22 27.94 -7.5Q27.83 -7.8 27.61 -7.98Q27.39 -8.19 27.09 -8.28Q26.81 -8.38 26.47 -8.38Q26.12 -8.38 25.83 -8.27Q25.55 -8.17 25.31 -7.98Q25.09 -7.81 24.94 -7.56Q24.78 -7.33 24.72 -7.05Q24.62 -6.8 24.48 -6.72Q24.36 -6.64 24.11 -6.67L23.45 -6.8Q23.55 -7.44 23.81 -7.92Q24.08 -8.42 24.48 -8.75Q24.89 -9.09 25.41 -9.27Q25.92 -9.44 26.53 -9.44M30.98 -4.42L34.22 -4.42L34.22 -3.38L30.98 -3.38L30.98 -4.42M36.64 -0.94L38.62 -0.94L38.62 -7.14Q38.62 -7.42 38.64 -7.73L37.03 -6.36Q36.94 -6.28 36.84 -6.27Q36.77 -6.25 36.69 -6.27Q36.61 -6.28 36.55 -6.31Q36.48 -6.36 36.45 -6.41L36.06 -6.94L38.86 -9.34L39.86 -9.34L39.86 -0.94L41.67 -0.94L41.67 0L36.64 0L36.64 -0.94M46.42 -9.44Q47.03 -9.44 47.55 -9.25Q48.06 -9.08 48.44 -8.73Q48.81 -8.41 49.02 -7.92Q49.23 -7.44 49.23 -6.83Q49.23 -6.31 49.08 -5.86Q48.94 -5.42 48.67 -5.02Q48.41 -4.61 48.06 -4.22Q47.72 -3.84 47.33 -3.45L44.92 -1Q45.19 -1.08 45.45 -1.12Q45.73 -1.17 45.98 -1.17L48.98 -1.17Q49.19 -1.17 49.3 -1.05Q49.42 -0.94 49.42 -0.75L49.42 0L43.17 0L43.17 -0.42Q43.17 -0.55 43.22 -0.69Q43.28 -0.83 43.39 -0.94L46.36 -3.92Q46.72 -4.3 47.02 -4.64Q47.33 -4.98 47.53 -5.33Q47.75 -5.67 47.86 -6.03Q47.98 -6.39 47.98 -6.78Q47.98 -7.19 47.86 -7.48Q47.73 -7.78 47.52 -7.98Q47.3 -8.19 47 -8.28Q46.7 -8.38 46.36 -8.38Q46.02 -8.38 45.72 -8.27Q45.44 -8.17 45.2 -7.98Q44.98 -7.81 44.83 -7.56Q44.69 -7.33 44.62 -7.05Q44.53 -6.8 44.39 -6.72Q44.25 -6.64 44 -6.67L43.36 -6.8Q43.45 -7.44 43.7 -7.92Q43.97 -8.42 44.38 -8.75Q44.78 -9.09 45.3 -9.27Q45.83 -9.44 46.42 -9.44M50.92 -4.42L54.16 -4.42L54.16 -3.38L50.92 -3.38L50.92 -4.42M56.58 -0.94L58.56 -0.94L58.56 -7.14Q58.56 -7.42 58.58 -7.73L56.97 -6.36Q56.88 -6.28 56.78 -6.27Q56.7 -6.25 56.62 -6.27Q56.55 -6.28 56.48 -6.31Q56.42 -6.36 56.39 -6.41L56 -6.94L58.8 -9.34L59.8 -9.34L59.8 -0.94L61.61 -0.94L61.61 0L56.58 0L56.58 -0.94M66.28 0.11Q65.58 0.11 65 -0.08Q64.42 -0.27 64 -0.61Q63.59 -0.97 63.36 -1.45Q63.12 -1.95 63.12 -2.56Q63.12 -3.45 63.58 -4.03Q64.05 -4.61 64.92 -4.86Q64.19 -5.14 63.81 -5.67Q63.44 -6.22 63.44 -6.97Q63.44 -7.5 63.64 -7.94Q63.86 -8.39 64.23 -8.72Q64.61 -9.05 65.12 -9.23Q65.66 -9.44 66.28 -9.44Q66.92 -9.44 67.44 -9.23Q67.97 -9.05 68.34 -8.72Q68.72 -8.39 68.92 -7.94Q69.12 -7.5 69.12 -6.97Q69.12 -6.22 68.75 -5.67Q68.38 -5.14 67.66 -4.86Q68.52 -4.61 68.97 -4.03Q69.44 -3.45 69.44 -2.56Q69.44 -1.95 69.2 -1.45Q68.98 -0.97 68.56 -0.61Q68.16 -0.27 67.56 -0.08Q66.98 0.11 66.28 0.11M66.28 -0.88Q66.73 -0.88 67.08 -1Q67.44 -1.12 67.67 -1.36Q67.92 -1.59 68.05 -1.89Q68.17 -2.2 68.17 -2.59Q68.17 -3.05 68.02 -3.38Q67.88 -3.72 67.61 -3.92Q67.36 -4.14 67 -4.23Q66.66 -4.33 66.28 -4.33Q65.91 -4.33 65.56 -4.23Q65.22 -4.14 64.95 -3.92Q64.7 -3.72 64.55 -3.38Q64.39 -3.05 64.39 -2.59Q64.39 -2.2 64.52 -1.89Q64.64 -1.59 64.89 -1.36Q65.14 -1.12 65.48 -1Q65.84 -0.88 66.28 -0.88M66.28 -5.33Q66.73 -5.33 67.05 -5.45Q67.36 -5.59 67.55 -5.81Q67.73 -6.05 67.83 -6.34Q67.92 -6.64 67.92 -6.95Q67.92 -7.27 67.81 -7.53Q67.72 -7.81 67.52 -8.02Q67.31 -8.23 67 -8.36Q66.69 -8.48 66.28 -8.48Q65.88 -8.48 65.56 -8.36Q65.27 -8.23 65.06 -8.02Q64.86 -7.81 64.75 -7.53Q64.66 -7.27 64.66 -6.95Q64.66 -6.64 64.73 -6.34Q64.83 -6.05 65.02 -5.81Q65.22 -5.59 65.53 -5.45Q65.84 -5.33 66.28 -5.33"/></g>
<line x1="558" y1="387" x2="558" y2="390" stroke="#333333"/>
<g transform="translate(523 407)" fill="#222222"><path d="M3.84 -9.44Q4.45 -9.44 4.97 -9.25Q5.48 -9.08 5.86 -8.73Q6.23 -8.41 6.44 -7.92Q6.66 -7.44 6.66 -6.83Q6.66 -6.31 6.5 -5.86Q6.36 -5.42 6.09 -5.02Q5.83 -4.61 5.48 -4.22Q5.14 -3.84 4.75 -3.45L2.34 -1Q2.61 -1.08 2.88 -1.12Q3.16 -1.17 3.41 -1.17L6.41 -1.17Q6.61 -1.17 6.72 -1.05Q6.84 -0.94 6.84 -0.75L6.84 0L0.59 0L0.59 -0.42Q0.59 -0.55 0.64 -0.69Q0.7 -0.83 0.81 -0.94L3.78 -3.92Q4.14 -4.3 4.44 -4.64Q4.75 -4.98 4.95 -5.33Q5.17 -5.67 5.28 -6.03Q5.41 -6.39 5.41 -6.78Q5.41 -7.19 5.28 -7.48Q5.16 -7.78 4.94 -7.98Q4.72 -8.19 4.42 -8.28Q4.12 -8.38 3.78 -8.38Q3.44 -8.38 3.14 -8.27Q2.86 -8.17 2.62 -7.98Q2.41 -7.81 2.25 -7.56Q2.11 -7.33 2.05 -7.05Q1.95 -6.8 1.81 -6.72Q1.67 -6.64 1.42 -6.67L0.78 -6.8Q0.88 -7.44 1.12 -7.92Q1.39 -8.42 1.8 -8.75Q2.2 -9.09 2.72 -9.27Q3.25 -9.44 3.84 -9.44M14.7 -4.67Q14.7 -3.44 14.44 -2.55Q14.19 -1.66 13.72 -1.06Q13.27 -0.47 12.64 -0.19Q12.03 0.09 11.31 0.09Q10.59 0.09 9.97 -0.19Q9.36 -0.47 8.89 -1.06Q8.44 -1.66 8.17 -2.55Q7.92 -3.44 7.92 -4.67Q7.92 -5.89 8.17 -6.78Q8.44 -7.69 8.89 -8.27Q9.36 -8.86 9.97 -9.14Q10.59 -9.44 11.31 -9.44Q12.03 -9.44 12.64 -9.14Q13.27 -8.86 13.72 -8.27Q14.19 -7.69 14.44 -6.78Q14.7 -5.89 14.7 -4.67M13.42 -4.67Q13.42 -5.72 13.25 -6.44Q13.08 -7.16 12.78 -7.58Q12.5 -8.02 12.11 -8.2Q11.72 -8.39 11.31 -8.39Q10.89 -8.39 10.5 -8.2Q10.12 -8.02 9.83 -7.58Q9.55 -7.16 9.38 -6.44Q9.2 -5.72 9.2 -4.67Q9.2 -3.61 9.38 -2.89Q9.55 -2.17 9.83 -1.73Q10.12 -1.31 10.5 -1.12Q10.89 -0.94 11.31 -0.94Q11.72 -0.94 12.11 -1.12Q12.5 -1.31 12.78 -1.73Q13.08 -2.17 13.25 -2.89Q13.42 -3.61 13.42 -4.67M18.94 -9.44Q19.55 -9.44 20.06 -9.25Q20.58 -9.08 20.95 -8.73Q21.33 -8.41 21.53 -7.92Q21.75 -7.44 21.75 -6.83Q21.75 -6.31 21.59 -5.86Q21.45 -5.42 21.19 -5.02Q20.92 -4.61 20.58 -4.22Q20.23 -3.84 19.84 -3.45L17.44 -1Q17.7 -1.08 17.97 -1.12Q18.25 -1.17 18.5 -1.17L21.5 -1.17Q21.7 -1.17 21.81 -1.05Q21.94 -0.94 21.94 -0.75L21.94 0L15.69 0L15.69 -0.42Q15.69 -0.55 15.73 -0.69Q15.8 -0.83 15.91 -0.94L18.88 -3.92Q19.23 -4.3 19.53 -4.64Q19.84 -4.98 20.05 -5.33Q20.27 -5.67 20.38 -6.03Q20.5 -6.39 20.5 -6.78Q20.5 -7.19 20.38 -7.48Q20.25 -7.78 20.03 -7.98Q19.81 -8.19 19.52 -8.28Q19.22 -8.38 18.88 -8.38Q18.53 -8.38 18.23 -8.27Q17.95 -8.17 17.72 -7.98Q17.5 -7.81 17.34 -7.56Q17.2 -7.33 17.14 -7.05Q17.05 -6.8 16.91 -6.72Q16.77 -6.64 16.52 -6.67L15.88 -6.8Q15.97 -7.44 16.22 -7.92Q16.48 -8.42 16.89 -8.75Q17.3 -9.09 17.81 -9.27Q18.34 -9.44 18.94 -9.44M28.44 -3.39L29.81 -3.39L29.81 -2.67Q29.81 -2.56 29.75 -2.48Q29.69 -2.42 29.55 -2.42L28.44 -2.42L28.44 0L27.36 0L27.36 -2.42L23.27 -2.42Q23.12 -2.42 23.02 -2.5Q22.92 -2.58 22.91 -2.7L22.78 -3.33L27.3 -9.33L28.44 -9.33L28.44 -3.39M27.36 -7.09Q27.36 -7.28 27.38 -7.48Q27.39 -7.69 27.42 -7.91L24.11 -3.39L27.36 -3.39L27.36 -7.09M30.98 -4.42L34.22 -4.42L34.22 -3.38L30.98 -3.38L30.98 -4.42M42.19 -4.67Q42.19 -3.44 41.92 -2.55Q41.67 -1.66 41.2 -1.06Q40.75 -0.47 40.12 -0.19Q39.52 0.09 38.8 0.09Q38.08 0.09 37.45 -0.19Q36.84 -0.47 36.38 -1.06Q35.92 -1.66 35.66 -2.55Q35.41 -3.44 35.41 -4.67Q35.41 -5.89 35.66 -6.78Q35.92 -7.69 36.38 -8.27Q36.84 -8.86 37.45 -9.14Q38.08 -9.44 38.8 -9.44Q39.52 -9.44 40.12 -9.14Q40.75 -8.86 41.2 -8.27Q41.67 -7.69 41.92 -6.78Q42.19 -5.89 42.19 -4.67M40.91 -4.67Q40.91 -5.72 40.73 -6.44Q40.56 -7.16 40.27 -7.58Q39.98 -8.02 39.59 -8.2Q39.2 -8.39 38.8 -8.39Q38.38 -8.39 37.98 -8.2Q37.61 -8.02 37.31 -7.58Q37.03 -7.16 36.86 -6.44Q36.69 -5.72 36.69 -4.67Q36.69 -3.61 36.86 -2.89Q37.03 -2.17 37.31 -1.73Q37.61 -1.31 37.98 -1.12Q38.38 -0.94 38.8 -0.94Q39.2 -0.94 39.59 -1.12Q39.98 -1.31 40.27 -1.73Q40.56 -2.17 40.73 -2.89Q40.91 -3.61 40.91 -4.67M44.19 -0.94L46.17 -0.94L46.17 -7.14Q46.17 -7.42 46.19 -7.73L44.58 -6.36Q44.48 -6.28 44.39 -6.27Q44.31 -6.25 44.23 -6.27Q44.16 -6.28 44.09 -6.31Q44.03 -6.36 44 -6.41L43.61 -6.94L46.41 -9.34L47.41 -9.34L47.41 -0.94L49.22 -0.94L49.22 0L44.19 0L44.19 -0.94M50.92 -4.42L54.16 -4.42L54.16 -3.38L50.92 -3.38L50.92 -4.42M62.12 -4.67Q62.12 -3.44 61.86 -2.55Q61.61 -1.66 61.14 -1.06Q60.69 -0.47 60.06 -0.19Q59.45 0.09 58.73 0.09Q58.02 0.09 57.39 -0.19Q56.78 -0.47 56.31 -1.06Q55.86 -1.66 55.59 -2.55Q55.34 -3.44 55.34 -4.67Q55.34 -5.89 55.59 -6.78Q55.86 -7.69 56.31 -8.27Q56.78 -8.86 57.39 -9.14Q58.02 -9.44 58.73 -9.44Q59.45 -9.44 60.06 -9.14Q60.69 -8.86 61.14 -8.27Q61.61 -7.69 61.86 -6.78Q62.12 -5.89 62.12 -4.67M60.84 -4.67Q60.84 -5.72 60.67 -6.44Q60.5 -7.16 60.2 -7.58Q59.92 -8.02 59.53 -8.2Q59.14 -8.39 58.73 -8.39Q58.31 -8.39 57.92 -8.2Q57.55 -8.02 57.25 -7.58Q56.97 -7.16 56.8 -6.44Q56.62 -5.72 56.62 -4.67Q56.62 -3.61 56.8 -2.89Q56.97 -2.17 57.25 -1.73Q57.55 -1.31 57.92 -1.12Q58.31 -0.94 58.73 -0.94Q59.14 -0.94 59.53 -1.12Q59.92 -1.31 60.2 -1.73Q60.5 -2.17 60.67 -2.89Q60.84 -3.61 60.84 -4.67M64.12 -0.94L66.11 -0.94L66.11 -7.14Q66.11 -7.42 66.12 -7.73L64.52 -6.36Q64.42 -6.28 64.33 -6.27Q64.25 -6.25 64.17 -6.27Q64.09 -6.28 64.03 -6.31Q63.97 -6.36 63.94 -6.41L63.55 -6.94L66.34 -9.34L67.34 -9.34L67.34 -0.94L69.16 -0.94L69.16 0L64.12 0L64.12 -0.94"/></g>
<line x1="69" y1="218" x2="69" y2="243" stroke="#2CA02C"/>
<rect x="66" y="223" width="7" height="14" fill="#2CA02C"/>
<line x1="80" y1="218" x2="80" y2="249" stroke="#D62728"/>
<rect x="77" y="223" width="7" height="22" fill="#D62728"/>
<line x1="90" y1="231" x2="90" y2="255" stroke="#D62728"/>
<rect x="87" y="244" width="7" height="9" fill="#D62728"/>
<line x1="100" y1="251" x2="100" y2="291" stroke="#D62728"/>
<rect x="97" y="252" width="7" height="35" fill="#D62728"/>
<line x1="111" y1="268" x2="111" y2="286" stroke="#2CA02C"/>
<rect x="108" y="280" width="7" height="7" fill="#2CA02C"/>
<line x1="121" y1="278" x2="121" y2="294" stroke="#D62728"/>
<rect x="118" y="280" width="7" height="10" fill="#D62728"/>
<line x1="131" y1="285" x2="131" y2="321" stroke="#D62728"/>
<rect x="128" y="289" width="7" height="30" fill="#D62728"/>
<line x1="142" y1="291" x2="142" y2="324" stroke="#2CA02C"/>
<rect x="139" y="297" width="7" height="22" fill="#2CA02C"/>
<line x1="152" y1="266" x2="152" y2="308" stroke="#2CA02C"/>
<rect x="149" y="274" width="7" height="24" fill="#2CA02C"/>
<line x1="163" y1="269" x2="163" y2="289" stroke="#D62728"/>
<rect x="160" y="274" width="7" height="11" fill="#D62728"/>
<line x1="173" y1="270" x2="173" y2="295" stroke="#D62728"/>
<rect x="170" y="284" width="7" height="2" fill="#D62728"/>
<line x1="183" y1="272" x2="183" y2="302" stroke="#D62728"/>
<rect x="180" y="285" width="7" height="16" fill="#D62728"/>
<line x1="194" y1="298" x2="194" y2="321" stroke="#D62728"/>
<rect x="191" y="300" width="7" height="12" fill="#D62728"/>
<line x1="204" y1="298" x2="204" y2="346" stroke="#D62728"/>
<rect x="201" y="311" width="7" height="32" fill="#D62728"/>
<line x1="215" y1="324" x2="215" y2="346" stroke="#2CA02C"/>
<rect x="212" y="332" width="7" height="11" fill="#2CA02C"/>
<line x1="225" y1="292" x2="225" y2="339" stroke="#2CA02C"/>
<rect x="222" y="304" width="7" height="29" fill="#2CA02C"/>
<line x1="235" y1="296" x2="235" y2="327" stroke="#D62728"/>
<rect x="232" y="304" width="7" height="22" fill="#D62728"/>
<line x1="246" y1="313" x2="246" y2="331" stroke="#D62728"/>
<rect x="243" y="325" width="7" height="6" fill="#D62728"/>
<line x1="256" y1="315" x2="256" y2="353" stroke="#D62728"/>
<rect x="253" y="330" width="7" height="15" fill="#D62728"/>
<line x1="266" y1="337" x2="266" y2="366" stroke="#D62728"/>
<rect x="263" y="344" width="7" height="13" fill="#D62728"/>
<line x1="277" y1="325" x2="277" y2="358" stroke="#2CA02C"/>
<rect x="274" y="329" width="7" height="28" fill="#2CA02C"/>
<line x1="287" y1="328" x2="287" y2="356" stroke="#D62728"/>
<rect x="284" y="329" width="7" height="18" fill="#D62728"/>
<line x1="298" y1="320" x2="298" y2="348" stroke="#2CA02C"/>
<rect x="295" y="333" width="7" height="14" fill="#2CA02C"/>
<line x1="308" y1="329" x2="308" y2="347" stroke="#2CA02C"/>
<rect x="305" y="332" width="7" height="2" fill="#2CA02C"/>
<line x1="318" y1="300" x2="318" y2="342" stroke="#2CA02C"/>
<rect x="315" y="312" width="7" height="21" fill="#2CA02C"/>
<line x1="329" y1="299" x2="329" y2="332" stroke="#D62728"/>
<rect x="326" y="312" width="7" height="8" fill="#D62728"/>
<line x1="339" y1="282" x2="339" y2="331" stroke="#2CA02C"/>
<rect x="336" y="296" width="7" height="24" fill="#2CA02C"/>
<line x1="350" y1="290" x2="350" y2="305" stroke="#D62728"/>
<rect x="347" y="296" width="7" height="5" fill="#D62728"/>
<line x1="360" y1="263" x2="360" y2="313" stroke="#2CA02C"/>
<rect x="357" y="269" width="7" height="32" fill="#2CA02C"/>
<line x1="370" y1="230" x2="370" y2="280" stroke="#2CA02C"/>
<rect x="367" y="243" width="7" height="27" fill="#2CA02C"/>
<line x1="381" y1="234" x2="381" y2="249" stroke="#2CA02C"/>
<rect x="378" y="235" width="7" height="9" fill="#2CA02C"/>
<line x1="391" y1="221" x2="391" y2="242" stroke="#2CA02C"/>
<rect x="388" y="233" width="7" height="3" fill="#2CA02C"/>
<line x1="401" y1="230" x2="401" y2="245" stroke="#D62728"/>
<rect x="398" y="233" width="7" height="5" fill="#D62728"/>
<line x1="412" y1="215" x2="412" y2="238" stroke="#2CA02C"/>
<rect x="409" y="218" width="7" height="20" fill="#2CA02C"/>
<line x1="422" y1="205" x2="422" y2="223" stroke="#2CA02C"/>
<rect x="419" y="207" width="7" height="12" fill="#2CA02C"/>
<line x1="433" y1="192" x2="433" y2="211" stroke="#2CA02C"/>
<rect x="430" y="203" width="7" height="5" fill="#2CA02C"/>
<line x1="443" y1="156" x2="443" y2="215" stroke="#2CA02C"/>
<rect x="440" y="169" width="7" height="35" fill="#2CA02C"/>
<line x1="453" y1="146" x2="453" y2="182" stroke="#2CA02C"/>
<rect x="450" y="158" width="7" height="12" fill="#2CA02C"/>
<line x1="464" y1="142" x2="464" y2="171" stroke="#2CA02C"/>
<rect x="461" y="146" width="7" height="13" fill="#2CA02C"/>
<line x1="474" y1="136" x2="474" y2="164" stroke="#D62728"/>
<rect x="471" y="146" width="7" height="10" fill="#D62728"/>
<line x1="485" y1="145" x2="485" y2="202" stroke="#D62728"/>
<rect x="482" y="155" width="7" height="34" fill="#D62728"/>
<line x1="495" y1="157" x2="495" y2="189" stroke="#2CA02C"/>
<rect x="492" y="165" width="7" height="24" fill="#2CA02C"/>
<line x1="505" y1="159" x2="505" y2="179" stroke="#D62728"/>
<rect x="502" y="165" width="7" height="13" fill="#D62728"/>
<line x1="516" y1="160" x2="516" y2="180" stroke="#2CA02C"/>
<rect x="513" y="167" width="7" height="11" fill="#2CA02C"/>
<line x1="526" y1="130" x2="526" y2="176" stroke="#2CA02C"/>
<rect x="523" y="137" width="7" height="31" fill="#2CA02C"/>
<line x1="536" y1="115" x2="536" y2="148" stroke="#2CA02C"/>
<rect x="533" y="123" width="7" height="15" fill="#2CA02C"/>
<line x1="547" y1="114" x2="547" y2="129" stroke="#2CA02C"/>
<rect x="544" y="121" width="7" height="3" fill="#2CA02C"/>
<line x1="557" y1="114" x2="557" y2="144" stroke="#D62728"/>
<rect x="554" y="121" width="7" height="21" fill="#D62728"/>
<line x1="568" y1="103" x2="568" y2="144" stroke="#2CA02C"/>
<rect x="565" y="110" width="7" height="32" fill="#2CA02C"/>
<line x1="578" y1="97" x2="578" y2="135" stroke="#D62728"/>
<rect x="575" y="110" width="7" height="15" fill="#D62728"/>
<line x1="588" y1="119" x2="588" y2="136" stroke="#D62728"/>
<rect x="585" y="124" width="7" height="8" fill="#D62728"/>
<line x1="599" y1="91" x2="599" y2="136" stroke="#2CA02C"/>
<rect x="596" y="100" width="7" height="32" fill="#2CA02C"/>
<line x1="609" y1="94" x2="609" y2="136" stroke="#D62728"/>
<rect x="606" y="100" width="7" height="25" fill="#D62728"/>
<line x1="620" y1="87" x2="620" y2="139" stroke="#2CA02C"/>
<rect x="617" y="93" width="7" height="32" fill="#2CA02C"/>
<line x1="630" y1="72" x2="630" y2="98" stroke="#2CA02C"/>
<rect x="627" y="84" width="7" height="10" fill="#2CA02C"/>
<line x1="640" y1="47" x2="640" y2="93" stroke="#2CA02C"/>
<rect x="637" y="49" width="7" height="36" fill="#2CA02C"/>
<line x1="651" y1="40" x2="651" y2="80" stroke="#D62728"/>
<rect x="648" y="49" width="7" height="25" fill="#D62728"/>
<line x1="661" y1="71" x2="661" y2="101" stroke="#D62728"/>
<rect x="658" y="73" width="7" height="27" fill="#D62728"/>
<line x1="671" y1="91" x2="671" y2="113" stroke="#D62728"/>
<rect x="668" y="99" width="7" height="4" fill="#D62728"/>
<line x1="682" y1="72" x2="682" y2="117" stroke="#2CA02C"/>
<rect x="679" y="85" width="7" height="18" fill="#2CA02C"/>
<line x1="266" y1="299" x2="277" y2="304" stroke="#1F77B4" stroke-width="2"/>
<line x1="277" y1="304" x2="287" y2="309" stroke="#1F77B4" stroke-width="2"/>
<line x1="287" y1="309" x2="298" y2="313" stroke="#1F77B4" stroke-width="2"/>
<line x1="298" y1="313" x2="308" y2="316" stroke="#1F77B4" stroke-width="2"/>
<line x1="308" y1="316" x2="318" y2="317" stroke="#1F77B4" stroke-width="2"/>
<line x1="318" y1="317" x2="329" y2="319" stroke="#1F77B4" stroke-width="2"/>
<line x1="329" y1="319" x2="339" y2="318" stroke="#1F77B4" stroke-width="2"/>
<line x1="339" y1="318" x2="350" y2="318" stroke="#1F77B4" stroke-width="2"/>
<line x1="350" y1="318" x2="360" y2="318" stroke="#1F77B4" stroke-width="2"/>
<line x1="360" y1="318" x2="370" y2="316" stroke="#1F77B4" stroke-width="2"/>
<line x1="370" y1="316" x2="381" y2="313" stroke="#1F77B4" stroke-width="2"/>
<line x1="381" y1="313" x2="391" y2="310" stroke="#1F77B4" stroke-width="2"/>
<line x1="391" y1="310" x2="401" y2="306" stroke="#1F77B4" stroke-width="2"/>
<line x1="401" y1="306" x2="412" y2="300" stroke="#1F77B4" stroke-width="2"/>
<line x1="412" y1="300" x2="422" y2="294" stroke="#1F77B4" stroke-width="2"/>
<line x1="422" y1="294" x2="433" y2="288" stroke="#1F77B4" stroke-width="2"/>
<line x1="433" y1="288" x2="443" y2="281" stroke="#1F77B4" stroke-width="2"/>
<line x1="443" y1="281" x2="453" y2="272" stroke="#1F77B4" stroke-width="2"/>
<line x1="453" y1="272" x2="464" y2="262" stroke="#1F77B4" stroke-width="2"/>
<line x1="464" y1="262" x2="474" y2="252" stroke="#1F77B4" stroke-width="2"/>
<line x1="474" y1="252" x2="485" y2="245" stroke="#1F77B4" stroke-width="2"/>
<line x1="485" y1="245" x2="495" y2="236" stroke="#1F77B4" stroke-width="2"/>
<line x1="495" y1="236" x2="505" y2="228" stroke="#1F77B4" stroke-width="2"/>
<line x1="505" y1="228" x2="516" y2="220" stroke="#1F77B4" stroke-width="2"/>
<line x1="516" y1="220" x2="526" y2="211" stroke="#1F77B4" stroke-width="2"/>
<line x1="526" y1="211" x2="536" y2="201" stroke="#1F77B4" stroke-width="2"/>
<line x1="536" y1="201" x2="547" y2="193" stroke="#1F77B4" stroke-width="2"/>
<line x1="547" y1="193" x2="557" y2="185" stroke="#1F77B4" stroke-width="2"/>
<line x1="557" y1="185" x2="568" y2="177" stroke="#1F77B4" stroke-width="2"/>
<line x1="568" y1="177" x2="578" y2="171" stroke="#1F77B4" stroke-width="2"/>
<line x1="578" y1="171" x2="588" y2="166" stroke="#1F77B4" stroke-width="2"/>
<line x1="588" y1="166" x2="599" y2="159" stroke="#1F77B4" stroke-width="2"/>
<line x1="599" y1="159" x2="609" y2="153" stroke="#1F77B4" stroke-width="2"/>
<line x1="609" y1="153" x2="620" y2="147" stroke="#1F77B4" stroke-width="2"/>
<line x1="620" y1="147" x2="630" y2="141" stroke="#1F77B4" stroke-width="2"/>
<line x1="630" y1="141" x2="640" y2="133" stroke="#1F77B4" stroke-width="2"/>
<line x1="640" y1="133" x2="651" y2="128" stroke="#1F77B4" stroke-width="2"/>
<line x1="651" y1="128" x2="661" y2="125" stroke="#1F77B4" stroke-width="2"/>
<line x1="661" y1="125" x2="671" y2="123" stroke="#1F77B4" stroke-width="2"/>
<line x1="671" y1="123" x2="682" y2="120" stroke="#1F77B4" stroke-width="2"/>
<rect x="598" y="43" width="84" height="26" fill="#FFFFFF"/>
<rect x="598" y="43" width="84" height="26" fill="none" stroke="#666666"/>
<rect x="604" y="50" width="14" height="10" fill="#1F77B4"/>
<rect x="604" y="50" width="14" height="10" fill="none" stroke="#666666"/>
<g transform="translate(624 60)" fill="#222222"><path d="M5.97 -7.83Q5.91 -7.72 5.83 -7.67Q5.77 -7.62 5.66 -7.62Q5.55 -7.62 5.39 -7.73Q5.25 -7.84 5.02 -7.97Q4.8 -8.11 4.48 -8.2Q4.17 -8.31 3.73 -8.31Q3.33 -8.31 3 -8.2Q2.69 -8.11 2.47 -7.92Q2.27 -7.73 2.16 -7.47Q2.05 -7.22 2.05 -6.92Q2.05 -6.53 2.23 -6.28Q2.44 -6.03 2.75 -5.86Q3.06 -5.69 3.45 -5.55Q3.86 -5.42 4.27 -5.28Q4.69 -5.14 5.09 -4.95Q5.5 -4.78 5.8 -4.5Q6.11 -4.22 6.3 -3.81Q6.5 -3.42 6.5 -2.84Q6.5 -2.23 6.28 -1.69Q6.08 -1.16 5.67 -0.75Q5.27 -0.36 4.67 -0.12Q4.09 0.11 3.36 0.11Q2.91 0.11 2.48 0.02Q2.06 -0.08 1.69 -0.23Q1.31 -0.39 0.98 -0.61Q0.66 -0.84 0.41 -1.12L0.8 -1.75Q0.84 -1.83 0.92 -1.88Q1 -1.94 1.11 -1.94Q1.23 -1.94 1.41 -1.78Q1.59 -1.64 1.86 -1.47Q2.12 -1.3 2.48 -1.16Q2.86 -1.02 3.39 -1.02Q3.83 -1.02 4.17 -1.12Q4.52 -1.25 4.75 -1.45Q4.98 -1.67 5.11 -1.97Q5.23 -2.28 5.23 -2.66Q5.23 -3.08 5.05 -3.33Q4.86 -3.59 4.55 -3.77Q4.23 -3.95 3.83 -4.08Q3.44 -4.2 3.02 -4.33Q2.59 -4.47 2.2 -4.64Q1.81 -4.81 1.5 -5.09Q1.19 -5.38 0.98 -5.8Q0.8 -6.23 0.8 -6.84Q0.8 -7.34 0.98 -7.81Q1.19 -8.28 1.56 -8.64Q1.94 -9 2.47 -9.22Q3.02 -9.44 3.72 -9.44Q4.5 -9.44 5.16 -9.19Q5.81 -8.94 6.3 -8.47L5.97 -7.83M12.83 -3.45Q13 -3.14 13.14 -2.75Q13.22 -2.94 13.28 -3.11Q13.36 -3.3 13.45 -3.47L16.55 -9.09Q16.62 -9.27 16.72 -9.3Q16.83 -9.33 17 -9.33L18 -9.33L18 0L16.83 0L16.83 -6.7Q16.83 -6.84 16.83 -7Q16.84 -7.17 16.84 -7.34L13.72 -1.61Q13.64 -1.47 13.52 -1.39Q13.39 -1.31 13.23 -1.31L13.05 -1.31Q12.72 -1.31 12.56 -1.61L9.36 -7.38Q9.38 -7.2 9.39 -7.03Q9.41 -6.86 9.41 -6.7L9.41 0L8.22 0L8.22 -9.33L9.22 -9.33Q9.39 -9.33 9.48 -9.3Q9.59 -9.27 9.69 -9.09L12.83 -3.45L12.83 -3.45M28 0L26.95 0Q26.78 0 26.67 -0.08Q26.56 -0.17 26.5 -0.31L25.66 -2.52L21.52 -2.52L20.69 -0.31Q20.64 -0.19 20.52 -0.09Q20.41 0 20.23 0L19.19 0L22.91 -9.33L24.27 -9.33L28 0M21.89 -3.47L25.28 -3.47L23.88 -7.14Q23.81 -7.31 23.73 -7.55Q23.66 -7.78 23.58 -8.05Q23.52 -7.78 23.44 -7.55Q23.38 -7.31 23.3 -7.14L21.89 -3.47M29.66 -4.08Q29.66 -2.7 30 -1.39Q30.36 -0.08 31.03 1.09Q31.08 1.2 31.08 1.28Q31.09 1.36 31.08 1.41Q31.06 1.47 31.02 1.52Q30.97 1.56 30.92 1.59L30.38 1.94Q29.88 1.19 29.53 0.44Q29.2 -0.3 28.98 -1.03Q28.78 -1.78 28.67 -2.53Q28.58 -3.28 28.58 -4.08Q28.58 -4.88 28.67 -5.62Q28.78 -6.39 28.98 -7.12Q29.2 -7.88 29.53 -8.61Q29.88 -9.36 30.38 -10.09L30.92 -9.77Q30.97 -9.73 31.02 -9.69Q31.06 -9.64 31.08 -9.58Q31.09 -9.53 31.08 -9.44Q31.08 -9.36 31.03 -9.27Q30.36 -8.09 30 -6.78Q29.66 -5.47 29.66 -4.08M35.34 -9.44Q35.95 -9.44 36.47 -9.25Q36.98 -9.08 37.36 -8.73Q37.73 -8.41 37.94 -7.92Q38.16 -7.44 38.16 -6.83Q38.16 -6.31 38 -5.86Q37.86 -5.42 37.59 -5.02Q37.33 -4.61 36.98 -4.22Q36.64 -3.84 36.25 -3.45L33.84 -1Q34.11 -1.08 34.38 -1.12Q34.66 -1.17 34.91 -1.17L37.91 -1.17Q38.11 -1.17 38.22 -1.05Q38.34 -0.94 38.34 -0.75L38.34 0L32.09 0L32.09 -0.42Q32.09 -0.55 32.14 -0.69Q32.2 -0.83 32.31 -0.94L35.28 -3.92Q35.64 -4.3 35.94 -4.64Q36.25 -4.98 36.45 -5.33Q36.67 -5.67 36.78 -6.03Q36.91 -6.39 36.91 -6.78Q36.91 -7.19 36.78 -7.48Q36.66 -7.78 36.44 -7.98Q36.22 -8.19 35.92 -8.28Q35.62 -8.38 35.28 -8.38Q34.94 -8.38 34.64 -8.27Q34.36 -8.17 34.12 -7.98Q33.91 -7.81 33.75 -7.56Q33.61 -7.33 33.55 -7.05Q33.45 -6.8 33.31 -6.72Q33.17 -6.64 32.92 -6.67L32.28 -6.8Q32.38 -7.44 32.62 -7.92Q32.89 -8.42 33.3 -8.75Q33.7 -9.09 34.22 -9.27Q34.75 -9.44 35.34 -9.44M46.2 -4.67Q46.2 -3.44 45.94 -2.55Q45.69 -1.66 45.22 -1.06Q44.77 -0.47 44.14 -0.19Q43.53 0.09 42.81 0.09Q42.09 0.09 41.47 -0.19Q40.86 -0.47 40.39 -1.06Q39.94 -1.66 39.67 -2.55Q39.42 -3.44 39.42 -4.67Q39.42 -5.89 39.67 -6.78Q39.94 -7.69 40.39 -8.27Q40.86 -8.86 41.47 -9.14Q42.09 -9.44 42.81 -9.44Q43.53 -9.44 44.14 -9.14Q44.77 -8.86 45.22 -8.27Q45.69 -7.69 45.94 -6.78Q46.2 -5.89 46.2 -4.67M44.92 -4.67Q44.92 -5.72 44.75 -6.44Q44.58 -7.16 44.28 -7.58Q44 -8.02 43.61 -8.2Q43.22 -8.39 42.81 -8.39Q42.39 -8.39 42 -8.2Q41.62 -8.02 41.33 -7.58Q41.05 -7.16 40.88 -6.44Q40.7 -5.72 40.7 -4.67Q40.7 -3.61 40.88 -2.89Q41.05 -2.17 41.33 -1.73Q41.62 -1.31 42 -1.12Q42.39 -0.94 42.81 -0.94Q43.22 -0.94 43.61 -1.12Q44 -1.31 44.28 -1.73Q44.58 -2.17 44.75 -2.89Q44.92 -3.61 44.92 -4.67M48.44 -4.08Q48.44 -5.47 48.09 -6.78Q47.75 -8.09 47.08 -9.27Q46.97 -9.47 47.02 -9.58Q47.06 -9.7 47.17 -9.77L47.72 -10.09Q48.22 -9.36 48.55 -8.61Q48.89 -7.88 49.09 -7.12Q49.31 -6.39 49.41 -5.62Q49.52 -4.88 49.52 -4.08Q49.52 -3.28 49.41 -2.53Q49.31 -1.78 49.09 -1.03Q48.89 -0.3 48.55 0.44Q48.22 1.19 47.72 1.94L47.17 1.59Q47.06 1.53 47.02 1.41Q46.97 1.3 47.08 1.09Q47.75 -0.08 48.09 -1.39Q48.44 -2.7 48.44 -4.08"/></g>
</g>
<text x="360" y="210" font-family="sans-serif" font-size="84" font-weight="bold" fill="#C81E1E" fill-opacity="0.18" text-anchor="middle" dominant-baseline="middle" transform="rotate(-20 360 210)">DRAFT</text><text x="8" y="412" font-family="sans-serif" font-size="11" fill="#646464">Generated 2026-05-15 (confidential)</text><circle cx="660" cy="200" r="12" fill="none" stroke="#FFDC00" stroke-width="2"/><circle cx="660" cy="200" r="13" fill="none" stroke="#FFDC00" stroke-width="1"/></svg>