<?xml version="1.0" encoding="UTF-8"?>
<svg xmlns="http://www.w3.org/2000/svg" width="800" height="320" viewBox="0 0 800 320"><rect width="100%" height="100%" fill="#F5F5F5"/><g class="fastchart"><rect x="60" y="30" width="321" height="251" fill="#FFFFFF"/>
<line x1="60" y1="30" x2="380" y2="30" stroke="#666666"/>
<line x1="60" y1="280" x2="380" y2="280" stroke="#666666"/>
<line x1="60" y1="30" x2="60" y2="280" stroke="#666666"/>
<line x1="380" y1="30" x2="380" y2="280" stroke="#666666"/>
<g transform="translate(179.4 20)" fill="#222222"><path d="M3.66 -1.66L9.48 -1.66L9.48 0L1.7 0L1.7 -13.62L3.66 -13.62L3.66 -1.66M15.08 -9.8Q15.95 -9.8 16.69 -9.5Q17.42 -9.22 17.97 -8.66Q18.52 -8.11 18.81 -7.3Q19.12 -6.5 19.12 -5.47Q19.12 -5.05 19.03 -4.91Q18.94 -4.77 18.69 -4.77L12.33 -4.77Q12.36 -3.89 12.58 -3.23Q12.8 -2.58 13.19 -2.14Q13.58 -1.7 14.11 -1.48Q14.66 -1.28 15.31 -1.28Q15.95 -1.28 16.39 -1.42Q16.84 -1.56 17.17 -1.73Q17.5 -1.91 17.72 -2.05Q17.95 -2.19 18.12 -2.19Q18.36 -2.19 18.47 -2.03L18.98 -1.38Q18.64 -0.97 18.2 -0.69Q17.77 -0.41 17.27 -0.22Q16.77 -0.03 16.22 0.05Q15.69 0.14 15.17 0.14Q14.17 0.14 13.31 -0.2Q12.47 -0.55 11.84 -1.19Q11.23 -1.84 10.89 -2.8Q10.55 -3.77 10.55 -5.03Q10.55 -6.03 10.86 -6.89Q11.17 -7.77 11.75 -8.41Q12.34 -9.05 13.17 -9.42Q14.02 -9.8 15.08 -9.8M15.09 -8.47Q13.91 -8.47 13.23 -7.78Q12.56 -7.09 12.39 -5.88L17.5 -5.88Q17.5 -6.45 17.34 -6.92Q17.19 -7.41 16.88 -7.73Q16.56 -8.08 16.11 -8.27Q15.67 -8.47 15.09 -8.47M21.78 0L21.78 -8.16L20.75 -8.28Q20.53 -8.31 20.39 -8.42Q20.27 -8.53 20.27 -8.73L20.27 -9.48L21.78 -9.48L21.78 -10.38Q21.78 -11.2 22.02 -11.84Q22.25 -12.5 22.69 -12.94Q23.12 -13.38 23.75 -13.61Q24.38 -13.84 25.14 -13.84Q25.45 -13.84 25.75 -13.8Q26.06 -13.75 26.33 -13.66L26.3 -12.75Q26.28 -12.64 26.22 -12.58Q26.16 -12.52 26.03 -12.48Q25.92 -12.45 25.77 -12.45Q25.62 -12.45 25.44 -12.45Q25 -12.45 24.64 -12.34Q24.3 -12.23 24.05 -11.98Q23.8 -11.73 23.66 -11.33Q23.53 -10.92 23.53 -10.31L23.53 -9.48L26.27 -9.48L26.27 -8.17L23.58 -8.17L23.58 0L21.78 0M30.81 0.16Q29.66 0.16 29.03 -0.48Q28.41 -1.14 28.41 -2.36L28.41 -8.17L27.27 -8.17Q27.11 -8.17 27 -8.27Q26.91 -8.38 26.91 -8.56L26.91 -9.28L28.47 -9.48L28.88 -12.41Q28.91 -12.56 29.02 -12.64Q29.12 -12.73 29.3 -12.73L30.2 -12.73L30.2 -9.48L32.95 -9.48L32.95 -8.17L30.2 -8.17L30.2 -2.48Q30.2 -1.91 30.48 -1.61Q30.77 -1.33 31.22 -1.33Q31.48 -1.33 31.67 -1.39Q31.86 -1.45 31.98 -1.53Q32.12 -1.62 32.22 -1.69Q32.33 -1.75 32.41 -1.75Q32.48 -1.75 32.53 -1.72Q32.59 -1.69 32.64 -1.59L33.17 -0.72Q32.72 -0.3 32.09 -0.06Q31.48 0.16 30.81 0.16M46.22 -7.86Q46.14 -7.77 46.05 -7.7Q45.97 -7.64 45.83 -7.64Q45.69 -7.64 45.52 -7.77Q45.34 -7.89 45.09 -8.02Q44.84 -8.16 44.48 -8.27Q44.12 -8.39 43.59 -8.39Q42.91 -8.39 42.38 -8.14Q41.84 -7.91 41.48 -7.44Q41.12 -6.97 40.94 -6.31Q40.77 -5.66 40.77 -4.83Q40.77 -3.98 40.95 -3.31Q41.16 -2.66 41.52 -2.19Q41.88 -1.73 42.38 -1.5Q42.89 -1.27 43.52 -1.27Q44.12 -1.27 44.52 -1.41Q44.91 -1.56 45.16 -1.73Q45.42 -1.91 45.59 -2.05Q45.77 -2.19 45.95 -2.19Q46.17 -2.19 46.28 -2.03L46.8 -1.38Q46.47 -0.97 46.06 -0.69Q45.66 -0.41 45.19 -0.22Q44.72 -0.03 44.22 0.05Q43.72 0.14 43.19 0.14Q42.28 0.14 41.5 -0.19Q40.73 -0.53 40.16 -1.17Q39.58 -1.81 39.25 -2.73Q38.92 -3.66 38.92 -4.83Q38.92 -5.91 39.22 -6.81Q39.53 -7.72 40.11 -8.38Q40.69 -9.05 41.53 -9.42Q42.39 -9.8 43.48 -9.8Q44.52 -9.8 45.3 -9.45Q46.09 -9.12 46.69 -8.53L46.22 -7.86M48.55 0L48.55 -14.02L50.34 -14.02L50.34 -8.41Q50.95 -9.03 51.69 -9.41Q52.44 -9.8 53.41 -9.8Q54.2 -9.8 54.8 -9.53Q55.41 -9.27 55.81 -8.78Q56.22 -8.3 56.42 -7.62Q56.64 -6.97 56.64 -6.14L56.64 0L54.83 0L54.83 -6.14Q54.83 -7.19 54.34 -7.77Q53.86 -8.36 52.88 -8.36Q52.14 -8.36 51.52 -8.02Q50.89 -7.67 50.34 -7.08L50.34 0L48.55 0M65.33 0Q65.06 0 64.92 -0.08Q64.78 -0.17 64.7 -0.42L64.5 -1.28Q64.12 -0.94 63.77 -0.67Q63.41 -0.41 63.02 -0.22Q62.62 -0.03 62.17 0.06Q61.72 0.16 61.17 0.16Q60.61 0.16 60.11 0Q59.61 -0.16 59.25 -0.48Q58.89 -0.81 58.67 -1.28Q58.45 -1.77 58.45 -2.42Q58.45 -3 58.77 -3.52Q59.08 -4.03 59.77 -4.44Q60.47 -4.86 61.59 -5.12Q62.72 -5.39 64.36 -5.44L64.36 -6.16Q64.36 -7.25 63.89 -7.8Q63.42 -8.36 62.52 -8.36Q61.89 -8.36 61.48 -8.2Q61.08 -8.05 60.77 -7.86Q60.47 -7.67 60.23 -7.52Q60.02 -7.38 59.78 -7.38Q59.59 -7.38 59.47 -7.47Q59.34 -7.58 59.25 -7.7L58.92 -8.3Q59.73 -9.05 60.67 -9.42Q61.61 -9.81 62.73 -9.81Q63.55 -9.81 64.19 -9.55Q64.83 -9.28 65.25 -8.8Q65.69 -8.33 65.91 -7.64Q66.14 -6.97 66.14 -6.16L66.14 0L65.33 0M61.72 -1.11Q62.14 -1.11 62.5 -1.19Q62.88 -1.28 63.19 -1.44Q63.52 -1.61 63.8 -1.84Q64.08 -2.08 64.36 -2.36L64.36 -4.3Q63.23 -4.27 62.42 -4.12Q61.62 -3.98 61.12 -3.75Q60.64 -3.53 60.41 -3.2Q60.17 -2.89 60.17 -2.52Q60.17 -2.14 60.3 -1.88Q60.42 -1.61 60.62 -1.44Q60.83 -1.27 61.11 -1.19Q61.39 -1.11 61.72 -1.11M68.66 0L68.66 -9.64L69.69 -9.64Q69.98 -9.64 70.09 -9.53Q70.2 -9.44 70.23 -9.16L70.36 -7.75Q70.81 -8.72 71.47 -9.27Q72.14 -9.81 73.08 -9.81Q73.39 -9.81 73.67 -9.75Q73.95 -9.69 74.16 -9.53L74.03 -8.19Q73.97 -7.94 73.73 -7.94Q73.59 -7.94 73.33 -7.98Q73.08 -8.05 72.77 -8.05Q72.31 -8.05 71.97 -7.91Q71.62 -7.78 71.34 -7.52Q71.06 -7.27 70.84 -6.89Q70.64 -6.53 70.45 -6.05L70.45 0L68.66 0M78.59 0.16Q77.44 0.16 76.81 -0.48Q76.19 -1.14 76.19 -2.36L76.19 -8.17L75.05 -8.17Q74.89 -8.17 74.78 -8.27Q74.69 -8.38 74.69 -8.56L74.69 -9.28L76.25 -9.48L76.66 -12.41Q76.69 -12.56 76.8 -12.64Q76.91 -12.73 77.08 -12.73L77.98 -12.73L77.98 -9.48L80.73 -9.48L80.73 -8.17L77.98 -8.17L77.98 -2.48Q77.98 -1.91 78.27 -1.61Q78.55 -1.33 79 -1.33Q79.27 -1.33 79.45 -1.39Q79.64 -1.45 79.77 -1.53Q79.91 -1.62 80 -1.69Q80.11 -1.75 80.19 -1.75Q80.27 -1.75 80.31 -1.72Q80.38 -1.69 80.42 -1.59L80.95 -0.72Q80.5 -0.3 79.88 -0.06Q79.27 0.16 78.59 0.16"/></g>
<line x1="60" y1="30" x2="60" y2="280" stroke="#333333"/>
<line x1="61" y1="280" x2="380" y2="280" stroke="#E0E0E0"/>
<line x1="56" y1="280" x2="59" y2="280" stroke="#333333"/>
<g transform="translate(37.9 283)" fill="#222222"><path d="M3.84 -9.44Q4.45 -9.44 4.97 -9.25Q5.48 -9.08 5.86 -8.73Q6.23 -8.41 6.44 -7.92Q6.66 -7.44 6.66 -6.83Q6.66 -6.31 6.5 -5.86Q6.36 -5.42 6.09 -5.02Q5.83 -4.61 5.48 -4.22Q5.14 -3.84 4.75 -3.45L2.34 -1Q2.61 -1.08 2.88 -1.12Q3.16 -1.17 3.41 -1.17L6.41 -1.17Q6.61 -1.17 6.72 -1.05Q6.84 -0.94 6.84 -0.75L6.84 0L0.59 0L0.59 -0.42Q0.59 -0.55 0.64 -0.69Q0.7 -0.83 0.81 -0.94L3.78 -3.92Q4.14 -4.3 4.44 -4.64Q4.75 -4.98 4.95 -5.33Q5.17 -5.67 5.28 -6.03Q5.41 -6.39 5.41 -6.78Q5.41 -7.19 5.28 -7.48Q5.16 -7.78 4.94 -7.98Q4.72 -8.19 4.42 -8.28Q4.12 -8.38 3.78 -8.38Q3.44 -8.38 3.14 -8.27Q2.86 -8.17 2.62 -7.98Q2.41 -7.81 2.25 -7.56Q2.11 -7.33 2.05 -7.05Q1.95 -6.8 1.81 -6.72Q1.67 -6.64 1.42 -6.67L0.78 -6.8Q0.88 -7.44 1.12 -7.92Q1.39 -8.42 1.8 -8.75Q2.2 -9.09 2.72 -9.27Q3.25 -9.44 3.84 -9.44M14.7 -4.67Q14.7 -3.44 14.44 -2.55Q14.19 -1.66 13.72 -1.06Q13.27 -0.47 12.64 -0.19Q12.03 0.09 11.31 0.09Q10.59 0.09 9.97 -0.19Q9.36 -0.47 8.89 -1.06Q8.44 -1.66 8.17 -2.55Q7.92 -3.44 7.92 -4.67Q7.92 -5.89 8.17 -6.78Q8.44 -7.69 8.89 -8.27Q9.36 -8.86 9.97 -9.14Q10.59 -9.44 11.31 -9.44Q12.03 -9.44 12.64 -9.14Q13.27 -8.86 13.72 -8.27Q14.19 -7.69 14.44 -6.78Q14.7 -5.89 14.7 -4.67M13.42 -4.67Q13.42 -5.72 13.25 -6.44Q13.08 -7.16 12.78 -7.58Q12.5 -8.02 12.11 -8.2Q11.72 -8.39 11.31 -8.39Q10.89 -8.39 10.5 -8.2Q10.12 -8.02 9.83 -7.58Q9.55 -7.16 9.38 -6.44Q9.2 -5.72 9.2 -4.67Q9.2 -3.61 9.38 -2.89Q9.55 -2.17 9.83 -1.73Q10.12 -1.31 10.5 -1.12Q10.89 -0.94 11.31 -0.94Q11.72 -0.94 12.11 -1.12Q12.5 -1.31 12.78 -1.73Q13.08 -2.17 13.25 -2.89Q13.42 -3.61 13.42 -4.67"/></g>
<line x1="61" y1="252" x2="380" y2="252" stroke="#E0E0E0"/>
<line x1="56" y1="252" x2="59" y2="252" stroke="#333333"/>
<g transform="translate(37.9 255)" fill="#222222"><path d="M3.84 -9.44Q4.45 -9.44 4.97 -9.25Q5.48 -9.08 5.86 -8.73Q6.23 -8.41 6.44 -7.92Q6.66 -7.44 6.66 -6.83Q6.66 -6.31 6.5 -5.86Q6.36 -5.42 6.09 -5.02Q5.83 -4.61 5.48 -4.22Q5.14 -3.84 4.75 -3.45L2.34 -1Q2.61 -1.08 2.88 -1.12Q3.16 -1.17 3.41 -1.17L6.41 -1.17Q6.61 -1.17 6.72 -1.05Q6.84 -0.94 6.84 -0.75L6.84 0L0.59 0L0.59 -0.42Q0.59 -0.55 0.64 -0.69Q0.7 -0.83 0.81 -0.94L3.78 -3.92Q4.14 -4.3 4.44 -4.64Q4.75 -4.98 4.95 -5.33Q5.17 -5.67 5.28 -6.03Q5.41 -6.39 5.41 -6.78Q5.41 -7.19 5.28 -7.48Q5.16 -7.78 4.94 -7.98Q4.72 -8.19 4.42 -8.28Q4.12 -8.38 3.78 -8.38Q3.44 -8.38 3.14 -8.27Q2.86 -8.17 2.62 -7.98Q2.41 -7.81 2.25 -7.56Q2.11 -7.33 2.05 -7.05Q1.95 -6.8 1.81 -6.72Q1.67 -6.64 1.42 -6.67L0.78 -6.8Q0.88 -7.44 1.12 -7.92Q1.39 -8.42 1.8 -8.75Q2.2 -9.09 2.72 -9.27Q3.25 -9.44 3.84 -9.44M11.39 -9.44Q12 -9.44 12.52 -9.25Q13.03 -9.08 13.41 -8.73Q13.78 -8.41 13.98 -7.92Q14.2 -7.44 14.2 -6.83Q14.2 -6.31 14.05 -5.86Q13.91 -5.42 13.64 -5.02Q13.38 -4.61 13.03 -4.22Q12.69 -3.84 12.3 -3.45L9.89 -1Q10.16 -1.08 10.42 -1.12Q10.7 -1.17 10.95 -1.17L13.95 -1.17Q14.16 -1.17 14.27 -1.05Q14.39 -0.94 14.39 -0.75L14.39 0L8.14 0L8.14 -0.42Q8.14 -0.55 8.19 -0.69Q8.25 -0.83 8.36 -0.94L11.33 -3.92Q11.69 -4.3 11.98 -4.64Q12.3 -4.98 12.5 -5.33Q12.72 -5.67 12.83 -6.03Q12.95 -6.39 12.95 -6.78Q12.95 -7.19 12.83 -7.48Q12.7 -7.78 12.48 -7.98Q12.27 -8.19 11.97 -8.28Q11.67 -8.38 11.33 -8.38Q10.98 -8.38 10.69 -8.27Q10.41 -8.17 10.17 -7.98Q9.95 -7.81 9.8 -7.56Q9.66 -7.33 9.59 -7.05Q9.5 -6.8 9.36 -6.72Q9.22 -6.64 8.97 -6.67L8.33 -6.8Q8.42 -7.44 8.67 -7.92Q8.94 -8.42 9.34 -8.75Q9.75 -9.09 10.27 -9.27Q10.8 -9.44 11.39 -9.44"/></g>
<line x1="61" y1="224" x2="380" y2="224" stroke="#E0E0E0"/>
<line x1="56" y1="224" x2="59" y2="224" stroke="#333333"/>
<g transform="translate(37.9 227)" fill="#222222"><path d="M3.84 -9.44Q4.45 -9.44 4.97 -9.25Q5.48 -9.08 5.86 -8.73Q6.23 -8.41 6.44 -7.92Q6.66 -7.44 6.66 -6.83Q6.66 -6.31 6.5 -5.86Q6.36 -5.42 6.09 -5.02Q5.83 -4.61 5.48 -4.22Q5.14 -3.84 4.75 -3.45L2.34 -1Q2.61 -1.08 2.88 -1.12Q3.16 -1.17 3.41 -1.17L6.41 -1.17Q6.61 -1.17 6.72 -1.05Q6.84 -0.94 6.84 -0.75L6.84 0L0.59 0L0.59 -0.42Q0.59 -0.55 0.64 -0.69Q0.7 -0.83 0.81 -0.94L3.78 -3.92Q4.14 -4.3 4.44 -4.64Q4.75 -4.98 4.95 -5.33Q5.17 -5.67 5.28 -6.03Q5.41 -6.39 5.41 -6.78Q5.41 -7.19 5.28 -7.48Q5.16 -7.78 4.94 -7.98Q4.72 -8.19 4.42 -8.28Q4.12 -8.38 3.78 -8.38Q3.44 -8.38 3.14 -8.27Q2.86 -8.17 2.62 -7.98Q2.41 -7.81 2.25 -7.56Q2.11 -7.33 2.05 -7.05Q1.95 -6.8 1.81 -6.72Q1.67 -6.64 1.42 -6.67L0.78 -6.8Q0.88 -7.44 1.12 -7.92Q1.39 -8.42 1.8 -8.75Q2.2 -9.09 2.72 -9.27Q3.25 -9.44 3.84 -9.44M13.95 -8.8Q13.95 -8.53 13.78 -8.36Q13.62 -8.19 13.23 -8.19L10.36 -8.19L9.95 -5.83Q10.66 -5.98 11.27 -5.98Q11.98 -5.98 12.55 -5.77Q13.11 -5.55 13.48 -5.17Q13.86 -4.8 14.05 -4.27Q14.23 -3.75 14.23 -3.16Q14.23 -2.42 13.97 -1.81Q13.72 -1.2 13.27 -0.78Q12.81 -0.36 12.19 -0.12Q11.58 0.11 10.88 0.11Q10.45 0.11 10.06 0.02Q9.69 -0.06 9.36 -0.2Q9.03 -0.34 8.75 -0.52Q8.47 -0.7 8.25 -0.89L8.62 -1.44Q8.75 -1.61 8.95 -1.61Q9.09 -1.61 9.25 -1.5Q9.41 -1.41 9.64 -1.28Q9.88 -1.16 10.19 -1.05Q10.5 -0.95 10.94 -0.95Q11.41 -0.95 11.78 -1.11Q12.17 -1.27 12.44 -1.55Q12.72 -1.83 12.86 -2.22Q13 -2.62 13 -3.09Q13 -3.53 12.88 -3.88Q12.75 -4.22 12.5 -4.45Q12.25 -4.7 11.88 -4.83Q11.5 -4.95 11 -4.95Q10.31 -4.95 9.52 -4.72L8.75 -4.94L9.5 -9.33L13.95 -9.33L13.95 -8.8"/></g>
<line x1="61" y1="197" x2="380" y2="197" stroke="#E0E0E0"/>
<line x1="56" y1="197" x2="59" y2="197" stroke="#333333"/>
<g transform="translate(37.9 200)" fill="#222222"><path d="M3.84 -9.44Q4.45 -9.44 4.97 -9.25Q5.48 -9.08 5.86 -8.73Q6.23 -8.41 6.44 -7.92Q6.66 -7.44 6.66 -6.83Q6.66 -6.31 6.5 -5.86Q6.36 -5.42 6.09 -5.02Q5.83 -4.61 5.48 -4.22Q5.14 -3.84 4.75 -3.45L2.34 -1Q2.61 -1.08 2.88 -1.12Q3.16 -1.17 3.41 -1.17L6.41 -1.17Q6.61 -1.17 6.72 -1.05Q6.84 -0.94 6.84 -0.75L6.84 0L0.59 0L0.59 -0.42Q0.59 -0.55 0.64 -0.69Q0.7 -0.83 0.81 -0.94L3.78 -3.92Q4.14 -4.3 4.44 -4.64Q4.75 -4.98 4.95 -5.33Q5.17 -5.67 5.28 -6.03Q5.41 -6.39 5.41 -6.78Q5.41 -7.19 5.28 -7.48Q5.16 -7.78 4.94 -7.98Q4.72 -8.19 4.42 -8.28Q4.12 -8.38 3.78 -8.38Q3.44 -8.38 3.14 -8.27Q2.86 -8.17 2.62 -7.98Q2.41 -7.81 2.25 -7.56Q2.11 -7.33 2.05 -7.05Q1.95 -6.8 1.81 -6.72Q1.67 -6.64 1.42 -6.67L0.78 -6.8Q0.88 -7.44 1.12 -7.92Q1.39 -8.42 1.8 -8.75Q2.2 -9.09 2.72 -9.27Q3.25 -9.44 3.84 -9.44M11.31 0.11Q10.61 0.11 10.03 -0.08Q9.45 -0.27 9.03 -0.61Q8.62 -0.97 8.39 -1.45Q8.16 -1.95 8.16 -2.56Q8.16 -3.45 8.61 -4.03Q9.08 -4.61 9.95 -4.86Q9.22 -5.14 8.84 -5.67Q8.47 -6.22 8.47 -6.97Q8.47 -7.5 8.67 -7.94Q8.89 -8.39 9.27 -8.72Q9.64 -9.05 10.16 -9.23Q10.69 -9.44 11.31 -9.44Q11.95 -9.44 12.47 -9.23Q13 -9.05 13.38 -8.72Q13.75 -8.39 13.95 -7.94Q14.16 -7.5 14.16 -6.97Q14.16 -6.22 13.78 -5.67Q13.41 -5.14 12.69 -4.86Q13.55 -4.61 14 -4.03Q14.47 -3.45 14.47 -2.56Q14.47 -1.95 14.23 -1.45Q14.02 -0.97 13.59 -0.61Q13.19 -0.27 12.59 -0.08Q12.02 0.11 11.31 0.11M11.31 -0.88Q11.77 -0.88 12.11 -1Q12.47 -1.12 12.7 -1.36Q12.95 -1.59 13.08 -1.89Q13.2 -2.2 13.2 -2.59Q13.2 -3.05 13.05 -3.38Q12.91 -3.72 12.64 -3.92Q12.39 -4.14 12.03 -4.23Q11.69 -4.33 11.31 -4.33Q10.94 -4.33 10.59 -4.23Q10.25 -4.14 9.98 -3.92Q9.73 -3.72 9.58 -3.38Q9.42 -3.05 9.42 -2.59Q9.42 -2.2 9.55 -1.89Q9.67 -1.59 9.92 -1.36Q10.17 -1.12 10.52 -1Q10.88 -0.88 11.31 -0.88M11.31 -5.33Q11.77 -5.33 12.08 -5.45Q12.39 -5.59 12.58 -5.81Q12.77 -6.05 12.86 -6.34Q12.95 -6.64 12.95 -6.95Q12.95 -7.27 12.84 -7.53Q12.75 -7.81 12.55 -8.02Q12.34 -8.23 12.03 -8.36Q11.72 -8.48 11.31 -8.48Q10.91 -8.48 10.59 -8.36Q10.3 -8.23 10.09 -8.02Q9.89 -7.81 9.78 -7.53Q9.69 -7.27 9.69 -6.95Q9.69 -6.64 9.77 -6.34Q9.86 -6.05 10.05 -5.81Q10.25 -5.59 10.56 -5.45Q10.88 -5.33 11.31 -5.33"/></g>
<line x1="61" y1="169" x2="380" y2="169" stroke="#E0E0E0"/>
<line x1="56" y1="169" x2="59" y2="169" stroke="#333333"/>
<g transform="translate(37.9 172)" fill="#222222"><path d="M3.89 -9.44Q4.5 -9.44 5 -9.27Q5.5 -9.09 5.86 -8.77Q6.22 -8.45 6.42 -8.02Q6.62 -7.58 6.62 -7.05Q6.62 -6.59 6.52 -6.25Q6.41 -5.91 6.19 -5.64Q5.98 -5.38 5.69 -5.2Q5.39 -5.03 5.03 -4.91Q5.92 -4.66 6.38 -4.09Q6.83 -3.55 6.83 -2.69Q6.83 -2.03 6.58 -1.52Q6.34 -1 5.92 -0.64Q5.5 -0.28 4.92 -0.08Q4.36 0.11 3.72 0.11Q2.98 0.11 2.45 -0.08Q1.92 -0.27 1.55 -0.58Q1.19 -0.91 0.94 -1.34Q0.7 -1.8 0.55 -2.33L1.08 -2.56Q1.28 -2.66 1.47 -2.61Q1.67 -2.58 1.77 -2.39Q1.86 -2.2 1.98 -1.95Q2.11 -1.7 2.33 -1.47Q2.55 -1.25 2.88 -1.09Q3.2 -0.95 3.7 -0.95Q4.17 -0.95 4.53 -1.11Q4.89 -1.27 5.12 -1.5Q5.36 -1.75 5.47 -2.05Q5.59 -2.36 5.59 -2.66Q5.59 -3.03 5.5 -3.33Q5.41 -3.64 5.14 -3.86Q4.89 -4.08 4.44 -4.2Q3.98 -4.33 3.25 -4.33L3.25 -5.22Q3.84 -5.23 4.25 -5.34Q4.67 -5.47 4.92 -5.67Q5.19 -5.89 5.3 -6.19Q5.42 -6.48 5.42 -6.83Q5.42 -7.22 5.3 -7.5Q5.19 -7.8 4.97 -7.98Q4.75 -8.19 4.45 -8.28Q4.17 -8.38 3.83 -8.38Q3.48 -8.38 3.19 -8.27Q2.91 -8.17 2.67 -7.98Q2.45 -7.81 2.3 -7.56Q2.14 -7.33 2.08 -7.05Q1.98 -6.8 1.84 -6.72Q1.72 -6.64 1.47 -6.67L0.81 -6.8Q0.91 -7.44 1.17 -7.92Q1.44 -8.42 1.84 -8.75Q2.25 -9.09 2.77 -9.27Q3.28 -9.44 3.89 -9.44M14.7 -4.67Q14.7 -3.44 14.44 -2.55Q14.19 -1.66 13.72 -1.06Q13.27 -0.47 12.64 -0.19Q12.03 0.09 11.31 0.09Q10.59 0.09 9.97 -0.19Q9.36 -0.47 8.89 -1.06Q8.44 -1.66 8.17 -2.55Q7.92 -3.44 7.92 -4.67Q7.92 -5.89 8.17 -6.78Q8.44 -7.69 8.89 -8.27Q9.36 -8.86 9.97 -9.14Q10.59 -9.44 11.31 -9.44Q12.03 -9.44 12.64 -9.14Q13.27 -8.86 13.72 -8.27Q14.19 -7.69 14.44 -6.78Q14.7 -5.89 14.7 -4.67M13.42 -4.67Q13.42 -5.72 13.25 -6.44Q13.08 -7.16 12.78 -7.58Q12.5 -8.02 12.11 -8.2Q11.72 -8.39 11.31 -8.39Q10.89 -8.39 10.5 -8.2Q10.12 -8.02 9.83 -7.58Q9.55 -7.16 9.38 -6.44Q9.2 -5.72 9.2 -4.67Q9.2 -3.61 9.38 -2.89Q9.55 -2.17 9.83 -1.73Q10.12 -1.31 10.5 -1.12Q10.89 -0.94 11.31 -0.94Q11.72 -0.94 12.11 -1.12Q12.5 -1.31 12.78 -1.73Q13.08 -2.17 13.25 -2.89Q13.42 -3.61 13.42 -4.67"/></g>
<line x1="61" y1="141" x2="380" y2="141" stroke="#E0E0E0"/>
<line x1="56" y1="141" x2="59" y2="141" stroke="#333333"/>
<g transform="translate(37.9 144)" fill="#222222"><path d="M3.89 -9.44Q4.5 -9.44 5 -9.27Q5.5 -9.09 5.86 -8.77Q6.22 -8.45 6.42 -8.02Q6.62 -7.58 6.62 -7.05Q6.62 -6.59 6.52 -6.25Q6.41 -5.91 6.19 -5.64Q5.98 -5.38 5.69 -5.2Q5.39 -5.03 5.03 -4.91Q5.92 -4.66 6.38 -4.09Q6.83 -3.55 6.83 -2.69Q6.83 -2.03 6.58 -1.52Q6.34 -1 5.92 -0.64Q5.5 -0.28 4.92 -0.08Q4.36 0.11 3.72 0.11Q2.98 0.11 2.45 -0.08Q1.92 -0.27 1.55 -0.58Q1.19 -0.91 0.94 -1.34Q0.7 -1.8 0.55 -2.33L1.08 -2.56Q1.28 -2.66 1.47 -2.61Q1.67 -2.58 1.77 -2.39Q1.86 -2.2 1.98 -1.95Q2.11 -1.7 2.33 -1.47Q2.55 -1.25 2.88 -1.09Q3.2 -0.95 3.7 -0.95Q4.17 -0.95 4.53 -1.11Q4.89 -1.27 5.12 -1.5Q5.36 -1.75 5.47 -2.05Q5.59 -2.36 5.59 -2.66Q5.59 -3.03 5.5 -3.33Q5.41 -3.64 5.14 -3.86Q4.89 -4.08 4.44 -4.2Q3.98 -4.33 3.25 -4.33L3.25 -5.22Q3.84 -5.23 4.25 -5.34Q4.67 -5.47 4.92 -5.67Q5.19 -5.89 5.3 -6.19Q5.42 -6.48 5.42 -6.83Q5.42 -7.22 5.3 -7.5Q5.19 -7.8 4.97 -7.98Q4.75 -8.19 4.45 -8.28Q4.17 -8.38 3.83 -8.38Q3.48 -8.38 3.19 -8.27Q2.91 -8.17 2.67 -7.98Q2.45 -7.81 2.3 -7.56Q2.14 -7.33 2.08 -7.05Q1.98 -6.8 1.84 -6.72Q1.72 -6.64 1.47 -6.67L0.81 -6.8Q0.91 -7.44 1.17 -7.92Q1.44 -8.42 1.84 -8.75Q2.25 -9.09 2.77 -9.27Q3.28 -9.44 3.89 -9.44M11.39 -9.44Q12 -9.44 12.52 -9.25Q13.03 -9.08 13.41 -8.73Q13.78 -8.41 13.98 -7.92Q14.2 -7.44 14.2 -6.83Q14.2 -6.31 14.05 -5.86Q13.91 -5.42 13.64 -5.02Q13.38 -4.61 13.03 -4.22Q12.69 -3.84 12.3 -3.45L9.89 -1Q10.16 -1.08 10.42 -1.12Q10.7 -1.17 10.95 -1.17L13.95 -1.17Q14.16 -1.17 14.27 -1.05Q14.39 -0.94 14.39 -0.75L14.39 0L8.14 0L8.14 -0.42Q8.14 -0.55 8.19 -0.69Q8.25 -0.83 8.36 -0.94L11.33 -3.92Q11.69 -4.3 11.98 -4.64Q12.3 -4.98 12.5 -5.33Q12.72 -5.67 12.83 -6.03Q12.95 -6.39 12.95 -6.78Q12.95 -7.19 12.83 -7.48Q12.7 -7.78 12.48 -7.98Q12.27 -8.19 11.97 -8.28Q11.67 -8.38 11.33 -8.38Q10.98 -8.38 10.69 -8.27Q10.41 -8.17 10.17 -7.98Q9.95 -7.81 9.8 -7.56Q9.66 -7.33 9.59 -7.05Q9.5 -6.8 9.36 -6.72Q9.22 -6.64 8.97 -6.67L8.33 -6.8Q8.42 -7.44 8.67 -7.92Q8.94 -8.42 9.34 -8.75Q9.75 -9.09 10.27 -9.27Q10.8 -9.44 11.39 -9.44"/></g>
<line x1="61" y1="113" x2="380" y2="113" stroke="#E0E0E0"/>
<line x1="56" y1="113" x2="59" y2="113" stroke="#333333"/>
<g transform="translate(37.9 116)" fill="#222222"><path d="M3.89 -9.44Q4.5 -9.44 5 -9.27Q5.5 -9.09 5.86 -8.77Q6.22 -8.45 6.42 -8.02Q6.62 -7.58 6.62 -7.05Q6.62 -6.59 6.52 -6.25Q6.41 -5.91 6.19 -5.64Q5.98 -5.38 5.69 -5.2Q5.39 -5.03 5.03 -4.91Q5.92 -4.66 6.38 -4.09Q6.83 -3.55 6.83 -2.69Q6.83 -2.03 6.58 -1.52Q6.34 -1 5.92 -0.64Q5.5 -0.28 4.92 -0.08Q4.36 0.11 3.72 0.11Q2.98 0.11 2.45 -0.08Q1.92 -0.27 1.55 -0.58Q1.19 -0.91 0.94 -1.34Q0.7 -1.8 0.55 -2.33L1.08 -2.56Q1.28 -2.66 1.47 -2.61Q1.67 -2.58 1.77 -2.39Q1.86 -2.2 1.98 -1.95Q2.11 -1.7 2.33 -1.47Q2.55 -1.25 2.88 -1.09Q3.2 -0.95 3.7 -0.95Q4.17 -0.95 4.53 -1.11Q4.89 -1.27 5.12 -1.5Q5.36 -1.75 5.47 -2.05Q5.59 -2.36 5.59 -2.66Q5.59 -3.03 5.5 -3.33Q5.41 -3.64 5.14 -3.86Q4.89 -4.08 4.44 -4.2Q3.98 -4.33 3.25 -4.33L3.25 -5.22Q3.84 -5.23 4.25 -5.34Q4.67 -5.47 4.92 -5.67Q5.19 -5.89 5.3 -6.19Q5.42 -6.48 5.42 -6.83Q5.42 -7.22 5.3 -7.5Q5.19 -7.8 4.97 -7.98Q4.75 -8.19 4.45 -8.28Q4.17 -8.38 3.83 -8.38Q3.48 -8.38 3.19 -8.27Q2.91 -8.17 2.67 -7.98Q2.45 -7.81 2.3 -7.56Q2.14 -7.33 2.08 -7.05Q1.98 -6.8 1.84 -6.72Q1.72 -6.64 1.47 -6.67L0.81 -6.8Q0.91 -7.44 1.17 -7.92Q1.44 -8.42 1.84 -8.75Q2.25 -9.09 2.77 -9.27Q3.28 -9.44 3.89 -9.44M13.95 -8.8Q13.95 -8.53 13.78 -8.36Q13.62 -8.19 13.23 -8.19L10.36 -8.19L9.95 -5.83Q10.66 -5.98 11.27 -5.98Q11.98 -5.98 12.55 -5.77Q13.11 -5.55 13.48 -5.17Q13.86 -4.8 14.05 -4.27Q14.23 -3.75 14.23 -3.16Q14.23 -2.42 13.97 -1.81Q13.72 -1.2 13.27 -0.78Q12.81 -0.36 12.19 -0.12Q11.58 0.11 10.88 0.11Q10.45 0.11 10.06 0.02Q9.69 -0.06 9.36 -0.2Q9.03 -0.34 8.75 -0.52Q8.47 -0.7 8.25 -0.89L8.62 -1.44Q8.75 -1.61 8.95 -1.61Q9.09 -1.61 9.25 -1.5Q9.41 -1.41 9.64 -1.28Q9.88 -1.16 10.19 -1.05Q10.5 -0.95 10.94 -0.95Q11.41 -0.95 11.78 -1.11Q12.17 -1.27 12.44 -1.55Q12.72 -1.83 12.86 -2.22Q13 -2.62 13 -3.09Q13 -3.53 12.88 -3.88Q12.75 -4.22 12.5 -4.45Q12.25 -4.7 11.88 -4.83Q11.5 -4.95 11 -4.95Q10.31 -4.95 9.52 -4.72L8.75 -4.94L9.5 -9.33L13.95 -9.33L13.95 -8.8"/></g>
<line x1="61" y1="86" x2="380" y2="86" stroke="#E0E0E0"/>
<line x1="56" y1="86" x2="59" y2="86" stroke="#333333"/>
<g transform="translate(37.9 89)" fill="#222222"><path d="M3.89 -9.44Q4.5 -9.44 5 -9.27Q5.5 -9.09 5.86 -8.77Q6.22 -8.45 6.42 -8.02Q6.62 -7.58 6.62 -7.05Q6.62 -6.59 6.52 -6.25Q6.41 -5.91 6.19 -5.64Q5.98 -5.38 5.69 -5.2Q5.39 -5.03 5.03 -4.91Q5.92 -4.66 6.38 -4.09Q6.83 -3.55 6.83 -2.69Q6.83 -2.03 6.58 -1.52Q6.34 -1 5.92 -0.64Q5.5 -0.28 4.92 -0.08Q4.36 0.11 3.72 0.11Q2.98 0.11 2.45 -0.08Q1.92 -0.27 1.55 -0.58Q1.19 -0.91 0.94 -1.34Q0.7 -1.8 0.55 -2.33L1.08 -2.56Q1.28 -2.66 1.47 -2.61Q1.67 -2.58 1.77 -2.39Q1.86 -2.2 1.98 -1.95Q2.11 -1.7 2.33 -1.47Q2.55 -1.25 2.88 -1.09Q3.2 -0.95 3.7 -0.95Q4.17 -0.95 4.53 -1.11Q4.89 -1.27 5.12 -1.5Q5.36 -1.75 5.47 -2.05Q5.59 -2.36 5.59 -2.66Q5.59 -3.03 5.5 -3.33Q5.41 -3.64 5.14 -3.86Q4.89 -4.08 4.44 -4.2Q3.98 -4.33 3.25 -4.33L3.25 -5.22Q3.84 -5.23 4.25 -5.34Q4.67 -5.47 4.92 -5.67Q5.19 -5.89 5.3 -6.19Q5.42 -6.48 5.42 -6.83Q5.42 -7.22 5.3 -7.5Q5.19 -7.8 4.97 -7.98Q4.75 -8.19 4.45 -8.28Q4.17 -8.38 3.83 -8.38Q3.48 -8.38 3.19 -8.27Q2.91 -8.17 2.67 -7.98Q2.45 -7.81 2.3 -7.56Q2.14 -7.33 2.08 -7.05Q1.98 -6.8 1.84 -6.72Q1.72 -6.64 1.47 -6.67L0.81 -6.8Q0.91 -7.44 1.17 -7.92Q1.44 -8.42 1.84 -8.75Q2.25 -9.09 2.77 -9.27Q3.28 -9.44 3.89 -9.44M11.31 0.11Q10.61 0.11 10.03 -0.08Q9.45 -0.27 9.03 -0.61Q8.62 -0.97 8.39 -1.45Q8.16 -1.95 8.16 -2.56Q8.16 -3.45 8.61 -4.03Q9.08 -4.61 9.95 -4.86Q9.22 -5.14 8.84 -5.67Q8.47 -6.22 8.47 -6.97Q8.47 -7.5 8.67 -7.94Q8.89 -8.39 9.27 -8.72Q9.64 -9.05 10.16 -9.23Q10.69 -9.44 11.31 -9.44Q11.95 -9.44 12.47 -9.23Q13 -9.05 13.38 -8.72Q13.75 -8.39 13.95 -7.94Q14.16 -7.5 14.16 -6.97Q14.16 -6.22 13.78 -5.67Q13.41 -5.14 12.69 -4.86Q13.55 -4.61 14 -4.03Q14.47 -3.45 14.47 -2.56Q14.47 -1.95 14.23 -1.45Q14.02 -0.97 13.59 -0.61Q13.19 -0.27 12.59 -0.08Q12.02 0.11 11.31 0.11M11.31 -0.88Q11.77 -0.88 12.11 -1Q12.47 -1.12 12.7 -1.36Q12.95 -1.59 13.08 -1.89Q13.2 -2.2 13.2 -2.59Q13.2 -3.05 13.05 -3.38Q12.91 -3.72 12.64 -3.92Q12.39 -4.14 12.03 -4.23Q11.69 -4.33 11.31 -4.33Q10.94 -4.33 10.59 -4.23Q10.25 -4.14 9.98 -3.92Q9.73 -3.72 9.58 -3.38Q9.42 -3.05 9.42 -2.59Q9.42 -2.2 9.55 -1.89Q9.67 -1.59 9.92 -1.36Q10.17 -1.12 10.52 -1Q10.88 -0.88 11.31 -0.88M11.31 -5.33Q11.77 -5.33 12.08 -5.45Q12.39 -5.59 12.58 -5.81Q12.77 -6.05 12.86 -6.34Q12.95 -6.64 12.95 -6.95Q12.95 -7.27 12.84 -7.53Q12.75 -7.81 12.55 -8.02Q12.34 -8.23 12.03 -8.36Q11.72 -8.48 11.31 -8.48Q10.91 -8.48 10.59 -8.36Q10.3 -8.23 10.09 -8.02Q9.89 -7.81 9.78 -7.53Q9.69 -7.27 9.69 -6.95Q9.69 -6.64 9.77 -6.34Q9.86 -6.05 10.05 -5.81Q10.25 -5.59 10.56 -5.45Q10.88 -5.33 11.31 -5.33"/></g>
<line x1="61" y1="58" x2="380" y2="58" stroke="#E0E0E0"/>
<line x1="56" y1="58" x2="59" y2="58" stroke="#333333"/>
<g transform="translate(37.9 61)" fill="#222222"><path d="M5.8 -3.39L7.17 -3.39L7.17 -2.67Q7.17 -2.56 7.11 -2.48Q7.05 -2.42 6.91 -2.42L5.8 -2.42L5.8 0L4.72 0L4.72 -2.42L0.62 -2.42Q0.48 -2.42 0.38 -2.5Q0.28 -2.58 0.27 -2.7L0.14 -3.33L4.66 -9.33L5.8 -9.33L5.8 -3.39M4.72 -7.09Q4.72 -7.28 4.73 -7.48Q4.75 -7.69 4.78 -7.91L1.47 -3.39L4.72 -3.39L4.72 -7.09M14.7 -4.67Q14.7 -3.44 14.44 -2.55Q14.19 -1.66 13.72 -1.06Q13.27 -0.47 12.64 -0.19Q12.03 0.09 11.31 0.09Q10.59 0.09 9.97 -0.19Q9.36 -0.47 8.89 -1.06Q8.44 -1.66 8.17 -2.55Q7.92 -3.44 7.92 -4.67Q7.92 -5.89 8.17 -6.78Q8.44 -7.69 8.89 -8.27Q9.36 -8.86 9.97 -9.14Q10.59 -9.44 11.31 -9.44Q12.03 -9.44 12.64 -9.14Q13.27 -8.86 13.72 -8.27Q14.19 -7.69 14.44 -6.78Q14.7 -5.89 14.7 -4.67M13.42 -4.67Q13.42 -5.72 13.25 -6.44Q13.08 -7.16 12.78 -7.58Q12.5 -8.02 12.11 -8.2Q11.72 -8.39 11.31 -8.39Q10.89 -8.39 10.5 -8.2Q10.12 -8.02 9.83 -7.58Q9.55 -7.16 9.38 -6.44Q9.2 -5.72 9.2 -4.67Q9.2 -3.61 9.38 -2.89Q9.55 -2.17 9.83 -1.73Q10.12 -1.31 10.5 -1.12Q10.89 -0.94 11.31 -0.94Q11.72 -0.94 12.11 -1.12Q12.5 -1.31 12.78 -1.73Q13.08 -2.17 13.25 -2.89Q13.42 -3.61 13.42 -4.67"/></g>
<line x1="61" y1="30" x2="380" y2="30" stroke="#E0E0E0"/>
<line x1="56" y1="30" x2="59" y2="30" stroke="#333333"/>
<g transform="translate(37.9 33)" fill="#222222"><path d="M5.8 -3.39L7.17 -3.39L7.17 -2.67Q7.17 -2.56 7.11 -2.48Q7.05 -2.42 6.91 -2.42L5.8 -2.42L5.8 0L4.72 0L4.72 -2.42L0.62 -2.42Q0.48 -2.42 0.38 -2.5Q0.28 -2.58 0.27 -2.7L0.14 -3.33L4.66 -9.33L5.8 -9.33L5.8 -3.39M4.72 -7.09Q4.72 -7.28 4.73 -7.48Q4.75 -7.69 4.78 -7.91L1.47 -3.39L4.72 -3.39L4.72 -7.09M11.39 -9.44Q12 -9.44 12.52 -9.25Q13.03 -9.08 13.41 -8.73Q13.78 -8.41 13.98 -7.92Q14.2 -7.44 14.2 -6.83Q14.2 -6.31 14.05 -5.86Q13.91 -5.42 13.64 -5.02Q13.38 -4.61 13.03 -4.22Q12.69 -3.84 12.3 -3.45L9.89 -1Q10.16 -1.08 10.42 -1.12Q10.7 -1.17 10.95 -1.17L13.95 -1.17Q14.16 -1.17 14.27 -1.05Q14.39 -0.94 14.39 -0.75L14.39 0L8.14 0L8.14 -0.42Q8.14 -0.55 8.19 -0.69Q8.25 -0.83 8.36 -0.94L11.33 -3.92Q11.69 -4.3 11.98 -4.64Q12.3 -4.98 12.5 -5.33Q12.72 -5.67 12.83 -6.03Q12.95 -6.39 12.95 -6.78Q12.95 -7.19 12.83 -7.48Q12.7 -7.78 12.48 -7.98Q12.27 -8.19 11.97 -8.28Q11.67 -8.38 11.33 -8.38Q10.98 -8.38 10.69 -8.27Q10.41 -8.17 10.17 -7.98Q9.95 -7.81 9.8 -7.56Q9.66 -7.33 9.59 -7.05Q9.5 -6.8 9.36 -6.72Q9.22 -6.64 8.97 -6.67L8.33 -6.8Q8.42 -7.44 8.67 -7.92Q8.94 -8.42 9.34 -8.75Q9.75 -9.09 10.27 -9.27Q10.8 -9.44 11.39 -9.44"/></g>
<line x1="60" y1="280" x2="380" y2="280" stroke="#333333"/>
<line x1="92" y1="281" x2="92" y2="284" stroke="#333333"/>
<g transform="translate(88.2 301)" fill="#222222"><path d="M7.16 -4.67Q7.16 -3.44 6.89 -2.55Q6.64 -1.66 6.17 -1.06Q5.72 -0.47 5.09 -0.19Q4.48 0.09 3.77 0.09Q3.05 0.09 2.42 -0.19Q1.81 -0.47 1.34 -1.06Q0.89 -1.66 0.62 -2.55Q0.38 -3.44 0.38 -4.67Q0.38 -5.89 0.62 -6.78Q0.89 -7.69 1.34 -8.27Q1.81 -8.86 2.42 -9.14Q3.05 -9.44 3.77 -9.44Q4.48 -9.44 5.09 -9.14Q5.72 -8.86 6.17 -8.27Q6.64 -7.69 6.89 -6.78Q7.16 -5.89 7.16 -4.67M5.88 -4.67Q5.88 -5.72 5.7 -6.44Q5.53 -7.16 5.23 -7.58Q4.95 -8.02 4.56 -8.2Q4.17 -8.39 3.77 -8.39Q3.34 -8.39 2.95 -8.2Q2.58 -8.02 2.28 -7.58Q2 -7.16 1.83 -6.44Q1.66 -5.72 1.66 -4.67Q1.66 -3.61 1.83 -2.89Q2 -2.17 2.28 -1.73Q2.58 -1.31 2.95 -1.12Q3.34 -0.94 3.77 -0.94Q4.17 -0.94 4.56 -1.12Q4.95 -1.31 5.23 -1.73Q5.53 -2.17 5.7 -2.89Q5.88 -3.61 5.88 -4.67"/></g>
<line x1="156" y1="281" x2="156" y2="284" stroke="#333333"/>
<g transform="translate(152.2 301)" fill="#222222"><path d="M1.61 -0.94L3.59 -0.94L3.59 -7.14Q3.59 -7.42 3.61 -7.73L2 -6.36Q1.91 -6.28 1.81 -6.27Q1.73 -6.25 1.66 -6.27Q1.58 -6.28 1.52 -6.31Q1.45 -6.36 1.42 -6.41L1.03 -6.94L3.83 -9.34L4.83 -9.34L4.83 -0.94L6.64 -0.94L6.64 0L1.61 0L1.61 -0.94"/></g>
<line x1="220" y1="281" x2="220" y2="284" stroke="#333333"/>
<g transform="translate(216.2 301)" fill="#222222"><path d="M3.84 -9.44Q4.45 -9.44 4.97 -9.25Q5.48 -9.08 5.86 -8.73Q6.23 -8.41 6.44 -7.92Q6.66 -7.44 6.66 -6.83Q6.66 -6.31 6.5 -5.86Q6.36 -5.42 6.09 -5.02Q5.83 -4.61 5.48 -4.22Q5.14 -3.84 4.75 -3.45L2.34 -1Q2.61 -1.08 2.88 -1.12Q3.16 -1.17 3.41 -1.17L6.41 -1.17Q6.61 -1.17 6.72 -1.05Q6.84 -0.94 6.84 -0.75L6.84 0L0.59 0L0.59 -0.42Q0.59 -0.55 0.64 -0.69Q0.7 -0.83 0.81 -0.94L3.78 -3.92Q4.14 -4.3 4.44 -4.64Q4.75 -4.98 4.95 -5.33Q5.17 -5.67 5.28 -6.03Q5.41 -6.39 5.41 -6.78Q5.41 -7.19 5.28 -7.48Q5.16 -7.78 4.94 -7.98Q4.72 -8.19 4.42 -8.28Q4.12 -8.38 3.78 -8.38Q3.44 -8.38 3.14 -8.27Q2.86 -8.17 2.62 -7.98Q2.41 -7.81 2.25 -7.56Q2.11 -7.33 2.05 -7.05Q1.95 -6.8 1.81 -6.72Q1.67 -6.64 1.42 -6.67L0.78 -6.8Q0.88 -7.44 1.12 -7.92Q1.39 -8.42 1.8 -8.75Q2.2 -9.09 2.72 -9.27Q3.25 -9.44 3.84 -9.44"/></g>
<line x1="284" y1="281" x2="284" y2="284" stroke="#333333"/>
<g transform="translate(280.2 301)" fill="#222222"><path d="M3.89 -9.44Q4.5 -9.44 5 -9.27Q5.5 -9.09 5.86 -8.77Q6.22 -8.45 6.42 -8.02Q6.62 -7.58 6.62 -7.05Q6.62 -6.59 6.52 -6.25Q6.41 -5.91 6.19 -5.64Q5.98 -5.38 5.69 -5.2Q5.39 -5.03 5.03 -4.91Q5.92 -4.66 6.38 -4.09Q6.83 -3.55 6.83 -2.69Q6.83 -2.03 6.58 -1.52Q6.34 -1 5.92 -0.64Q5.5 -0.28 4.92 -0.08Q4.36 0.11 3.72 0.11Q2.98 0.11 2.45 -0.08Q1.92 -0.27 1.55 -0.58Q1.19 -0.91 0.94 -1.34Q0.7 -1.8 0.55 -2.33L1.08 -2.56Q1.28 -2.66 1.47 -2.61Q1.67 -2.58 1.77 -2.39Q1.86 -2.2 1.98 -1.95Q2.11 -1.7 2.33 -1.47Q2.55 -1.25 2.88 -1.09Q3.2 -0.95 3.7 -0.95Q4.17 -0.95 4.53 -1.11Q4.89 -1.27 5.12 -1.5Q5.36 -1.75 5.47 -2.05Q5.59 -2.36 5.59 -2.66Q5.59 -3.03 5.5 -3.33Q5.41 -3.64 5.14 -3.86Q4.89 -4.08 4.44 -4.2Q3.98 -4.33 3.25 -4.33L3.25 -5.22Q3.84 -5.23 4.25 -5.34Q4.67 -5.47 4.92 -5.67Q5.19 -5.89 5.3 -6.19Q5.42 -6.48 5.42 -6.83Q5.42 -7.22 5.3 -7.5Q5.19 -7.8 4.97 -7.98Q4.75 -8.19 4.45 -8.28Q4.17 -8.38 3.83 -8.38Q3.48 -8.38 3.19 -8.27Q2.91 -8.17 2.67 -7.98Q2.45 -7.81 2.3 -7.56Q2.14 -7.33 2.08 -7.05Q1.98 -6.8 1.84 -6.72Q1.72 -6.64 1.47 -6.67L0.81 -6.8Q0.91 -7.44 1.17 -7.92Q1.44 -8.42 1.84 -8.75Q2.25 -9.09 2.77 -9.27Q3.28 -9.44 3.89 -9.44"/></g>
<line x1="348" y1="281" x2="348" y2="284" stroke="#333333"/>
<g transform="translate(344.2 301)" fill="#222222"><path d="M5.8 -3.39L7.17 -3.39L7.17 -2.67Q7.17 -2.56 7.11 -2.48Q7.05 -2.42 6.91 -2.42L5.8 -2.42L5.8 0L4.72 0L4.72 -2.42L0.62 -2.42Q0.48 -2.42 0.38 -2.5Q0.28 -2.58 0.27 -2.7L0.14 -3.33L4.66 -9.33L5.8 -9.33L5.8 -3.39M4.72 -7.09Q4.72 -7.28 4.73 -7.48Q4.75 -7.69 4.78 -7.91L1.47 -3.39L4.72 -3.39L4.72 -7.09"/></g>
<line x1="92" y1="258" x2="156" y2="113" stroke="#1F77B4" stroke-width="2"/>
<line x1="156" y1="113" x2="220" y2="191" stroke="#1F77B4" stroke-width="2"/>
<line x1="220" y1="191" x2="284" y2="47" stroke="#1F77B4" stroke-width="2"/>
<line x1="284" y1="47" x2="348" y2="80" stroke="#1F77B4" stroke-width="2"/>
<circle cx="92" cy="258" r="3" fill="#1F77B4"/>
<circle cx="156" cy="113" r="3" fill="#1F77B4"/>
<circle cx="220" cy="191" r="3" fill="#1F77B4"/>
<circle cx="284" cy="47" r="3" fill="#1F77B4"/>
<circle cx="348" cy="80" r="3" fill="#1F77B4"/>
</g>
<g class="fastchart"><rect x="440" y="30" width="321" height="251" fill="#FFFFFF"/>
<line x1="440" y1="30" x2="760" y2="30" stroke="#666666"/>
<line x1="440" y1="280" x2="760" y2="280" stroke="#666666"/>
<line x1="440" y1="30" x2="440" y2="280" stroke="#666666"/>
<line x1="760" y1="30" x2="760" y2="280" stroke="#666666"/>
<g transform="translate(554.1 20)" fill="#222222"><path d="M3.66 -5.62L3.66 0L1.7 0L1.7 -13.62L5.61 -13.62Q6.92 -13.62 7.86 -13.36Q8.81 -13.09 9.44 -12.59Q10.06 -12.11 10.36 -11.41Q10.66 -10.7 10.66 -9.83Q10.66 -9.11 10.42 -8.48Q10.2 -7.86 9.78 -7.36Q9.36 -6.86 8.73 -6.5Q8.12 -6.14 7.36 -5.95Q7.72 -5.73 7.98 -5.34L11.88 0L10.12 0Q9.59 0 9.34 -0.42L5.92 -5.2Q5.77 -5.42 5.58 -5.52Q5.39 -5.62 5 -5.62L3.66 -5.62M3.66 -7.06L5.53 -7.06Q6.33 -7.06 6.92 -7.25Q7.53 -7.44 7.92 -7.78Q8.33 -8.14 8.53 -8.61Q8.73 -9.09 8.73 -9.69Q8.73 -10.88 7.95 -11.48Q7.17 -12.09 5.61 -12.09L3.66 -12.09L3.66 -7.06M15.16 -9.64L15.16 0L13.34 0L13.34 -9.64L15.16 -9.64M15.5 -12.64Q15.5 -12.38 15.41 -12.16Q15.31 -11.94 15.12 -11.77Q14.95 -11.59 14.72 -11.48Q14.48 -11.39 14.23 -11.39Q13.98 -11.39 13.77 -11.48Q13.55 -11.59 13.38 -11.77Q13.2 -11.94 13.09 -12.16Q13 -12.38 13 -12.64Q13 -12.89 13.09 -13.12Q13.2 -13.36 13.38 -13.53Q13.55 -13.7 13.77 -13.8Q13.98 -13.91 14.23 -13.91Q14.48 -13.91 14.72 -13.8Q14.95 -13.7 15.12 -13.53Q15.31 -13.36 15.41 -13.12Q15.5 -12.89 15.5 -12.64M21.23 -9.8Q21.86 -9.8 22.39 -9.66Q22.94 -9.53 23.39 -9.27L26.06 -9.27L26.06 -8.61Q26.06 -8.27 25.64 -8.17L24.58 -8.03Q24.88 -7.42 24.88 -6.7Q24.88 -5.98 24.61 -5.41Q24.34 -4.84 23.86 -4.44Q23.38 -4.03 22.7 -3.81Q22.03 -3.59 21.23 -3.59Q20.58 -3.59 20 -3.73Q19.41 -3.38 19.41 -2.94Q19.41 -2.61 19.69 -2.44Q19.97 -2.27 20.42 -2.19Q20.88 -2.12 21.45 -2.09Q22.03 -2.08 22.64 -2.03Q23.25 -2 23.83 -1.89Q24.41 -1.78 24.86 -1.53Q25.33 -1.3 25.61 -0.88Q25.89 -0.47 25.89 0.2Q25.89 0.84 25.58 1.42Q25.27 2 24.67 2.45Q24.09 2.91 23.25 3.17Q22.41 3.45 21.34 3.45Q20.28 3.45 19.48 3.25Q18.69 3.05 18.16 2.69Q17.64 2.34 17.38 1.88Q17.11 1.42 17.11 0.91Q17.11 0.2 17.55 -0.28Q18 -0.78 18.77 -1.05Q18.34 -1.25 18.09 -1.58Q17.84 -1.91 17.84 -2.44Q17.84 -2.66 17.92 -2.88Q18 -3.09 18.16 -3.31Q18.31 -3.55 18.55 -3.73Q18.78 -3.94 19.08 -4.09Q18.38 -4.5 17.95 -5.16Q17.55 -5.81 17.55 -6.7Q17.55 -7.41 17.83 -7.97Q18.11 -8.55 18.59 -8.95Q19.08 -9.36 19.75 -9.58Q20.44 -9.8 21.23 -9.8M24.22 0.5Q24.22 0.16 24.02 -0.05Q23.83 -0.25 23.5 -0.38Q23.17 -0.5 22.73 -0.55Q22.3 -0.59 21.81 -0.62Q21.33 -0.66 20.81 -0.69Q20.31 -0.72 19.84 -0.78Q19.33 -0.53 19 -0.17Q18.69 0.19 18.69 0.67Q18.69 0.98 18.84 1.25Q19 1.53 19.33 1.72Q19.66 1.92 20.16 2.03Q20.67 2.14 21.38 2.14Q22.06 2.14 22.59 2.02Q23.12 1.91 23.48 1.69Q23.84 1.47 24.03 1.16Q24.22 0.86 24.22 0.5M21.23 -4.78Q21.75 -4.78 22.12 -4.91Q22.5 -5.05 22.75 -5.3Q23.02 -5.55 23.14 -5.89Q23.27 -6.23 23.27 -6.66Q23.27 -7.5 22.75 -8Q22.23 -8.52 21.23 -8.52Q20.25 -8.52 19.72 -8Q19.2 -7.5 19.2 -6.66Q19.2 -6.23 19.33 -5.89Q19.47 -5.56 19.72 -5.3Q19.98 -5.05 20.36 -4.91Q20.75 -4.78 21.23 -4.78M27.77 0L27.77 -14.02L29.56 -14.02L29.56 -8.41Q30.17 -9.03 30.91 -9.41Q31.66 -9.8 32.62 -9.8Q33.42 -9.8 34.02 -9.53Q34.62 -9.27 35.03 -8.78Q35.44 -8.3 35.64 -7.62Q35.86 -6.97 35.86 -6.14L35.86 0L34.05 0L34.05 -6.14Q34.05 -7.19 33.56 -7.77Q33.08 -8.36 32.09 -8.36Q31.36 -8.36 30.73 -8.02Q30.11 -7.67 29.56 -7.08L29.56 0L27.77 0M41.39 0.16Q40.23 0.16 39.61 -0.48Q38.98 -1.14 38.98 -2.36L38.98 -8.17L37.84 -8.17Q37.69 -8.17 37.58 -8.27Q37.48 -8.38 37.48 -8.56L37.48 -9.28L39.05 -9.48L39.45 -12.41Q39.48 -12.56 39.59 -12.64Q39.7 -12.73 39.88 -12.73L40.78 -12.73L40.78 -9.48L43.53 -9.48L43.53 -8.17L40.78 -8.17L40.78 -2.48Q40.78 -1.91 41.06 -1.61Q41.34 -1.33 41.8 -1.33Q42.06 -1.33 42.25 -1.39Q42.44 -1.45 42.56 -1.53Q42.7 -1.62 42.8 -1.69Q42.91 -1.75 42.98 -1.75Q43.06 -1.75 43.11 -1.72Q43.17 -1.69 43.22 -1.59L43.75 -0.72Q43.3 -0.3 42.67 -0.06Q42.06 0.16 41.39 0.16M56.8 -7.86Q56.72 -7.77 56.62 -7.7Q56.55 -7.64 56.41 -7.64Q56.27 -7.64 56.09 -7.77Q55.92 -7.89 55.67 -8.02Q55.42 -8.16 55.06 -8.27Q54.7 -8.39 54.17 -8.39Q53.48 -8.39 52.95 -8.14Q52.42 -7.91 52.06 -7.44Q51.7 -6.97 51.52 -6.31Q51.34 -5.66 51.34 -4.83Q51.34 -3.98 51.53 -3.31Q51.73 -2.66 52.09 -2.19Q52.45 -1.73 52.95 -1.5Q53.47 -1.27 54.09 -1.27Q54.7 -1.27 55.09 -1.41Q55.48 -1.56 55.73 -1.73Q56 -1.91 56.17 -2.05Q56.34 -2.19 56.53 -2.19Q56.75 -2.19 56.86 -2.03L57.38 -1.38Q57.05 -0.97 56.64 -0.69Q56.23 -0.41 55.77 -0.22Q55.3 -0.03 54.8 0.05Q54.3 0.14 53.77 0.14Q52.86 0.14 52.08 -0.19Q51.31 -0.53 50.73 -1.17Q50.16 -1.81 49.83 -2.73Q49.5 -3.66 49.5 -4.83Q49.5 -5.91 49.8 -6.81Q50.11 -7.72 50.69 -8.38Q51.27 -9.05 52.11 -9.42Q52.97 -9.8 54.06 -9.8Q55.09 -9.8 55.88 -9.45Q56.67 -9.12 57.27 -8.53L56.8 -7.86M59.12 0L59.12 -14.02L60.92 -14.02L60.92 -8.41Q61.53 -9.03 62.27 -9.41Q63.02 -9.8 63.98 -9.8Q64.78 -9.8 65.38 -9.53Q65.98 -9.27 66.39 -8.78Q66.8 -8.3 67 -7.62Q67.22 -6.97 67.22 -6.14L67.22 0L65.41 0L65.41 -6.14Q65.41 -7.19 64.92 -7.77Q64.44 -8.36 63.45 -8.36Q62.72 -8.36 62.09 -8.02Q61.47 -7.67 60.92 -7.08L60.92 0L59.12 0M75.91 0Q75.64 0 75.5 -0.08Q75.36 -0.17 75.28 -0.42L75.08 -1.28Q74.7 -0.94 74.34 -0.67Q73.98 -0.41 73.59 -0.22Q73.2 -0.03 72.75 0.06Q72.3 0.16 71.75 0.16Q71.19 0.16 70.69 0Q70.19 -0.16 69.83 -0.48Q69.47 -0.81 69.25 -1.28Q69.03 -1.77 69.03 -2.42Q69.03 -3 69.34 -3.52Q69.66 -4.03 70.34 -4.44Q71.05 -4.86 72.17 -5.12Q73.3 -5.39 74.94 -5.44L74.94 -6.16Q74.94 -7.25 74.47 -7.8Q74 -8.36 73.09 -8.36Q72.47 -8.36 72.06 -8.2Q71.66 -8.05 71.34 -7.86Q71.05 -7.67 70.81 -7.52Q70.59 -7.38 70.36 -7.38Q70.17 -7.38 70.05 -7.47Q69.92 -7.58 69.83 -7.7L69.5 -8.3Q70.31 -9.05 71.25 -9.42Q72.19 -9.81 73.31 -9.81Q74.12 -9.81 74.77 -9.55Q75.41 -9.28 75.83 -8.8Q76.27 -8.33 76.48 -7.64Q76.72 -6.97 76.72 -6.16L76.72 0L75.91 0M72.3 -1.11Q72.72 -1.11 73.08 -1.19Q73.45 -1.28 73.77 -1.44Q74.09 -1.61 74.38 -1.84Q74.66 -2.08 74.94 -2.36L74.94 -4.3Q73.81 -4.27 73 -4.12Q72.2 -3.98 71.7 -3.75Q71.22 -3.53 70.98 -3.2Q70.75 -2.89 70.75 -2.52Q70.75 -2.14 70.88 -1.88Q71 -1.61 71.2 -1.44Q71.41 -1.27 71.69 -1.19Q71.97 -1.11 72.3 -1.11M79.23 0L79.23 -9.64L80.27 -9.64Q80.56 -9.64 80.67 -9.53Q80.78 -9.44 80.81 -9.16L80.94 -7.75Q81.39 -8.72 82.05 -9.27Q82.72 -9.81 83.66 -9.81Q83.97 -9.81 84.25 -9.75Q84.53 -9.69 84.73 -9.53L84.61 -8.19Q84.55 -7.94 84.31 -7.94Q84.17 -7.94 83.91 -7.98Q83.66 -8.05 83.34 -8.05Q82.89 -8.05 82.55 -7.91Q82.2 -7.78 81.92 -7.52Q81.64 -7.27 81.42 -6.89Q81.22 -6.53 81.03 -6.05L81.03 0L79.23 0M89.17 0.16Q88.02 0.16 87.39 -0.48Q86.77 -1.14 86.77 -2.36L86.77 -8.17L85.62 -8.17Q85.47 -8.17 85.36 -8.27Q85.27 -8.38 85.27 -8.56L85.27 -9.28L86.83 -9.48L87.23 -12.41Q87.27 -12.56 87.38 -12.64Q87.48 -12.73 87.66 -12.73L88.56 -12.73L88.56 -9.48L91.31 -9.48L91.31 -8.17L88.56 -8.17L88.56 -2.48Q88.56 -1.91 88.84 -1.61Q89.12 -1.33 89.58 -1.33Q89.84 -1.33 90.03 -1.39Q90.22 -1.45 90.34 -1.53Q90.48 -1.62 90.58 -1.69Q90.69 -1.75 90.77 -1.75Q90.84 -1.75 90.89 -1.72Q90.95 -1.69 91 -1.59L91.53 -0.72Q91.08 -0.3 90.45 -0.06Q89.84 0.16 89.17 0.16"/></g>
<line x1="440" y1="30" x2="440" y2="280" stroke="#333333"/>
<line x1="441" y1="280" x2="760" y2="280" stroke="#E0E0E0"/>
<line x1="436" y1="280" x2="439" y2="280" stroke="#333333"/>
<g transform="translate(425.5 283)" fill="#222222"><path d="M7.16 -4.67Q7.16 -3.44 6.89 -2.55Q6.64 -1.66 6.17 -1.06Q5.72 -0.47 5.09 -0.19Q4.48 0.09 3.77 0.09Q3.05 0.09 2.42 -0.19Q1.81 -0.47 1.34 -1.06Q0.89 -1.66 0.62 -2.55Q0.38 -3.44 0.38 -4.67Q0.38 -5.89 0.62 -6.78Q0.89 -7.69 1.34 -8.27Q1.81 -8.86 2.42 -9.14Q3.05 -9.44 3.77 -9.44Q4.48 -9.44 5.09 -9.14Q5.72 -8.86 6.17 -8.27Q6.64 -7.69 6.89 -6.78Q7.16 -5.89 7.16 -4.67M5.88 -4.67Q5.88 -5.72 5.7 -6.44Q5.53 -7.16 5.23 -7.58Q4.95 -8.02 4.56 -8.2Q4.17 -8.39 3.77 -8.39Q3.34 -8.39 2.95 -8.2Q2.58 -8.02 2.28 -7.58Q2 -7.16 1.83 -6.44Q1.66 -5.72 1.66 -4.67Q1.66 -3.61 1.83 -2.89Q2 -2.17 2.28 -1.73Q2.58 -1.31 2.95 -1.12Q3.34 -0.94 3.77 -0.94Q4.17 -0.94 4.56 -1.12Q4.95 -1.31 5.23 -1.73Q5.53 -2.17 5.7 -2.89Q5.88 -3.61 5.88 -4.67"/></g>
<line x1="441" y1="230" x2="760" y2="230" stroke="#E0E0E0"/>
<line x1="436" y1="230" x2="439" y2="230" stroke="#333333"/>
<g transform="translate(425.5 233)" fill="#222222"><path d="M6.41 -8.8Q6.41 -8.53 6.23 -8.36Q6.08 -8.19 5.69 -8.19L2.81 -8.19L2.41 -5.83Q3.11 -5.98 3.72 -5.98Q4.44 -5.98 5 -5.77Q5.56 -5.55 5.94 -5.17Q6.31 -4.8 6.5 -4.27Q6.69 -3.75 6.69 -3.16Q6.69 -2.42 6.42 -1.81Q6.17 -1.2 5.72 -0.78Q5.27 -0.36 4.64 -0.12Q4.03 0.11 3.33 0.11Q2.91 0.11 2.52 0.02Q2.14 -0.06 1.81 -0.2Q1.48 -0.34 1.2 -0.52Q0.92 -0.7 0.7 -0.89L1.08 -1.44Q1.2 -1.61 1.41 -1.61Q1.55 -1.61 1.7 -1.5Q1.86 -1.41 2.09 -1.28Q2.33 -1.16 2.64 -1.05Q2.95 -0.95 3.39 -0.95Q3.86 -0.95 4.23 -1.11Q4.62 -1.27 4.89 -1.55Q5.17 -1.83 5.31 -2.22Q5.45 -2.62 5.45 -3.09Q5.45 -3.53 5.33 -3.88Q5.2 -4.22 4.95 -4.45Q4.7 -4.7 4.33 -4.83Q3.95 -4.95 3.45 -4.95Q2.77 -4.95 1.97 -4.72L1.2 -4.94L1.95 -9.33L6.41 -9.33L6.41 -8.8"/></g>
<line x1="441" y1="180" x2="760" y2="180" stroke="#E0E0E0"/>
<line x1="436" y1="180" x2="439" y2="180" stroke="#333333"/>
<g transform="translate(417.9 183)" fill="#222222"><path d="M1.61 -0.94L3.59 -0.94L3.59 -7.14Q3.59 -7.42 3.61 -7.73L2 -6.36Q1.91 -6.28 1.81 -6.27Q1.73 -6.25 1.66 -6.27Q1.58 -6.28 1.52 -6.31Q1.45 -6.36 1.42 -6.41L1.03 -6.94L3.83 -9.34L4.83 -9.34L4.83 -0.94L6.64 -0.94L6.64 0L1.61 0L1.61 -0.94M14.7 -4.67Q14.7 -3.44 14.44 -2.55Q14.19 -1.66 13.72 -1.06Q13.27 -0.47 12.64 -0.19Q12.03 0.09 11.31 0.09Q10.59 0.09 9.97 -0.19Q9.36 -0.47 8.89 -1.06Q8.44 -1.66 8.17 -2.55Q7.92 -3.44 7.92 -4.67Q7.92 -5.89 8.17 -6.78Q8.44 -7.69 8.89 -8.27Q9.36 -8.86 9.97 -9.14Q10.59 -9.44 11.31 -9.44Q12.03 -9.44 12.64 -9.14Q13.27 -8.86 13.72 -8.27Q14.19 -7.69 14.44 -6.78Q14.7 -5.89 14.7 -4.67M13.42 -4.67Q13.42 -5.72 13.25 -6.44Q13.08 -7.16 12.78 -7.58Q12.5 -8.02 12.11 -8.2Q11.72 -8.39 11.31 -8.39Q10.89 -8.39 10.5 -8.2Q10.12 -8.02 9.83 -7.58Q9.55 -7.16 9.38 -6.44Q9.2 -5.72 9.2 -4.67Q9.2 -3.61 9.38 -2.89Q9.55 -2.17 9.83 -1.73Q10.12 -1.31 10.5 -1.12Q10.89 -0.94 11.31 -0.94Q11.72 -0.94 12.11 -1.12Q12.5 -1.31 12.78 -1.73Q13.08 -2.17 13.25 -2.89Q13.42 -3.61 13.42 -4.67"/></g>
<line x1="441" y1="130" x2="760" y2="130" stroke="#E0E0E0"/>
<line x1="436" y1="130" x2="439" y2="130" stroke="#333333"/>
<g transform="translate(417.9 133)" fill="#222222"><path d="M1.61 -0.94L3.59 -0.94L3.59 -7.14Q3.59 -7.42 3.61 -7.73L2 -6.36Q1.91 -6.28 1.81 -6.27Q1.73 -6.25 1.66 -6.27Q1.58 -6.28 1.52 -6.31Q1.45 -6.36 1.42 -6.41L1.03 -6.94L3.83 -9.34L4.83 -9.34L4.83 -0.94L6.64 -0.94L6.64 0L1.61 0L1.61 -0.94M13.95 -8.8Q13.95 -8.53 13.78 -8.36Q13.62 -8.19 13.23 -8.19L10.36 -8.19L9.95 -5.83Q10.66 -5.98 11.27 -5.98Q11.98 -5.98 12.55 -5.77Q13.11 -5.55 13.48 -5.17Q13.86 -4.8 14.05 -4.27Q14.23 -3.75 14.23 -3.16Q14.23 -2.42 13.97 -1.81Q13.72 -1.2 13.27 -0.78Q12.81 -0.36 12.19 -0.12Q11.58 0.11 10.88 0.11Q10.45 0.11 10.06 0.02Q9.69 -0.06 9.36 -0.2Q9.03 -0.34 8.75 -0.52Q8.47 -0.7 8.25 -0.89L8.62 -1.44Q8.75 -1.61 8.95 -1.61Q9.09 -1.61 9.25 -1.5Q9.41 -1.41 9.64 -1.28Q9.88 -1.16 10.19 -1.05Q10.5 -0.95 10.94 -0.95Q11.41 -0.95 11.78 -1.11Q12.17 -1.27 12.44 -1.55Q12.72 -1.83 12.86 -2.22Q13 -2.62 13 -3.09Q13 -3.53 12.88 -3.88Q12.75 -4.22 12.5 -4.45Q12.25 -4.7 11.88 -4.83Q11.5 -4.95 11 -4.95Q10.31 -4.95 9.52 -4.72L8.75 -4.94L9.5 -9.33L13.95 -9.33L13.95 -8.8"/></g>
<line x1="441" y1="80" x2="760" y2="80" stroke="#E0E0E0"/>
<line x1="436" y1="80" x2="439" y2="80" stroke="#333333"/>
<g transform="translate(417.9 83)" fill="#222222"><path d="M3.84 -9.44Q4.45 -9.44 4.97 -9.25Q5.48 -9.08 5.86 -8.73Q6.23 -8.41 6.44 -7.92Q6.66 -7.44 6.66 -6.83Q6.66 -6.31 6.5 -5.86Q6.36 -5.42 6.09 -5.02Q5.83 -4.61 5.48 -4.22Q5.14 -3.84 4.75 -3.45L2.34 -1Q2.61 -1.08 2.88 -1.12Q3.16 -1.17 3.41 -1.17L6.41 -1.17Q6.61 -1.17 6.72 -1.05Q6.84 -0.94 6.84 -0.75L6.84 0L0.59 0L0.59 -0.42Q0.59 -0.55 0.64 -0.69Q0.7 -0.83 0.81 -0.94L3.78 -3.92Q4.14 -4.3 4.44 -4.64Q4.75 -4.98 4.95 -5.33Q5.17 -5.67 5.28 -6.03Q5.41 -6.39 5.41 -6.78Q5.41 -7.19 5.28 -7.48Q5.16 -7.78 4.94 -7.98Q4.72 -8.19 4.42 -8.28Q4.12 -8.38 3.78 -8.38Q3.44 -8.38 3.14 -8.27Q2.86 -8.17 2.62 -7.98Q2.41 -7.81 2.25 -7.56Q2.11 -7.33 2.05 -7.05Q1.95 -6.8 1.81 -6.72Q1.67 -6.64 1.42 -6.67L0.78 -6.8Q0.88 -7.44 1.12 -7.92Q1.39 -8.42 1.8 -8.75Q2.2 -9.09 2.72 -9.27Q3.25 -9.44 3.84 -9.44M14.7 -4.67Q14.7 -3.44 14.44 -2.55Q14.19 -1.66 13.72 -1.06Q13.27 -0.47 12.64 -0.19Q12.03 0.09 11.31 0.09Q10.59 0.09 9.97 -0.19Q9.36 -0.47 8.89 -1.06Q8.44 -1.66 8.17 -2.55Q7.92 -3.44 7.92 -4.67Q7.92 -5.89 8.17 -6.78Q8.44 -7.69 8.89 -8.27Q9.36 -8.86 9.97 -9.14Q10.59 -9.44 11.31 -9.44Q12.03 -9.44 12.64 -9.14Q13.27 -8.86 13.72 -8.27Q14.19 -7.69 14.44 -6.78Q14.7 -5.89 14.7 -4.67M13.42 -4.67Q13.42 -5.72 13.25 -6.44Q13.08 -7.16 12.78 -7.58Q12.5 -8.02 12.11 -8.2Q11.72 -8.39 11.31 -8.39Q10.89 -8.39 10.5 -8.2Q10.12 -8.02 9.83 -7.58Q9.55 -7.16 9.38 -6.44Q9.2 -5.72 9.2 -4.67Q9.2 -3.61 9.38 -2.89Q9.55 -2.17 9.83 -1.73Q10.12 -1.31 10.5 -1.12Q10.89 -0.94 11.31 -0.94Q11.72 -0.94 12.11 -1.12Q12.5 -1.31 12.78 -1.73Q13.08 -2.17 13.25 -2.89Q13.42 -3.61 13.42 -4.67"/></g>
<line x1="441" y1="30" x2="760" y2="30" stroke="#E0E0E0"/>
<line x1="436" y1="30" x2="439" y2="30" stroke="#333333"/>
<g transform="translate(417.9 33)" fill="#222222"><path d="M3.84 -9.44Q4.45 -9.44 4.97 -9.25Q5.48 -9.08 5.86 -8.73Q6.23 -8.41 6.44 -7.92Q6.66 -7.44 6.66 -6.83Q6.66 -6.31 6.5 -5.86Q6.36 -5.42 6.09 -5.02Q5.83 -4.61 5.48 -4.22Q5.14 -3.84 4.75 -3.45L2.34 -1Q2.61 -1.08 2.88 -1.12Q3.16 -1.17 3.41 -1.17L6.41 -1.17Q6.61 -1.17 6.72 -1.05Q6.84 -0.94 6.84 -0.75L6.84 0L0.59 0L0.59 -0.42Q0.59 -0.55 0.64 -0.69Q0.7 -0.83 0.81 -0.94L3.78 -3.92Q4.14 -4.3 4.44 -4.64Q4.75 -4.98 4.95 -5.33Q5.17 -5.67 5.28 -6.03Q5.41 -6.39 5.41 -6.78Q5.41 -7.19 5.28 -7.48Q5.16 -7.78 4.94 -7.98Q4.72 -8.19 4.42 -8.28Q4.12 -8.38 3.78 -8.38Q3.44 -8.38 3.14 -8.27Q2.86 -8.17 2.62 -7.98Q2.41 -7.81 2.25 -7.56Q2.11 -7.33 2.05 -7.05Q1.95 -6.8 1.81 -6.72Q1.67 -6.64 1.42 -6.67L0.78 -6.8Q0.88 -7.44 1.12 -7.92Q1.39 -8.42 1.8 -8.75Q2.2 -9.09 2.72 -9.27Q3.25 -9.44 3.84 -9.44M13.95 -8.8Q13.95 -8.53 13.78 -8.36Q13.62 -8.19 13.23 -8.19L10.36 -8.19L9.95 -5.83Q10.66 -5.98 11.27 -5.98Q11.98 -5.98 12.55 -5.77Q13.11 -5.55 13.48 -5.17Q13.86 -4.8 14.05 -4.27Q14.23 -3.75 14.23 -3.16Q14.23 -2.42 13.97 -1.81Q13.72 -1.2 13.27 -0.78Q12.81 -0.36 12.19 -0.12Q11.58 0.11 10.88 0.11Q10.45 0.11 10.06 0.02Q9.69 -0.06 9.36 -0.2Q9.03 -0.34 8.75 -0.52Q8.47 -0.7 8.25 -0.89L8.62 -1.44Q8.75 -1.61 8.95 -1.61Q9.09 -1.61 9.25 -1.5Q9.41 -1.41 9.64 -1.28Q9.88 -1.16 10.19 -1.05Q10.5 -0.95 10.94 -0.95Q11.41 -0.95 11.78 -1.11Q12.17 -1.27 12.44 -1.55Q12.72 -1.83 12.86 -2.22Q13 -2.62 13 -3.09Q13 -3.53 12.88 -3.88Q12.75 -4.22 12.5 -4.45Q12.25 -4.7 11.88 -4.83Q11.5 -4.95 11 -4.95Q10.31 -4.95 9.52 -4.72L8.75 -4.94L9.5 -9.33L13.95 -9.33L13.95 -8.8"/></g>
<line x1="440" y1="280" x2="760" y2="280" stroke="#333333"/>
<line x1="472" y1="281" x2="472" y2="284" stroke="#333333"/>
<g transform="translate(468.2 301)" fill="#222222"><path d="M7.16 -4.67Q7.16 -3.44 6.89 -2.55Q6.64 -1.66 6.17 -1.06Q5.72 -0.47 5.09 -0.19Q4.48 0.09 3.77 0.09Q3.05 0.09 2.42 -0.19Q1.81 -0.47 1.34 -1.06Q0.89 -1.66 0.62 -2.55Q0.38 -3.44 0.38 -4.67Q0.38 -5.89 0.62 -6.78Q0.89 -7.69 1.34 -8.27Q1.81 -8.86 2.42 -9.14Q3.05 -9.44 3.77 -9.44Q4.48 -9.44 5.09 -9.14Q5.72 -8.86 6.17 -8.27Q6.64 -7.69 6.89 -6.78Q7.16 -5.89 7.16 -4.67M5.88 -4.67Q5.88 -5.72 5.7 -6.44Q5.53 -7.16 5.23 -7.58Q4.95 -8.02 4.56 -8.2Q4.17 -8.39 3.77 -8.39Q3.34 -8.39 2.95 -8.2Q2.58 -8.02 2.28 -7.58Q2 -7.16 1.83 -6.44Q1.66 -5.72 1.66 -4.67Q1.66 -3.61 1.83 -2.89Q2 -2.17 2.28 -1.73Q2.58 -1.31 2.95 -1.12Q3.34 -0.94 3.77 -0.94Q4.17 -0.94 4.56 -1.12Q4.95 -1.31 5.23 -1.73Q5.53 -2.17 5.7 -2.89Q5.88 -3.61 5.88 -4.67"/></g>
<line x1="536" y1="281" x2="536" y2="284" stroke="#333333"/>
<g transform="translate(532.2 301)" fill="#222222"><path d="M1.61 -0.94L3.59 -0.94L3.59 -7.14Q3.59 -7.42 3.61 -7.73L2 -6.36Q1.91 -6.28 1.81 -6.27Q1.73 -6.25 1.66 -6.27Q1.58 -6.28 1.52 -6.31Q1.45 -6.36 1.42 -6.41L1.03 -6.94L3.83 -9.34L4.83 -9.34L4.83 -0.94L6.64 -0.94L6.64 0L1.61 0L1.61 -0.94"/></g>
<line x1="600" y1="281" x2="600" y2="284" stroke="#333333"/>
<g transform="translate(596.2 301)" fill="#222222"><path d="M3.84 -9.44Q4.45 -9.44 4.97 -9.25Q5.48 -9.08 5.86 -8.73Q6.23 -8.41 6.44 -7.92Q6.66 -7.44 6.66 -6.83Q6.66 -6.31 6.5 -5.86Q6.36 -5.42 6.09 -5.02Q5.83 -4.61 5.48 -4.22Q5.14 -3.84 4.75 -3.45L2.34 -1Q2.61 -1.08 2.88 -1.12Q3.16 -1.17 3.41 -1.17L6.41 -1.17Q6.61 -1.17 6.72 -1.05Q6.84 -0.94 6.84 -0.75L6.84 0L0.59 0L0.59 -0.42Q0.59 -0.55 0.64 -0.69Q0.7 -0.83 0.81 -0.94L3.78 -3.92Q4.14 -4.3 4.44 -4.64Q4.75 -4.98 4.95 -5.33Q5.17 -5.67 5.28 -6.03Q5.41 -6.39 5.41 -6.78Q5.41 -7.19 5.28 -7.48Q5.16 -7.78 4.94 -7.98Q4.72 -8.19 4.42 -8.28Q4.12 -8.38 3.78 -8.38Q3.44 -8.38 3.14 -8.27Q2.86 -8.17 2.62 -7.98Q2.41 -7.81 2.25 -7.56Q2.11 -7.33 2.05 -7.05Q1.95 -6.8 1.81 -6.72Q1.67 -6.64 1.42 -6.67L0.78 -6.8Q0.88 -7.44 1.12 -7.92Q1.39 -8.42 1.8 -8.75Q2.2 -9.09 2.72 -9.27Q3.25 -9.44 3.84 -9.44"/></g>
<line x1="664" y1="281" x2="664" y2="284" stroke="#333333"/>
<g transform="translate(660.2 301)" fill="#222222"><path d="M3.89 -9.44Q4.5 -9.44 5 -9.27Q5.5 -9.09 5.86 -8.77Q6.22 -8.45 6.42 -8.02Q6.62 -7.58 6.62 -7.05Q6.62 -6.59 6.52 -6.25Q6.41 -5.91 6.19 -5.64Q5.98 -5.38 5.69 -5.2Q5.39 -5.03 5.03 -4.91Q5.92 -4.66 6.38 -4.09Q6.83 -3.55 6.83 -2.69Q6.83 -2.03 6.58 -1.52Q6.34 -1 5.92 -0.64Q5.5 -0.28 4.92 -0.08Q4.36 0.11 3.72 0.11Q2.98 0.11 2.45 -0.08Q1.92 -0.27 1.55 -0.58Q1.19 -0.91 0.94 -1.34Q0.7 -1.8 0.55 -2.33L1.08 -2.56Q1.28 -2.66 1.47 -2.61Q1.67 -2.58 1.77 -2.39Q1.86 -2.2 1.98 -1.95Q2.11 -1.7 2.33 -1.47Q2.55 -1.25 2.88 -1.09Q3.2 -0.95 3.7 -0.95Q4.17 -0.95 4.53 -1.11Q4.89 -1.27 5.12 -1.5Q5.36 -1.75 5.47 -2.05Q5.59 -2.36 5.59 -2.66Q5.59 -3.03 5.5 -3.33Q5.41 -3.64 5.14 -3.86Q4.89 -4.08 4.44 -4.2Q3.98 -4.33 3.25 -4.33L3.25 -5.22Q3.84 -5.23 4.25 -5.34Q4.67 -5.47 4.92 -5.67Q5.19 -5.89 5.3 -6.19Q5.42 -6.48 5.42 -6.83Q5.42 -7.22 5.3 -7.5Q5.19 -7.8 4.97 -7.98Q4.75 -8.19 4.45 -8.28Q4.17 -8.38 3.83 -8.38Q3.48 -8.38 3.19 -8.27Q2.91 -8.17 2.67 -7.98Q2.45 -7.81 2.3 -7.56Q2.14 -7.33 2.08 -7.05Q1.98 -6.8 1.84 -6.72Q1.72 -6.64 1.47 -6.67L0.81 -6.8Q0.91 -7.44 1.17 -7.92Q1.44 -8.42 1.84 -8.75Q2.25 -9.09 2.77 -9.27Q3.28 -9.44 3.89 -9.44"/></g>
<line x1="728" y1="281" x2="728" y2="284" stroke="#333333"/>
<g transform="translate(724.2 301)" fill="#222222"><path d="M5.8 -3.39L7.17 -3.39L7.17 -2.67Q7.17 -2.56 7.11 -2.48Q7.05 -2.42 6.91 -2.42L5.8 -2.42L5.8 0L4.72 0L4.72 -2.42L0.62 -2.42Q0.48 -2.42 0.38 -2.5Q0.28 -2.58 0.27 -2.7L0.14 -3.33L4.66 -9.33L5.8 -9.33L5.8 -3.39M4.72 -7.09Q4.72 -7.28 4.73 -7.48Q4.75 -7.69 4.78 -7.91L1.47 -3.39L4.72 -3.39L4.72 -7.09"/></g>
<rect x="450" y="160" width="44" height="121" fill="#1F77B4"/>
<rect x="514" y="100" width="44" height="181" fill="#1F77B4"/>
<rect x="578" y="130" width="44" height="151" fill="#1F77B4"/>
<rect x="642" y="40" width="44" height="241" fill="#1F77B4"/>
<rect x="706" y="70" width="44" height="211" fill="#1F77B4"/>
</g>
</svg>