<?xml version="1.0" encoding="UTF-8"?>
<svg xmlns="http://www.w3.org/2000/svg" width="640" height="240" viewBox="0 0 640 240"><rect width="100%" height="100%" fill="#FFFFFF"/><g class="fastchart"><rect x="0" y="0" width="320" height="240" fill="#FFFFFF"/>
<rect x="64" y="37" width="224" height="170" fill="#FFFFFF"/>
<line x1="64" y1="37" x2="287" y2="37" stroke="#666666"/>
<line x1="64" y1="206" x2="287" y2="206" stroke="#666666"/>
<line x1="64" y1="37" x2="64" y2="206" stroke="#666666"/>
<line x1="287" y1="37" x2="287" y2="206" stroke="#666666"/>
<g transform="translate(123.4 27)" fill="#222222"><path d="M3.66 -5.62L3.66 0L1.7 0L1.7 -13.62L5.61 -13.62Q6.92 -13.62 7.86 -13.36Q8.81 -13.09 9.44 -12.59Q10.06 -12.11 10.36 -11.41Q10.66 -10.7 10.66 -9.83Q10.66 -9.11 10.42 -8.48Q10.2 -7.86 9.78 -7.36Q9.36 -6.86 8.73 -6.5Q8.12 -6.14 7.36 -5.95Q7.72 -5.73 7.98 -5.34L11.88 0L10.12 0Q9.59 0 9.34 -0.42L5.92 -5.2Q5.77 -5.42 5.58 -5.52Q5.39 -5.62 5 -5.62L3.66 -5.62M3.66 -7.06L5.53 -7.06Q6.33 -7.06 6.92 -7.25Q7.53 -7.44 7.92 -7.78Q8.33 -8.14 8.53 -8.61Q8.73 -9.09 8.73 -9.69Q8.73 -10.88 7.95 -11.48Q7.17 -12.09 5.61 -12.09L3.66 -12.09L3.66 -7.06M17.25 -9.8Q18.12 -9.8 18.86 -9.5Q19.59 -9.22 20.14 -8.66Q20.69 -8.11 20.98 -7.3Q21.3 -6.5 21.3 -5.47Q21.3 -5.05 21.2 -4.91Q21.11 -4.77 20.86 -4.77L14.5 -4.77Q14.53 -3.89 14.75 -3.23Q14.97 -2.58 15.36 -2.14Q15.75 -1.7 16.28 -1.48Q16.83 -1.28 17.48 -1.28Q18.12 -1.28 18.56 -1.42Q19.02 -1.56 19.34 -1.73Q19.67 -1.91 19.89 -2.05Q20.12 -2.19 20.3 -2.19Q20.53 -2.19 20.64 -2.03L21.16 -1.38Q20.81 -0.97 20.38 -0.69Q19.94 -0.41 19.44 -0.22Q18.94 -0.03 18.39 0.05Q17.86 0.14 17.34 0.14Q16.34 0.14 15.48 -0.2Q14.64 -0.55 14.02 -1.19Q13.41 -1.84 13.06 -2.8Q12.72 -3.77 12.72 -5.03Q12.72 -6.03 13.03 -6.89Q13.34 -7.77 13.92 -8.41Q14.52 -9.05 15.34 -9.42Q16.19 -9.8 17.25 -9.8M17.27 -8.47Q16.08 -8.47 15.41 -7.78Q14.73 -7.09 14.56 -5.88L19.67 -5.88Q19.67 -6.45 19.52 -6.92Q19.36 -7.41 19.05 -7.73Q18.73 -8.08 18.28 -8.27Q17.84 -8.47 17.27 -8.47M27.73 0L26.11 0L22.19 -9.64L23.67 -9.64Q23.89 -9.64 24.03 -9.53Q24.17 -9.44 24.22 -9.28L26.56 -3.27Q26.69 -2.91 26.77 -2.55Q26.86 -2.19 26.94 -1.84Q27.02 -2.19 27.11 -2.53Q27.2 -2.89 27.33 -3.27L29.72 -9.28Q29.77 -9.44 29.91 -9.53Q30.05 -9.64 30.23 -9.64L31.66 -9.64L27.73 0M37.14 -9.8Q38.02 -9.8 38.75 -9.5Q39.48 -9.22 40.03 -8.66Q40.58 -8.11 40.88 -7.3Q41.19 -6.5 41.19 -5.47Q41.19 -5.05 41.09 -4.91Q41 -4.77 40.75 -4.77L34.39 -4.77Q34.42 -3.89 34.64 -3.23Q34.86 -2.58 35.25 -2.14Q35.64 -1.7 36.17 -1.48Q36.72 -1.28 37.38 -1.28Q38.02 -1.28 38.45 -1.42Q38.91 -1.56 39.23 -1.73Q39.56 -1.91 39.78 -2.05Q40.02 -2.19 40.19 -2.19Q40.42 -2.19 40.53 -2.03L41.05 -1.38Q40.7 -0.97 40.27 -0.69Q39.83 -0.41 39.33 -0.22Q38.83 -0.03 38.28 0.05Q37.75 0.14 37.23 0.14Q36.23 0.14 35.38 -0.2Q34.53 -0.55 33.91 -1.19Q33.3 -1.84 32.95 -2.8Q32.61 -3.77 32.61 -5.03Q32.61 -6.03 32.92 -6.89Q33.23 -7.77 33.81 -8.41Q34.41 -9.05 35.23 -9.42Q36.08 -9.8 37.14 -9.8M37.16 -8.47Q35.97 -8.47 35.3 -7.78Q34.62 -7.09 34.45 -5.88L39.56 -5.88Q39.56 -6.45 39.41 -6.92Q39.25 -7.41 38.94 -7.73Q38.62 -8.08 38.17 -8.27Q37.73 -8.47 37.16 -8.47M43.2 0L43.2 -9.64L44.28 -9.64Q44.67 -9.64 44.77 -9.28L44.89 -8.28Q45.52 -8.95 46.28 -9.38Q47.06 -9.8 48.06 -9.8Q48.86 -9.8 49.45 -9.53Q50.06 -9.27 50.47 -8.78Q50.88 -8.3 51.08 -7.62Q51.3 -6.97 51.3 -6.14L51.3 0L49.48 0L49.48 -6.14Q49.48 -7.19 49 -7.77Q48.52 -8.36 47.53 -8.36Q46.8 -8.36 46.17 -8.02Q45.55 -7.67 45 -7.08L45 0L43.2 0M55.53 -9.64L55.53 -3.5Q55.53 -2.45 56.02 -1.86Q56.5 -1.28 57.5 -1.28Q58.22 -1.28 58.84 -1.61Q59.48 -1.95 60.02 -2.56L60.02 -9.64L61.83 -9.64L61.83 0L60.75 0Q60.36 0 60.27 -0.36L60.12 -1.36Q59.5 -0.69 58.73 -0.27Q57.97 0.16 56.97 0.16Q56.16 0.16 55.55 -0.11Q54.95 -0.38 54.55 -0.86Q54.16 -1.34 53.94 -2Q53.73 -2.67 53.73 -3.5L53.73 -9.64L55.53 -9.64M68.42 -9.8Q69.3 -9.8 70.03 -9.5Q70.77 -9.22 71.31 -8.66Q71.86 -8.11 72.16 -7.3Q72.47 -6.5 72.47 -5.47Q72.47 -5.05 72.38 -4.91Q72.28 -4.77 72.03 -4.77L65.67 -4.77Q65.7 -3.89 65.92 -3.23Q66.14 -2.58 66.53 -2.14Q66.92 -1.7 67.45 -1.48Q68 -1.28 68.66 -1.28Q69.3 -1.28 69.73 -1.42Q70.19 -1.56 70.52 -1.73Q70.84 -1.91 71.06 -2.05Q71.3 -2.19 71.47 -2.19Q71.7 -2.19 71.81 -2.03L72.33 -1.38Q71.98 -0.97 71.55 -0.69Q71.11 -0.41 70.61 -0.22Q70.11 -0.03 69.56 0.05Q69.03 0.14 68.52 0.14Q67.52 0.14 66.66 -0.2Q65.81 -0.55 65.19 -1.19Q64.58 -1.84 64.23 -2.8Q63.89 -3.77 63.89 -5.03Q63.89 -6.03 64.2 -6.89Q64.52 -7.77 65.09 -8.41Q65.69 -9.05 66.52 -9.42Q67.36 -9.8 68.42 -9.8M68.44 -8.47Q67.25 -8.47 66.58 -7.78Q65.91 -7.09 65.73 -5.88L70.84 -5.88Q70.84 -6.45 70.69 -6.92Q70.53 -7.41 70.22 -7.73Q69.91 -8.08 69.45 -8.27Q69.02 -8.47 68.44 -8.47"/></g>
<line x1="64" y1="37" x2="64" y2="206" stroke="#333333"/>
<line x1="65" y1="206" x2="287" y2="206" stroke="#E0E0E0"/>
<line x1="60" y1="206" x2="63" y2="206" stroke="#333333"/>
<g transform="translate(34.4 209)" fill="#222222"><path d="M1.61 -0.94L3.59 -0.94L3.59 -7.14Q3.59 -7.42 3.61 -7.73L2 -6.36Q1.91 -6.28 1.81 -6.27Q1.73 -6.25 1.66 -6.27Q1.58 -6.28 1.52 -6.31Q1.45 -6.36 1.42 -6.41L1.03 -6.94L3.83 -9.34L4.83 -9.34L4.83 -0.94L6.64 -0.94L6.64 0L1.61 0L1.61 -0.94M11.39 -9.44Q12 -9.44 12.52 -9.25Q13.03 -9.08 13.41 -8.73Q13.78 -8.41 13.98 -7.92Q14.2 -7.44 14.2 -6.83Q14.2 -6.31 14.05 -5.86Q13.91 -5.42 13.64 -5.02Q13.38 -4.61 13.03 -4.22Q12.69 -3.84 12.3 -3.45L9.89 -1Q10.16 -1.08 10.42 -1.12Q10.7 -1.17 10.95 -1.17L13.95 -1.17Q14.16 -1.17 14.27 -1.05Q14.39 -0.94 14.39 -0.75L14.39 0L8.14 0L8.14 -0.42Q8.14 -0.55 8.19 -0.69Q8.25 -0.83 8.36 -0.94L11.33 -3.92Q11.69 -4.3 11.98 -4.64Q12.3 -4.98 12.5 -5.33Q12.72 -5.67 12.83 -6.03Q12.95 -6.39 12.95 -6.78Q12.95 -7.19 12.83 -7.48Q12.7 -7.78 12.48 -7.98Q12.27 -8.19 11.97 -8.28Q11.67 -8.38 11.33 -8.38Q10.98 -8.38 10.69 -8.27Q10.41 -8.17 10.17 -7.98Q9.95 -7.81 9.8 -7.56Q9.66 -7.33 9.59 -7.05Q9.5 -6.8 9.36 -6.72Q9.22 -6.64 8.97 -6.67L8.33 -6.8Q8.42 -7.44 8.67 -7.92Q8.94 -8.42 9.34 -8.75Q9.75 -9.09 10.27 -9.27Q10.8 -9.44 11.39 -9.44M22.25 -4.67Q22.25 -3.44 21.98 -2.55Q21.73 -1.66 21.27 -1.06Q20.81 -0.47 20.19 -0.19Q19.58 0.09 18.86 0.09Q18.14 0.09 17.52 -0.19Q16.91 -0.47 16.44 -1.06Q15.98 -1.66 15.72 -2.55Q15.47 -3.44 15.47 -4.67Q15.47 -5.89 15.72 -6.78Q15.98 -7.69 16.44 -8.27Q16.91 -8.86 17.52 -9.14Q18.14 -9.44 18.86 -9.44Q19.58 -9.44 20.19 -9.14Q20.81 -8.86 21.27 -8.27Q21.73 -7.69 21.98 -6.78Q22.25 -5.89 22.25 -4.67M20.97 -4.67Q20.97 -5.72 20.8 -6.44Q20.62 -7.16 20.33 -7.58Q20.05 -8.02 19.66 -8.2Q19.27 -8.39 18.86 -8.39Q18.44 -8.39 18.05 -8.2Q17.67 -8.02 17.38 -7.58Q17.09 -7.16 16.92 -6.44Q16.75 -5.72 16.75 -4.67Q16.75 -3.61 16.92 -2.89Q17.09 -2.17 17.38 -1.73Q17.67 -1.31 18.05 -1.12Q18.44 -0.94 18.86 -0.94Q19.27 -0.94 19.66 -1.12Q20.05 -1.31 20.33 -1.73Q20.62 -2.17 20.8 -2.89Q20.97 -3.61 20.97 -4.67"/></g>
<line x1="65" y1="172" x2="287" y2="172" stroke="#E0E0E0"/>
<line x1="60" y1="172" x2="63" y2="172" stroke="#333333"/>
<g transform="translate(34.4 175)" fill="#222222"><path d="M1.61 -0.94L3.59 -0.94L3.59 -7.14Q3.59 -7.42 3.61 -7.73L2 -6.36Q1.91 -6.28 1.81 -6.27Q1.73 -6.25 1.66 -6.27Q1.58 -6.28 1.52 -6.31Q1.45 -6.36 1.42 -6.41L1.03 -6.94L3.83 -9.34L4.83 -9.34L4.83 -0.94L6.64 -0.94L6.64 0L1.61 0L1.61 -0.94M13.34 -3.39L14.72 -3.39L14.72 -2.67Q14.72 -2.56 14.66 -2.48Q14.59 -2.42 14.45 -2.42L13.34 -2.42L13.34 0L12.27 0L12.27 -2.42L8.17 -2.42Q8.03 -2.42 7.92 -2.5Q7.83 -2.58 7.81 -2.7L7.69 -3.33L12.2 -9.33L13.34 -9.33L13.34 -3.39M12.27 -7.09Q12.27 -7.28 12.28 -7.48Q12.3 -7.69 12.33 -7.91L9.02 -3.39L12.27 -3.39L12.27 -7.09M22.25 -4.67Q22.25 -3.44 21.98 -2.55Q21.73 -1.66 21.27 -1.06Q20.81 -0.47 20.19 -0.19Q19.58 0.09 18.86 0.09Q18.14 0.09 17.52 -0.19Q16.91 -0.47 16.44 -1.06Q15.98 -1.66 15.72 -2.55Q15.47 -3.44 15.47 -4.67Q15.47 -5.89 15.72 -6.78Q15.98 -7.69 16.44 -8.27Q16.91 -8.86 17.52 -9.14Q18.14 -9.44 18.86 -9.44Q19.58 -9.44 20.19 -9.14Q20.81 -8.86 21.27 -8.27Q21.73 -7.69 21.98 -6.78Q22.25 -5.89 22.25 -4.67M20.97 -4.67Q20.97 -5.72 20.8 -6.44Q20.62 -7.16 20.33 -7.58Q20.05 -8.02 19.66 -8.2Q19.27 -8.39 18.86 -8.39Q18.44 -8.39 18.05 -8.2Q17.67 -8.02 17.38 -7.58Q17.09 -7.16 16.92 -6.44Q16.75 -5.72 16.75 -4.67Q16.75 -3.61 16.92 -2.89Q17.09 -2.17 17.38 -1.73Q17.67 -1.31 18.05 -1.12Q18.44 -0.94 18.86 -0.94Q19.27 -0.94 19.66 -1.12Q20.05 -1.31 20.33 -1.73Q20.62 -2.17 20.8 -2.89Q20.97 -3.61 20.97 -4.67"/></g>
<line x1="65" y1="138" x2="287" y2="138" stroke="#E0E0E0"/>
<line x1="60" y1="138" x2="63" y2="138" stroke="#333333"/>
<g transform="translate(34.4 141)" fill="#222222"><path d="M1.61 -0.94L3.59 -0.94L3.59 -7.14Q3.59 -7.42 3.61 -7.73L2 -6.36Q1.91 -6.28 1.81 -6.27Q1.73 -6.25 1.66 -6.27Q1.58 -6.28 1.52 -6.31Q1.45 -6.36 1.42 -6.41L1.03 -6.94L3.83 -9.34L4.83 -9.34L4.83 -0.94L6.64 -0.94L6.64 0L1.61 0L1.61 -0.94M10.69 -5.84Q10.56 -5.7 10.45 -5.56Q10.34 -5.42 10.25 -5.3Q10.56 -5.5 10.95 -5.61Q11.34 -5.73 11.78 -5.73Q12.34 -5.73 12.84 -5.55Q13.34 -5.38 13.72 -5.02Q14.11 -4.66 14.33 -4.14Q14.55 -3.62 14.55 -2.95Q14.55 -2.31 14.31 -1.75Q14.08 -1.19 13.66 -0.78Q13.23 -0.38 12.64 -0.12Q12.05 0.11 11.33 0.11Q10.61 0.11 10.03 -0.11Q9.47 -0.34 9.06 -0.77Q8.66 -1.19 8.44 -1.78Q8.22 -2.38 8.22 -3.09Q8.22 -3.72 8.48 -4.41Q8.77 -5.11 9.34 -5.89L11.69 -9.03Q11.78 -9.16 11.95 -9.23Q12.14 -9.33 12.34 -9.33L13.45 -9.33L10.69 -5.84M9.41 -2.89Q9.41 -2.45 9.53 -2.09Q9.66 -1.73 9.89 -1.47Q10.14 -1.2 10.5 -1.06Q10.86 -0.92 11.3 -0.92Q11.77 -0.92 12.12 -1.06Q12.5 -1.22 12.77 -1.47Q13.03 -1.73 13.17 -2.08Q13.31 -2.44 13.31 -2.86Q13.31 -3.31 13.17 -3.67Q13.03 -4.03 12.77 -4.28Q12.52 -4.53 12.16 -4.66Q11.81 -4.8 11.38 -4.8Q10.92 -4.8 10.55 -4.64Q10.19 -4.48 9.92 -4.22Q9.67 -3.95 9.53 -3.61Q9.41 -3.27 9.41 -2.89M22.25 -4.67Q22.25 -3.44 21.98 -2.55Q21.73 -1.66 21.27 -1.06Q20.81 -0.47 20.19 -0.19Q19.58 0.09 18.86 0.09Q18.14 0.09 17.52 -0.19Q16.91 -0.47 16.44 -1.06Q15.98 -1.66 15.72 -2.55Q15.47 -3.44 15.47 -4.67Q15.47 -5.89 15.72 -6.78Q15.98 -7.69 16.44 -8.27Q16.91 -8.86 17.52 -9.14Q18.14 -9.44 18.86 -9.44Q19.58 -9.44 20.19 -9.14Q20.81 -8.86 21.27 -8.27Q21.73 -7.69 21.98 -6.78Q22.25 -5.89 22.25 -4.67M20.97 -4.67Q20.97 -5.72 20.8 -6.44Q20.62 -7.16 20.33 -7.58Q20.05 -8.02 19.66 -8.2Q19.27 -8.39 18.86 -8.39Q18.44 -8.39 18.05 -8.2Q17.67 -8.02 17.38 -7.58Q17.09 -7.16 16.92 -6.44Q16.75 -5.72 16.75 -4.67Q16.75 -3.61 16.92 -2.89Q17.09 -2.17 17.38 -1.73Q17.67 -1.31 18.05 -1.12Q18.44 -0.94 18.86 -0.94Q19.27 -0.94 19.66 -1.12Q20.05 -1.31 20.33 -1.73Q20.62 -2.17 20.8 -2.89Q20.97 -3.61 20.97 -4.67"/></g>
<line x1="65" y1="105" x2="287" y2="105" stroke="#E0E0E0"/>
<line x1="60" y1="105" x2="63" y2="105" stroke="#333333"/>
<g transform="translate(34.4 108)" fill="#222222"><path d="M1.61 -0.94L3.59 -0.94L3.59 -7.14Q3.59 -7.42 3.61 -7.73L2 -6.36Q1.91 -6.28 1.81 -6.27Q1.73 -6.25 1.66 -6.27Q1.58 -6.28 1.52 -6.31Q1.45 -6.36 1.42 -6.41L1.03 -6.94L3.83 -9.34L4.83 -9.34L4.83 -0.94L6.64 -0.94L6.64 0L1.61 0L1.61 -0.94M11.31 0.11Q10.61 0.11 10.03 -0.08Q9.45 -0.27 9.03 -0.61Q8.62 -0.97 8.39 -1.45Q8.16 -1.95 8.16 -2.56Q8.16 -3.45 8.61 -4.03Q9.08 -4.61 9.95 -4.86Q9.22 -5.14 8.84 -5.67Q8.47 -6.22 8.47 -6.97Q8.47 -7.5 8.67 -7.94Q8.89 -8.39 9.27 -8.72Q9.64 -9.05 10.16 -9.23Q10.69 -9.44 11.31 -9.44Q11.95 -9.44 12.47 -9.23Q13 -9.05 13.38 -8.72Q13.75 -8.39 13.95 -7.94Q14.16 -7.5 14.16 -6.97Q14.16 -6.22 13.78 -5.67Q13.41 -5.14 12.69 -4.86Q13.55 -4.61 14 -4.03Q14.47 -3.45 14.47 -2.56Q14.47 -1.95 14.23 -1.45Q14.02 -0.97 13.59 -0.61Q13.19 -0.27 12.59 -0.08Q12.02 0.11 11.31 0.11M11.31 -0.88Q11.77 -0.88 12.11 -1Q12.47 -1.12 12.7 -1.36Q12.95 -1.59 13.08 -1.89Q13.2 -2.2 13.2 -2.59Q13.2 -3.05 13.05 -3.38Q12.91 -3.72 12.64 -3.92Q12.39 -4.14 12.03 -4.23Q11.69 -4.33 11.31 -4.33Q10.94 -4.33 10.59 -4.23Q10.25 -4.14 9.98 -3.92Q9.73 -3.72 9.58 -3.38Q9.42 -3.05 9.42 -2.59Q9.42 -2.2 9.55 -1.89Q9.67 -1.59 9.92 -1.36Q10.17 -1.12 10.52 -1Q10.88 -0.88 11.31 -0.88M11.31 -5.33Q11.77 -5.33 12.08 -5.45Q12.39 -5.59 12.58 -5.81Q12.77 -6.05 12.86 -6.34Q12.95 -6.64 12.95 -6.95Q12.95 -7.27 12.84 -7.53Q12.75 -7.81 12.55 -8.02Q12.34 -8.23 12.03 -8.36Q11.72 -8.48 11.31 -8.48Q10.91 -8.48 10.59 -8.36Q10.3 -8.23 10.09 -8.02Q9.89 -7.81 9.78 -7.53Q9.69 -7.27 9.69 -6.95Q9.69 -6.64 9.77 -6.34Q9.86 -6.05 10.05 -5.81Q10.25 -5.59 10.56 -5.45Q10.88 -5.33 11.31 -5.33M22.25 -4.67Q22.25 -3.44 21.98 -2.55Q21.73 -1.66 21.27 -1.06Q20.81 -0.47 20.19 -0.19Q19.58 0.09 18.86 0.09Q18.14 0.09 17.52 -0.19Q16.91 -0.47 16.44 -1.06Q15.98 -1.66 15.72 -2.55Q15.47 -3.44 15.47 -4.67Q15.47 -5.89 15.72 -6.78Q15.98 -7.69 16.44 -8.27Q16.91 -8.86 17.52 -9.14Q18.14 -9.44 18.86 -9.44Q19.58 -9.44 20.19 -9.14Q20.81 -8.86 21.27 -8.27Q21.73 -7.69 21.98 -6.78Q22.25 -5.89 22.25 -4.67M20.97 -4.67Q20.97 -5.72 20.8 -6.44Q20.62 -7.16 20.33 -7.58Q20.05 -8.02 19.66 -8.2Q19.27 -8.39 18.86 -8.39Q18.44 -8.39 18.05 -8.2Q17.67 -8.02 17.38 -7.58Q17.09 -7.16 16.92 -6.44Q16.75 -5.72 16.75 -4.67Q16.75 -3.61 16.92 -2.89Q17.09 -2.17 17.38 -1.73Q17.67 -1.31 18.05 -1.12Q18.44 -0.94 18.86 -0.94Q19.27 -0.94 19.66 -1.12Q20.05 -1.31 20.33 -1.73Q20.62 -2.17 20.8 -2.89Q20.97 -3.61 20.97 -4.67"/></g>
<line x1="65" y1="71" x2="287" y2="71" stroke="#E0E0E0"/>
<line x1="60" y1="71" x2="63" y2="71" stroke="#333333"/>
<g transform="translate(34.4 74)" fill="#222222"><path d="M3.84 -9.44Q4.45 -9.44 4.97 -9.25Q5.48 -9.08 5.86 -8.73Q6.23 -8.41 6.44 -7.92Q6.66 -7.44 6.66 -6.83Q6.66 -6.31 6.5 -5.86Q6.36 -5.42 6.09 -5.02Q5.83 -4.61 5.48 -4.22Q5.14 -3.84 4.75 -3.45L2.34 -1Q2.61 -1.08 2.88 -1.12Q3.16 -1.17 3.41 -1.17L6.41 -1.17Q6.61 -1.17 6.72 -1.05Q6.84 -0.94 6.84 -0.75L6.84 0L0.59 0L0.59 -0.42Q0.59 -0.55 0.64 -0.69Q0.7 -0.83 0.81 -0.94L3.78 -3.92Q4.14 -4.3 4.44 -4.64Q4.75 -4.98 4.95 -5.33Q5.17 -5.67 5.28 -6.03Q5.41 -6.39 5.41 -6.78Q5.41 -7.19 5.28 -7.48Q5.16 -7.78 4.94 -7.98Q4.72 -8.19 4.42 -8.28Q4.12 -8.38 3.78 -8.38Q3.44 -8.38 3.14 -8.27Q2.86 -8.17 2.62 -7.98Q2.41 -7.81 2.25 -7.56Q2.11 -7.33 2.05 -7.05Q1.95 -6.8 1.81 -6.72Q1.67 -6.64 1.42 -6.67L0.78 -6.8Q0.88 -7.44 1.12 -7.92Q1.39 -8.42 1.8 -8.75Q2.2 -9.09 2.72 -9.27Q3.25 -9.44 3.84 -9.44M14.7 -4.67Q14.7 -3.44 14.44 -2.55Q14.19 -1.66 13.72 -1.06Q13.27 -0.47 12.64 -0.19Q12.03 0.09 11.31 0.09Q10.59 0.09 9.97 -0.19Q9.36 -0.47 8.89 -1.06Q8.44 -1.66 8.17 -2.55Q7.92 -3.44 7.92 -4.67Q7.92 -5.89 8.17 -6.78Q8.44 -7.69 8.89 -8.27Q9.36 -8.86 9.97 -9.14Q10.59 -9.44 11.31 -9.44Q12.03 -9.44 12.64 -9.14Q13.27 -8.86 13.72 -8.27Q14.19 -7.69 14.44 -6.78Q14.7 -5.89 14.7 -4.67M13.42 -4.67Q13.42 -5.72 13.25 -6.44Q13.08 -7.16 12.78 -7.58Q12.5 -8.02 12.11 -8.2Q11.72 -8.39 11.31 -8.39Q10.89 -8.39 10.5 -8.2Q10.12 -8.02 9.83 -7.58Q9.55 -7.16 9.38 -6.44Q9.2 -5.72 9.2 -4.67Q9.2 -3.61 9.38 -2.89Q9.55 -2.17 9.83 -1.73Q10.12 -1.31 10.5 -1.12Q10.89 -0.94 11.31 -0.94Q11.72 -0.94 12.11 -1.12Q12.5 -1.31 12.78 -1.73Q13.08 -2.17 13.25 -2.89Q13.42 -3.61 13.42 -4.67M22.25 -4.67Q22.25 -3.44 21.98 -2.55Q21.73 -1.66 21.27 -1.06Q20.81 -0.47 20.19 -0.19Q19.58 0.09 18.86 0.09Q18.14 0.09 17.52 -0.19Q16.91 -0.47 16.44 -1.06Q15.98 -1.66 15.72 -2.55Q15.47 -3.44 15.47 -4.67Q15.47 -5.89 15.72 -6.78Q15.98 -7.69 16.44 -8.27Q16.91 -8.86 17.52 -9.14Q18.14 -9.44 18.86 -9.44Q19.58 -9.44 20.19 -9.14Q20.81 -8.86 21.27 -8.27Q21.73 -7.69 21.98 -6.78Q22.25 -5.89 22.25 -4.67M20.97 -4.67Q20.97 -5.72 20.8 -6.44Q20.62 -7.16 20.33 -7.58Q20.05 -8.02 19.66 -8.2Q19.27 -8.39 18.86 -8.39Q18.44 -8.39 18.05 -8.2Q17.67 -8.02 17.38 -7.58Q17.09 -7.16 16.92 -6.44Q16.75 -5.72 16.75 -4.67Q16.75 -3.61 16.92 -2.89Q17.09 -2.17 17.38 -1.73Q17.67 -1.31 18.05 -1.12Q18.44 -0.94 18.86 -0.94Q19.27 -0.94 19.66 -1.12Q20.05 -1.31 20.33 -1.73Q20.62 -2.17 20.8 -2.89Q20.97 -3.61 20.97 -4.67"/></g>
<line x1="65" y1="37" x2="287" y2="37" stroke="#E0E0E0"/>
<line x1="60" y1="37" x2="63" y2="37" stroke="#333333"/>
<g transform="translate(34.4 40)" fill="#222222"><path d="M3.84 -9.44Q4.45 -9.44 4.97 -9.25Q5.48 -9.08 5.86 -8.73Q6.23 -8.41 6.44 -7.92Q6.66 -7.44 6.66 -6.83Q6.66 -6.31 6.5 -5.86Q6.36 -5.42 6.09 -5.02Q5.83 -4.61 5.48 -4.22Q5.14 -3.84 4.75 -3.45L2.34 -1Q2.61 -1.08 2.88 -1.12Q3.16 -1.17 3.41 -1.17L6.41 -1.17Q6.61 -1.17 6.72 -1.05Q6.84 -0.94 6.84 -0.75L6.84 0L0.59 0L0.59 -0.42Q0.59 -0.55 0.64 -0.69Q0.7 -0.83 0.81 -0.94L3.78 -3.92Q4.14 -4.3 4.44 -4.64Q4.75 -4.98 4.95 -5.33Q5.17 -5.67 5.28 -6.03Q5.41 -6.39 5.41 -6.78Q5.41 -7.19 5.28 -7.48Q5.16 -7.78 4.94 -7.98Q4.72 -8.19 4.42 -8.28Q4.12 -8.38 3.78 -8.38Q3.44 -8.38 3.14 -8.27Q2.86 -8.17 2.62 -7.98Q2.41 -7.81 2.25 -7.56Q2.11 -7.33 2.05 -7.05Q1.95 -6.8 1.81 -6.72Q1.67 -6.64 1.42 -6.67L0.78 -6.8Q0.88 -7.44 1.12 -7.92Q1.39 -8.42 1.8 -8.75Q2.2 -9.09 2.72 -9.27Q3.25 -9.44 3.84 -9.44M11.39 -9.44Q12 -9.44 12.52 -9.25Q13.03 -9.08 13.41 -8.73Q13.78 -8.41 13.98 -7.92Q14.2 -7.44 14.2 -6.83Q14.2 -6.31 14.05 -5.86Q13.91 -5.42 13.64 -5.02Q13.38 -4.61 13.03 -4.22Q12.69 -3.84 12.3 -3.45L9.89 -1Q10.16 -1.08 10.42 -1.12Q10.7 -1.17 10.95 -1.17L13.95 -1.17Q14.16 -1.17 14.27 -1.05Q14.39 -0.94 14.39 -0.75L14.39 0L8.14 0L8.14 -0.42Q8.14 -0.55 8.19 -0.69Q8.25 -0.83 8.36 -0.94L11.33 -3.92Q11.69 -4.3 11.98 -4.64Q12.3 -4.98 12.5 -5.33Q12.72 -5.67 12.83 -6.03Q12.95 -6.39 12.95 -6.78Q12.95 -7.19 12.83 -7.48Q12.7 -7.78 12.48 -7.98Q12.27 -8.19 11.97 -8.28Q11.67 -8.38 11.33 -8.38Q10.98 -8.38 10.69 -8.27Q10.41 -8.17 10.17 -7.98Q9.95 -7.81 9.8 -7.56Q9.66 -7.33 9.59 -7.05Q9.5 -6.8 9.36 -6.72Q9.22 -6.64 8.97 -6.67L8.33 -6.8Q8.42 -7.44 8.67 -7.92Q8.94 -8.42 9.34 -8.75Q9.75 -9.09 10.27 -9.27Q10.8 -9.44 11.39 -9.44M22.25 -4.67Q22.25 -3.44 21.98 -2.55Q21.73 -1.66 21.27 -1.06Q20.81 -0.47 20.19 -0.19Q19.58 0.09 18.86 0.09Q18.14 0.09 17.52 -0.19Q16.91 -0.47 16.44 -1.06Q15.98 -1.66 15.72 -2.55Q15.47 -3.44 15.47 -4.67Q15.47 -5.89 15.72 -6.78Q15.98 -7.69 16.44 -8.27Q16.91 -8.86 17.52 -9.14Q18.14 -9.44 18.86 -9.44Q19.58 -9.44 20.19 -9.14Q20.81 -8.86 21.27 -8.27Q21.73 -7.69 21.98 -6.78Q22.25 -5.89 22.25 -4.67M20.97 -4.67Q20.97 -5.72 20.8 -6.44Q20.62 -7.16 20.33 -7.58Q20.05 -8.02 19.66 -8.2Q19.27 -8.39 18.86 -8.39Q18.44 -8.39 18.05 -8.2Q17.67 -8.02 17.38 -7.58Q17.09 -7.16 16.92 -6.44Q16.75 -5.72 16.75 -4.67Q16.75 -3.61 16.92 -2.89Q17.09 -2.17 17.38 -1.73Q17.67 -1.31 18.05 -1.12Q18.44 -0.94 18.86 -0.94Q19.27 -0.94 19.66 -1.12Q20.05 -1.31 20.33 -1.73Q20.62 -2.17 20.8 -2.89Q20.97 -3.61 20.97 -4.67"/></g>
<line x1="64" y1="206" x2="287" y2="206" stroke="#333333"/>
<line x1="86" y1="207" x2="86" y2="210" stroke="#333333"/>
<g transform="translate(82.2 227)" fill="#222222"><path d="M7.16 -4.67Q7.16 -3.44 6.89 -2.55Q6.64 -1.66 6.17 -1.06Q5.72 -0.47 5.09 -0.19Q4.48 0.09 3.77 0.09Q3.05 0.09 2.42 -0.19Q1.81 -0.47 1.34 -1.06Q0.89 -1.66 0.62 -2.55Q0.38 -3.44 0.38 -4.67Q0.38 -5.89 0.62 -6.78Q0.89 -7.69 1.34 -8.27Q1.81 -8.86 2.42 -9.14Q3.05 -9.44 3.77 -9.44Q4.48 -9.44 5.09 -9.14Q5.72 -8.86 6.17 -8.27Q6.64 -7.69 6.89 -6.78Q7.16 -5.89 7.16 -4.67M5.88 -4.67Q5.88 -5.72 5.7 -6.44Q5.53 -7.16 5.23 -7.58Q4.95 -8.02 4.56 -8.2Q4.17 -8.39 3.77 -8.39Q3.34 -8.39 2.95 -8.2Q2.58 -8.02 2.28 -7.58Q2 -7.16 1.83 -6.44Q1.66 -5.72 1.66 -4.67Q1.66 -3.61 1.83 -2.89Q2 -2.17 2.28 -1.73Q2.58 -1.31 2.95 -1.12Q3.34 -0.94 3.77 -0.94Q4.17 -0.94 4.56 -1.12Q4.95 -1.31 5.23 -1.73Q5.53 -2.17 5.7 -2.89Q5.88 -3.61 5.88 -4.67"/></g>
<line x1="130" y1="207" x2="130" y2="210" stroke="#333333"/>
<g transform="translate(126.2 227)" fill="#222222"><path d="M1.61 -0.94L3.59 -0.94L3.59 -7.14Q3.59 -7.42 3.61 -7.73L2 -6.36Q1.91 -6.28 1.81 -6.27Q1.73 -6.25 1.66 -6.27Q1.58 -6.28 1.52 -6.31Q1.45 -6.36 1.42 -6.41L1.03 -6.94L3.83 -9.34L4.83 -9.34L4.83 -0.94L6.64 -0.94L6.64 0L1.61 0L1.61 -0.94"/></g>
<line x1="175" y1="207" x2="175" y2="210" stroke="#333333"/>
<g transform="translate(171.2 227)" fill="#222222"><path d="M3.84 -9.44Q4.45 -9.44 4.97 -9.25Q5.48 -9.08 5.86 -8.73Q6.23 -8.41 6.44 -7.92Q6.66 -7.44 6.66 -6.83Q6.66 -6.31 6.5 -5.86Q6.36 -5.42 6.09 -5.02Q5.83 -4.61 5.48 -4.22Q5.14 -3.84 4.75 -3.45L2.34 -1Q2.61 -1.08 2.88 -1.12Q3.16 -1.17 3.41 -1.17L6.41 -1.17Q6.61 -1.17 6.72 -1.05Q6.84 -0.94 6.84 -0.75L6.84 0L0.59 0L0.59 -0.42Q0.59 -0.55 0.64 -0.69Q0.7 -0.83 0.81 -0.94L3.78 -3.92Q4.14 -4.3 4.44 -4.64Q4.75 -4.98 4.95 -5.33Q5.17 -5.67 5.28 -6.03Q5.41 -6.39 5.41 -6.78Q5.41 -7.19 5.28 -7.48Q5.16 -7.78 4.94 -7.98Q4.72 -8.19 4.42 -8.28Q4.12 -8.38 3.78 -8.38Q3.44 -8.38 3.14 -8.27Q2.86 -8.17 2.62 -7.98Q2.41 -7.81 2.25 -7.56Q2.11 -7.33 2.05 -7.05Q1.95 -6.8 1.81 -6.72Q1.67 -6.64 1.42 -6.67L0.78 -6.8Q0.88 -7.44 1.12 -7.92Q1.39 -8.42 1.8 -8.75Q2.2 -9.09 2.72 -9.27Q3.25 -9.44 3.84 -9.44"/></g>
<line x1="220" y1="207" x2="220" y2="210" stroke="#333333"/>
<g transform="translate(216.2 227)" fill="#222222"><path d="M3.89 -9.44Q4.5 -9.44 5 -9.27Q5.5 -9.09 5.86 -8.77Q6.22 -8.45 6.42 -8.02Q6.62 -7.58 6.62 -7.05Q6.62 -6.59 6.52 -6.25Q6.41 -5.91 6.19 -5.64Q5.98 -5.38 5.69 -5.2Q5.39 -5.03 5.03 -4.91Q5.92 -4.66 6.38 -4.09Q6.83 -3.55 6.83 -2.69Q6.83 -2.03 6.58 -1.52Q6.34 -1 5.92 -0.64Q5.5 -0.28 4.92 -0.08Q4.36 0.11 3.72 0.11Q2.98 0.11 2.45 -0.08Q1.92 -0.27 1.55 -0.58Q1.19 -0.91 0.94 -1.34Q0.7 -1.8 0.55 -2.33L1.08 -2.56Q1.28 -2.66 1.47 -2.61Q1.67 -2.58 1.77 -2.39Q1.86 -2.2 1.98 -1.95Q2.11 -1.7 2.33 -1.47Q2.55 -1.25 2.88 -1.09Q3.2 -0.95 3.7 -0.95Q4.17 -0.95 4.53 -1.11Q4.89 -1.27 5.12 -1.5Q5.36 -1.75 5.47 -2.05Q5.59 -2.36 5.59 -2.66Q5.59 -3.03 5.5 -3.33Q5.41 -3.64 5.14 -3.86Q4.89 -4.08 4.44 -4.2Q3.98 -4.33 3.25 -4.33L3.25 -5.22Q3.84 -5.23 4.25 -5.34Q4.67 -5.47 4.92 -5.67Q5.19 -5.89 5.3 -6.19Q5.42 -6.48 5.42 -6.83Q5.42 -7.22 5.3 -7.5Q5.19 -7.8 4.97 -7.98Q4.75 -8.19 4.45 -8.28Q4.17 -8.38 3.83 -8.38Q3.48 -8.38 3.19 -8.27Q2.91 -8.17 2.67 -7.98Q2.45 -7.81 2.3 -7.56Q2.14 -7.33 2.08 -7.05Q1.98 -6.8 1.84 -6.72Q1.72 -6.64 1.47 -6.67L0.81 -6.8Q0.91 -7.44 1.17 -7.92Q1.44 -8.42 1.84 -8.75Q2.25 -9.09 2.77 -9.27Q3.28 -9.44 3.89 -9.44"/></g>
<line x1="264" y1="207" x2="264" y2="210" stroke="#333333"/>
<g transform="translate(260.2 227)" fill="#222222"><path d="M5.8 -3.39L7.17 -3.39L7.17 -2.67Q7.17 -2.56 7.11 -2.48Q7.05 -2.42 6.91 -2.42L5.8 -2.42L5.8 0L4.72 0L4.72 -2.42L0.62 -2.42Q0.48 -2.42 0.38 -2.5Q0.28 -2.58 0.27 -2.7L0.14 -3.33L4.66 -9.33L5.8 -9.33L5.8 -3.39M4.72 -7.09Q4.72 -7.28 4.73 -7.48Q4.75 -7.69 4.78 -7.91L1.47 -3.39L4.72 -3.39L4.72 -7.09"/></g>
<line x1="86" y1="206" x2="130" y2="164" stroke="#1F77B4" stroke-width="2"/>
<line x1="130" y1="164" x2="175" y2="125" stroke="#1F77B4" stroke-width="2"/>
<line x1="175" y1="125" x2="220" y2="88" stroke="#1F77B4" stroke-width="2"/>
<line x1="220" y1="88" x2="264" y2="45" stroke="#1F77B4" stroke-width="2"/>
<circle cx="86" cy="206" r="3" fill="#1F77B4"/>
<circle cx="130" cy="164" r="3" fill="#1F77B4"/>
<circle cx="175" cy="125" r="3" fill="#1F77B4"/>
<circle cx="220" cy="88" r="3" fill="#1F77B4"/>
<circle cx="264" cy="45" r="3" fill="#1F77B4"/>
</g>
<g transform="translate(320,0)"><g class="fastchart"><rect x="0" y="0" width="320" height="240" fill="#FFFFFF"/>
<rect x="64" y="37" width="224" height="170" fill="#FFFFFF"/>
<line x1="64" y1="37" x2="287" y2="37" stroke="#666666"/>
<line x1="64" y1="206" x2="287" y2="206" stroke="#666666"/>
<line x1="64" y1="37" x2="64" y2="206" stroke="#666666"/>
<line x1="287" y1="37" x2="287" y2="206" stroke="#666666"/>
<g transform="translate(140.7 27)" fill="#222222"><path d="M11.23 -2.89Q11.41 -2.89 11.53 -2.77L12.3 -1.91Q11.47 -0.94 10.27 -0.39Q9.06 0.16 7.38 0.16Q5.91 0.16 4.7 -0.36Q3.5 -0.88 2.64 -1.8Q1.8 -2.72 1.33 -4Q0.88 -5.28 0.88 -6.83Q0.88 -8.36 1.36 -9.64Q1.84 -10.92 2.72 -11.84Q3.61 -12.77 4.84 -13.27Q6.08 -13.78 7.55 -13.78Q9 -13.78 10.12 -13.3Q11.25 -12.83 12.09 -12.05L11.45 -11.14Q11.38 -11.03 11.28 -10.97Q11.2 -10.92 11.03 -10.92Q10.86 -10.92 10.61 -11.09Q10.38 -11.28 9.97 -11.5Q9.58 -11.72 8.98 -11.89Q8.41 -12.08 7.55 -12.08Q6.52 -12.08 5.66 -11.72Q4.8 -11.36 4.17 -10.69Q3.56 -10.02 3.22 -9.03Q2.88 -8.06 2.88 -6.83Q2.88 -5.56 3.23 -4.58Q3.59 -3.59 4.2 -2.92Q4.83 -2.25 5.67 -1.89Q6.53 -1.53 7.5 -1.53Q8.09 -1.53 8.56 -1.61Q9.05 -1.69 9.44 -1.83Q9.84 -1.97 10.19 -2.19Q10.55 -2.42 10.91 -2.73Q10.98 -2.8 11.06 -2.84Q11.14 -2.89 11.23 -2.89M18.08 -9.8Q19.14 -9.8 19.98 -9.44Q20.84 -9.09 21.44 -8.45Q22.05 -7.81 22.36 -6.89Q22.69 -5.97 22.69 -4.83Q22.69 -3.7 22.36 -2.78Q22.05 -1.86 21.44 -1.2Q20.84 -0.56 19.98 -0.2Q19.14 0.14 18.08 0.14Q17.02 0.14 16.16 -0.2Q15.3 -0.56 14.69 -1.2Q14.09 -1.86 13.77 -2.78Q13.44 -3.7 13.44 -4.83Q13.44 -5.97 13.77 -6.89Q14.09 -7.81 14.69 -8.45Q15.3 -9.09 16.16 -9.44Q17.02 -9.8 18.08 -9.8M18.08 -1.27Q19.47 -1.27 20.14 -2.2Q20.83 -3.14 20.83 -4.83Q20.83 -6.5 20.14 -7.44Q19.47 -8.39 18.08 -8.39Q16.67 -8.39 15.98 -7.44Q15.3 -6.5 15.3 -4.83Q15.3 -3.14 15.98 -2.2Q16.67 -1.27 18.08 -1.27M30.44 -8.02Q30.31 -7.78 30.08 -7.78Q29.92 -7.78 29.73 -7.88Q29.55 -7.98 29.28 -8.11Q29.03 -8.25 28.67 -8.34Q28.33 -8.45 27.84 -8.45Q27.44 -8.45 27.09 -8.34Q26.77 -8.25 26.53 -8.06Q26.3 -7.89 26.17 -7.64Q26.05 -7.41 26.05 -7.11Q26.05 -6.75 26.25 -6.5Q26.47 -6.27 26.81 -6.09Q27.17 -5.92 27.61 -5.78Q28.06 -5.64 28.52 -5.48Q28.98 -5.34 29.42 -5.14Q29.88 -4.95 30.22 -4.66Q30.58 -4.38 30.78 -3.95Q31 -3.55 31 -2.97Q31 -2.3 30.75 -1.72Q30.52 -1.16 30.05 -0.73Q29.58 -0.33 28.89 -0.08Q28.2 0.16 27.31 0.16Q26.31 0.16 25.47 -0.17Q24.64 -0.52 24.08 -1.03L24.5 -1.7Q24.58 -1.84 24.69 -1.91Q24.8 -1.98 24.97 -1.98Q25.16 -1.98 25.34 -1.84Q25.53 -1.72 25.8 -1.56Q26.08 -1.41 26.45 -1.27Q26.84 -1.14 27.41 -1.14Q27.89 -1.14 28.25 -1.27Q28.61 -1.39 28.84 -1.59Q29.08 -1.8 29.19 -2.06Q29.31 -2.34 29.31 -2.66Q29.31 -3.05 29.09 -3.3Q28.89 -3.55 28.53 -3.72Q28.19 -3.91 27.73 -4.05Q27.3 -4.19 26.83 -4.33Q26.36 -4.48 25.91 -4.67Q25.47 -4.88 25.11 -5.17Q24.77 -5.48 24.55 -5.91Q24.34 -6.34 24.34 -6.97Q24.34 -7.53 24.56 -8.05Q24.8 -8.56 25.23 -8.95Q25.69 -9.34 26.33 -9.56Q26.97 -9.8 27.8 -9.8Q28.75 -9.8 29.52 -9.5Q30.3 -9.2 30.84 -8.66L30.44 -8.02M36.03 0.16Q34.88 0.16 34.25 -0.48Q33.62 -1.14 33.62 -2.36L33.62 -8.17L32.48 -8.17Q32.33 -8.17 32.22 -8.27Q32.12 -8.38 32.12 -8.56L32.12 -9.28L33.69 -9.48L34.09 -12.41Q34.12 -12.56 34.23 -12.64Q34.34 -12.73 34.52 -12.73L35.42 -12.73L35.42 -9.48L38.17 -9.48L38.17 -8.17L35.42 -8.17L35.42 -2.48Q35.42 -1.91 35.7 -1.61Q35.98 -1.33 36.44 -1.33Q36.7 -1.33 36.89 -1.39Q37.08 -1.45 37.2 -1.53Q37.34 -1.62 37.44 -1.69Q37.55 -1.75 37.62 -1.75Q37.7 -1.75 37.75 -1.72Q37.81 -1.69 37.86 -1.59L38.39 -0.72Q37.94 -0.3 37.31 -0.06Q36.7 0.16 36.03 0.16"/></g>
<line x1="64" y1="37" x2="64" y2="206" stroke="#333333"/>
<line x1="65" y1="206" x2="287" y2="206" stroke="#E0E0E0"/>
<line x1="60" y1="206" x2="63" y2="206" stroke="#333333"/>
<g transform="translate(49.5 209)" fill="#222222"><path d="M7.16 -4.67Q7.16 -3.44 6.89 -2.55Q6.64 -1.66 6.17 -1.06Q5.72 -0.47 5.09 -0.19Q4.48 0.09 3.77 0.09Q3.05 0.09 2.42 -0.19Q1.81 -0.47 1.34 -1.06Q0.89 -1.66 0.62 -2.55Q0.38 -3.44 0.38 -4.67Q0.38 -5.89 0.62 -6.78Q0.89 -7.69 1.34 -8.27Q1.81 -8.86 2.42 -9.14Q3.05 -9.44 3.77 -9.44Q4.48 -9.44 5.09 -9.14Q5.72 -8.86 6.17 -8.27Q6.64 -7.69 6.89 -6.78Q7.16 -5.89 7.16 -4.67M5.88 -4.67Q5.88 -5.72 5.7 -6.44Q5.53 -7.16 5.23 -7.58Q4.95 -8.02 4.56 -8.2Q4.17 -8.39 3.77 -8.39Q3.34 -8.39 2.95 -8.2Q2.58 -8.02 2.28 -7.58Q2 -7.16 1.83 -6.44Q1.66 -5.72 1.66 -4.67Q1.66 -3.61 1.83 -2.89Q2 -2.17 2.28 -1.73Q2.58 -1.31 2.95 -1.12Q3.34 -0.94 3.77 -0.94Q4.17 -0.94 4.56 -1.12Q4.95 -1.31 5.23 -1.73Q5.53 -2.17 5.7 -2.89Q5.88 -3.61 5.88 -4.67"/></g>
<line x1="65" y1="182" x2="287" y2="182" stroke="#E0E0E0"/>
<line x1="60" y1="182" x2="63" y2="182" stroke="#333333"/>
<g transform="translate(41.9 185)" fill="#222222"><path d="M3.84 -9.44Q4.45 -9.44 4.97 -9.25Q5.48 -9.08 5.86 -8.73Q6.23 -8.41 6.44 -7.92Q6.66 -7.44 6.66 -6.83Q6.66 -6.31 6.5 -5.86Q6.36 -5.42 6.09 -5.02Q5.83 -4.61 5.48 -4.22Q5.14 -3.84 4.75 -3.45L2.34 -1Q2.61 -1.08 2.88 -1.12Q3.16 -1.17 3.41 -1.17L6.41 -1.17Q6.61 -1.17 6.72 -1.05Q6.84 -0.94 6.84 -0.75L6.84 0L0.59 0L0.59 -0.42Q0.59 -0.55 0.64 -0.69Q0.7 -0.83 0.81 -0.94L3.78 -3.92Q4.14 -4.3 4.44 -4.64Q4.75 -4.98 4.95 -5.33Q5.17 -5.67 5.28 -6.03Q5.41 -6.39 5.41 -6.78Q5.41 -7.19 5.28 -7.48Q5.16 -7.78 4.94 -7.98Q4.72 -8.19 4.42 -8.28Q4.12 -8.38 3.78 -8.38Q3.44 -8.38 3.14 -8.27Q2.86 -8.17 2.62 -7.98Q2.41 -7.81 2.25 -7.56Q2.11 -7.33 2.05 -7.05Q1.95 -6.8 1.81 -6.72Q1.67 -6.64 1.42 -6.67L0.78 -6.8Q0.88 -7.44 1.12 -7.92Q1.39 -8.42 1.8 -8.75Q2.2 -9.09 2.72 -9.27Q3.25 -9.44 3.84 -9.44M14.7 -4.67Q14.7 -3.44 14.44 -2.55Q14.19 -1.66 13.72 -1.06Q13.27 -0.47 12.64 -0.19Q12.03 0.09 11.31 0.09Q10.59 0.09 9.97 -0.19Q9.36 -0.47 8.89 -1.06Q8.44 -1.66 8.17 -2.55Q7.92 -3.44 7.92 -4.67Q7.92 -5.89 8.17 -6.78Q8.44 -7.69 8.89 -8.27Q9.36 -8.86 9.97 -9.14Q10.59 -9.44 11.31 -9.44Q12.03 -9.44 12.64 -9.14Q13.27 -8.86 13.72 -8.27Q14.19 -7.69 14.44 -6.78Q14.7 -5.89 14.7 -4.67M13.42 -4.67Q13.42 -5.72 13.25 -6.44Q13.08 -7.16 12.78 -7.58Q12.5 -8.02 12.11 -8.2Q11.72 -8.39 11.31 -8.39Q10.89 -8.39 10.5 -8.2Q10.12 -8.02 9.83 -7.58Q9.55 -7.16 9.38 -6.44Q9.2 -5.72 9.2 -4.67Q9.2 -3.61 9.38 -2.89Q9.55 -2.17 9.83 -1.73Q10.12 -1.31 10.5 -1.12Q10.89 -0.94 11.31 -0.94Q11.72 -0.94 12.11 -1.12Q12.5 -1.31 12.78 -1.73Q13.08 -2.17 13.25 -2.89Q13.42 -3.61 13.42 -4.67"/></g>
<line x1="65" y1="158" x2="287" y2="158" stroke="#E0E0E0"/>
<line x1="60" y1="158" x2="63" y2="158" stroke="#333333"/>
<g transform="translate(41.9 161)" fill="#222222"><path d="M5.8 -3.39L7.17 -3.39L7.17 -2.67Q7.17 -2.56 7.11 -2.48Q7.05 -2.42 6.91 -2.42L5.8 -2.42L5.8 0L4.72 0L4.72 -2.42L0.62 -2.42Q0.48 -2.42 0.38 -2.5Q0.28 -2.58 0.27 -2.7L0.14 -3.33L4.66 -9.33L5.8 -9.33L5.8 -3.39M4.72 -7.09Q4.72 -7.28 4.73 -7.48Q4.75 -7.69 4.78 -7.91L1.47 -3.39L4.72 -3.39L4.72 -7.09M14.7 -4.67Q14.7 -3.44 14.44 -2.55Q14.19 -1.66 13.72 -1.06Q13.27 -0.47 12.64 -0.19Q12.03 0.09 11.31 0.09Q10.59 0.09 9.97 -0.19Q9.36 -0.47 8.89 -1.06Q8.44 -1.66 8.17 -2.55Q7.92 -3.44 7.92 -4.67Q7.92 -5.89 8.17 -6.78Q8.44 -7.69 8.89 -8.27Q9.36 -8.86 9.97 -9.14Q10.59 -9.44 11.31 -9.44Q12.03 -9.44 12.64 -9.14Q13.27 -8.86 13.72 -8.27Q14.19 -7.69 14.44 -6.78Q14.7 -5.89 14.7 -4.67M13.42 -4.67Q13.42 -5.72 13.25 -6.44Q13.08 -7.16 12.78 -7.58Q12.5 -8.02 12.11 -8.2Q11.72 -8.39 11.31 -8.39Q10.89 -8.39 10.5 -8.2Q10.12 -8.02 9.83 -7.58Q9.55 -7.16 9.38 -6.44Q9.2 -5.72 9.2 -4.67Q9.2 -3.61 9.38 -2.89Q9.55 -2.17 9.83 -1.73Q10.12 -1.31 10.5 -1.12Q10.89 -0.94 11.31 -0.94Q11.72 -0.94 12.11 -1.12Q12.5 -1.31 12.78 -1.73Q13.08 -2.17 13.25 -2.89Q13.42 -3.61 13.42 -4.67"/></g>
<line x1="65" y1="134" x2="287" y2="134" stroke="#E0E0E0"/>
<line x1="60" y1="134" x2="63" y2="134" stroke="#333333"/>
<g transform="translate(41.9 137)" fill="#222222"><path d="M3.14 -5.84Q3.02 -5.7 2.91 -5.56Q2.8 -5.42 2.7 -5.3Q3.02 -5.5 3.41 -5.61Q3.8 -5.73 4.23 -5.73Q4.8 -5.73 5.3 -5.55Q5.8 -5.38 6.17 -5.02Q6.56 -4.66 6.78 -4.14Q7 -3.62 7 -2.95Q7 -2.31 6.77 -1.75Q6.53 -1.19 6.11 -0.78Q5.69 -0.38 5.09 -0.12Q4.5 0.11 3.78 0.11Q3.06 0.11 2.48 -0.11Q1.92 -0.34 1.52 -0.77Q1.11 -1.19 0.89 -1.78Q0.67 -2.38 0.67 -3.09Q0.67 -3.72 0.94 -4.41Q1.22 -5.11 1.8 -5.89L4.14 -9.03Q4.23 -9.16 4.41 -9.23Q4.59 -9.33 4.8 -9.33L5.91 -9.33L3.14 -5.84M1.86 -2.89Q1.86 -2.45 1.98 -2.09Q2.11 -1.73 2.34 -1.47Q2.59 -1.2 2.95 -1.06Q3.31 -0.92 3.75 -0.92Q4.22 -0.92 4.58 -1.06Q4.95 -1.22 5.22 -1.47Q5.48 -1.73 5.62 -2.08Q5.77 -2.44 5.77 -2.86Q5.77 -3.31 5.62 -3.67Q5.48 -4.03 5.22 -4.28Q4.97 -4.53 4.61 -4.66Q4.27 -4.8 3.83 -4.8Q3.38 -4.8 3 -4.64Q2.64 -4.48 2.38 -4.22Q2.12 -3.95 1.98 -3.61Q1.86 -3.27 1.86 -2.89M14.7 -4.67Q14.7 -3.44 14.44 -2.55Q14.19 -1.66 13.72 -1.06Q13.27 -0.47 12.64 -0.19Q12.03 0.09 11.31 0.09Q10.59 0.09 9.97 -0.19Q9.36 -0.47 8.89 -1.06Q8.44 -1.66 8.17 -2.55Q7.92 -3.44 7.92 -4.67Q7.92 -5.89 8.17 -6.78Q8.44 -7.69 8.89 -8.27Q9.36 -8.86 9.97 -9.14Q10.59 -9.44 11.31 -9.44Q12.03 -9.44 12.64 -9.14Q13.27 -8.86 13.72 -8.27Q14.19 -7.69 14.44 -6.78Q14.7 -5.89 14.7 -4.67M13.42 -4.67Q13.42 -5.72 13.25 -6.44Q13.08 -7.16 12.78 -7.58Q12.5 -8.02 12.11 -8.2Q11.72 -8.39 11.31 -8.39Q10.89 -8.39 10.5 -8.2Q10.12 -8.02 9.83 -7.58Q9.55 -7.16 9.38 -6.44Q9.2 -5.72 9.2 -4.67Q9.2 -3.61 9.38 -2.89Q9.55 -2.17 9.83 -1.73Q10.12 -1.31 10.5 -1.12Q10.89 -0.94 11.31 -0.94Q11.72 -0.94 12.11 -1.12Q12.5 -1.31 12.78 -1.73Q13.08 -2.17 13.25 -2.89Q13.42 -3.61 13.42 -4.67"/></g>
<line x1="65" y1="109" x2="287" y2="109" stroke="#E0E0E0"/>
<line x1="60" y1="109" x2="63" y2="109" stroke="#333333"/>
<g transform="translate(41.9 112)" fill="#222222"><path d="M3.77 0.11Q3.06 0.11 2.48 -0.08Q1.91 -0.27 1.48 -0.61Q1.08 -0.97 0.84 -1.45Q0.61 -1.95 0.61 -2.56Q0.61 -3.45 1.06 -4.03Q1.53 -4.61 2.41 -4.86Q1.67 -5.14 1.3 -5.67Q0.92 -6.22 0.92 -6.97Q0.92 -7.5 1.12 -7.94Q1.34 -8.39 1.72 -8.72Q2.09 -9.05 2.61 -9.23Q3.14 -9.44 3.77 -9.44Q4.41 -9.44 4.92 -9.23Q5.45 -9.05 5.83 -8.72Q6.2 -8.39 6.41 -7.94Q6.61 -7.5 6.61 -6.97Q6.61 -6.22 6.23 -5.67Q5.86 -5.14 5.14 -4.86Q6 -4.61 6.45 -4.03Q6.92 -3.45 6.92 -2.56Q6.92 -1.95 6.69 -1.45Q6.47 -0.97 6.05 -0.61Q5.64 -0.27 5.05 -0.08Q4.47 0.11 3.77 0.11M3.77 -0.88Q4.22 -0.88 4.56 -1Q4.92 -1.12 5.16 -1.36Q5.41 -1.59 5.53 -1.89Q5.66 -2.2 5.66 -2.59Q5.66 -3.05 5.5 -3.38Q5.36 -3.72 5.09 -3.92Q4.84 -4.14 4.48 -4.23Q4.14 -4.33 3.77 -4.33Q3.39 -4.33 3.05 -4.23Q2.7 -4.14 2.44 -3.92Q2.19 -3.72 2.03 -3.38Q1.88 -3.05 1.88 -2.59Q1.88 -2.2 2 -1.89Q2.12 -1.59 2.38 -1.36Q2.62 -1.12 2.97 -1Q3.33 -0.88 3.77 -0.88M3.77 -5.33Q4.22 -5.33 4.53 -5.45Q4.84 -5.59 5.03 -5.81Q5.22 -6.05 5.31 -6.34Q5.41 -6.64 5.41 -6.95Q5.41 -7.27 5.3 -7.53Q5.2 -7.81 5 -8.02Q4.8 -8.23 4.48 -8.36Q4.17 -8.48 3.77 -8.48Q3.36 -8.48 3.05 -8.36Q2.75 -8.23 2.55 -8.02Q2.34 -7.81 2.23 -7.53Q2.14 -7.27 2.14 -6.95Q2.14 -6.64 2.22 -6.34Q2.31 -6.05 2.5 -5.81Q2.7 -5.59 3.02 -5.45Q3.33 -5.33 3.77 -5.33M14.7 -4.67Q14.7 -3.44 14.44 -2.55Q14.19 -1.66 13.72 -1.06Q13.27 -0.47 12.64 -0.19Q12.03 0.09 11.31 0.09Q10.59 0.09 9.97 -0.19Q9.36 -0.47 8.89 -1.06Q8.44 -1.66 8.17 -2.55Q7.92 -3.44 7.92 -4.67Q7.92 -5.89 8.17 -6.78Q8.44 -7.69 8.89 -8.27Q9.36 -8.86 9.97 -9.14Q10.59 -9.44 11.31 -9.44Q12.03 -9.44 12.64 -9.14Q13.27 -8.86 13.72 -8.27Q14.19 -7.69 14.44 -6.78Q14.7 -5.89 14.7 -4.67M13.42 -4.67Q13.42 -5.72 13.25 -6.44Q13.08 -7.16 12.78 -7.58Q12.5 -8.02 12.11 -8.2Q11.72 -8.39 11.31 -8.39Q10.89 -8.39 10.5 -8.2Q10.12 -8.02 9.83 -7.58Q9.55 -7.16 9.38 -6.44Q9.2 -5.72 9.2 -4.67Q9.2 -3.61 9.38 -2.89Q9.55 -2.17 9.83 -1.73Q10.12 -1.31 10.5 -1.12Q10.89 -0.94 11.31 -0.94Q11.72 -0.94 12.11 -1.12Q12.5 -1.31 12.78 -1.73Q13.08 -2.17 13.25 -2.89Q13.42 -3.61 13.42 -4.67"/></g>
<line x1="65" y1="85" x2="287" y2="85" stroke="#E0E0E0"/>
<line x1="60" y1="85" x2="63" y2="85" stroke="#333333"/>
<g transform="translate(34.4 88)" fill="#222222"><path d="M1.61 -0.94L3.59 -0.94L3.59 -7.14Q3.59 -7.42 3.61 -7.73L2 -6.36Q1.91 -6.28 1.81 -6.27Q1.73 -6.25 1.66 -6.27Q1.58 -6.28 1.52 -6.31Q1.45 -6.36 1.42 -6.41L1.03 -6.94L3.83 -9.34L4.83 -9.34L4.83 -0.94L6.64 -0.94L6.64 0L1.61 0L1.61 -0.94M14.7 -4.67Q14.7 -3.44 14.44 -2.55Q14.19 -1.66 13.72 -1.06Q13.27 -0.47 12.64 -0.19Q12.03 0.09 11.31 0.09Q10.59 0.09 9.97 -0.19Q9.36 -0.47 8.89 -1.06Q8.44 -1.66 8.17 -2.55Q7.92 -3.44 7.92 -4.67Q7.92 -5.89 8.17 -6.78Q8.44 -7.69 8.89 -8.27Q9.36 -8.86 9.97 -9.14Q10.59 -9.44 11.31 -9.44Q12.03 -9.44 12.64 -9.14Q13.27 -8.86 13.72 -8.27Q14.19 -7.69 14.44 -6.78Q14.7 -5.89 14.7 -4.67M13.42 -4.67Q13.42 -5.72 13.25 -6.44Q13.08 -7.16 12.78 -7.58Q12.5 -8.02 12.11 -8.2Q11.72 -8.39 11.31 -8.39Q10.89 -8.39 10.5 -8.2Q10.12 -8.02 9.83 -7.58Q9.55 -7.16 9.38 -6.44Q9.2 -5.72 9.2 -4.67Q9.2 -3.61 9.38 -2.89Q9.55 -2.17 9.83 -1.73Q10.12 -1.31 10.5 -1.12Q10.89 -0.94 11.31 -0.94Q11.72 -0.94 12.11 -1.12Q12.5 -1.31 12.78 -1.73Q13.08 -2.17 13.25 -2.89Q13.42 -3.61 13.42 -4.67M22.25 -4.67Q22.25 -3.44 21.98 -2.55Q21.73 -1.66 21.27 -1.06Q20.81 -0.47 20.19 -0.19Q19.58 0.09 18.86 0.09Q18.14 0.09 17.52 -0.19Q16.91 -0.47 16.44 -1.06Q15.98 -1.66 15.72 -2.55Q15.47 -3.44 15.47 -4.67Q15.47 -5.89 15.72 -6.78Q15.98 -7.69 16.44 -8.27Q16.91 -8.86 17.52 -9.14Q18.14 -9.44 18.86 -9.44Q19.58 -9.44 20.19 -9.14Q20.81 -8.86 21.27 -8.27Q21.73 -7.69 21.98 -6.78Q22.25 -5.89 22.25 -4.67M20.97 -4.67Q20.97 -5.72 20.8 -6.44Q20.62 -7.16 20.33 -7.58Q20.05 -8.02 19.66 -8.2Q19.27 -8.39 18.86 -8.39Q18.44 -8.39 18.05 -8.2Q17.67 -8.02 17.38 -7.58Q17.09 -7.16 16.92 -6.44Q16.75 -5.72 16.75 -4.67Q16.75 -3.61 16.92 -2.89Q17.09 -2.17 17.38 -1.73Q17.67 -1.31 18.05 -1.12Q18.44 -0.94 18.86 -0.94Q19.27 -0.94 19.66 -1.12Q20.05 -1.31 20.33 -1.73Q20.62 -2.17 20.8 -2.89Q20.97 -3.61 20.97 -4.67"/></g>
<line x1="65" y1="61" x2="287" y2="61" stroke="#E0E0E0"/>
<line x1="60" y1="61" x2="63" y2="61" stroke="#333333"/>
<g transform="translate(34.4 64)" fill="#222222"><path d="M1.61 -0.94L3.59 -0.94L3.59 -7.14Q3.59 -7.42 3.61 -7.73L2 -6.36Q1.91 -6.28 1.81 -6.27Q1.73 -6.25 1.66 -6.27Q1.58 -6.28 1.52 -6.31Q1.45 -6.36 1.42 -6.41L1.03 -6.94L3.83 -9.34L4.83 -9.34L4.83 -0.94L6.64 -0.94L6.64 0L1.61 0L1.61 -0.94M11.39 -9.44Q12 -9.44 12.52 -9.25Q13.03 -9.08 13.41 -8.73Q13.78 -8.41 13.98 -7.92Q14.2 -7.44 14.2 -6.83Q14.2 -6.31 14.05 -5.86Q13.91 -5.42 13.64 -5.02Q13.38 -4.61 13.03 -4.22Q12.69 -3.84 12.3 -3.45L9.89 -1Q10.16 -1.08 10.42 -1.12Q10.7 -1.17 10.95 -1.17L13.95 -1.17Q14.16 -1.17 14.27 -1.05Q14.39 -0.94 14.39 -0.75L14.39 0L8.14 0L8.14 -0.42Q8.14 -0.55 8.19 -0.69Q8.25 -0.83 8.36 -0.94L11.33 -3.92Q11.69 -4.3 11.98 -4.64Q12.3 -4.98 12.5 -5.33Q12.72 -5.67 12.83 -6.03Q12.95 -6.39 12.95 -6.78Q12.95 -7.19 12.83 -7.48Q12.7 -7.78 12.48 -7.98Q12.27 -8.19 11.97 -8.28Q11.67 -8.38 11.33 -8.38Q10.98 -8.38 10.69 -8.27Q10.41 -8.17 10.17 -7.98Q9.95 -7.81 9.8 -7.56Q9.66 -7.33 9.59 -7.05Q9.5 -6.8 9.36 -6.72Q9.22 -6.64 8.97 -6.67L8.33 -6.8Q8.42 -7.44 8.67 -7.92Q8.94 -8.42 9.34 -8.75Q9.75 -9.09 10.27 -9.27Q10.8 -9.44 11.39 -9.44M22.25 -4.67Q22.25 -3.44 21.98 -2.55Q21.73 -1.66 21.27 -1.06Q20.81 -0.47 20.19 -0.19Q19.58 0.09 18.86 0.09Q18.14 0.09 17.52 -0.19Q16.91 -0.47 16.44 -1.06Q15.98 -1.66 15.72 -2.55Q15.47 -3.44 15.47 -4.67Q15.47 -5.89 15.72 -6.78Q15.98 -7.69 16.44 -8.27Q16.91 -8.86 17.52 -9.14Q18.14 -9.44 18.86 -9.44Q19.58 -9.44 20.19 -9.14Q20.81 -8.86 21.27 -8.27Q21.73 -7.69 21.98 -6.78Q22.25 -5.89 22.25 -4.67M20.97 -4.67Q20.97 -5.72 20.8 -6.44Q20.62 -7.16 20.33 -7.58Q20.05 -8.02 19.66 -8.2Q19.27 -8.39 18.86 -8.39Q18.44 -8.39 18.05 -8.2Q17.67 -8.02 17.38 -7.58Q17.09 -7.16 16.92 -6.44Q16.75 -5.72 16.75 -4.67Q16.75 -3.61 16.92 -2.89Q17.09 -2.17 17.38 -1.73Q17.67 -1.31 18.05 -1.12Q18.44 -0.94 18.86 -0.94Q19.27 -0.94 19.66 -1.12Q20.05 -1.31 20.33 -1.73Q20.62 -2.17 20.8 -2.89Q20.97 -3.61 20.97 -4.67"/></g>
<line x1="65" y1="37" x2="287" y2="37" stroke="#E0E0E0"/>
<line x1="60" y1="37" x2="63" y2="37" stroke="#333333"/>
<g transform="translate(34.4 40)" fill="#222222"><path d="M1.61 -0.94L3.59 -0.94L3.59 -7.14Q3.59 -7.42 3.61 -7.73L2 -6.36Q1.91 -6.28 1.81 -6.27Q1.73 -6.25 1.66 -6.27Q1.58 -6.28 1.52 -6.31Q1.45 -6.36 1.42 -6.41L1.03 -6.94L3.83 -9.34L4.83 -9.34L4.83 -0.94L6.64 -0.94L6.64 0L1.61 0L1.61 -0.94M13.34 -3.39L14.72 -3.39L14.72 -2.67Q14.72 -2.56 14.66 -2.48Q14.59 -2.42 14.45 -2.42L13.34 -2.42L13.34 0L12.27 0L12.27 -2.42L8.17 -2.42Q8.03 -2.42 7.92 -2.5Q7.83 -2.58 7.81 -2.7L7.69 -3.33L12.2 -9.33L13.34 -9.33L13.34 -3.39M12.27 -7.09Q12.27 -7.28 12.28 -7.48Q12.3 -7.69 12.33 -7.91L9.02 -3.39L12.27 -3.39L12.27 -7.09M22.25 -4.67Q22.25 -3.44 21.98 -2.55Q21.73 -1.66 21.27 -1.06Q20.81 -0.47 20.19 -0.19Q19.58 0.09 18.86 0.09Q18.14 0.09 17.52 -0.19Q16.91 -0.47 16.44 -1.06Q15.98 -1.66 15.72 -2.55Q15.47 -3.44 15.47 -4.67Q15.47 -5.89 15.72 -6.78Q15.98 -7.69 16.44 -8.27Q16.91 -8.86 17.52 -9.14Q18.14 -9.44 18.86 -9.44Q19.58 -9.44 20.19 -9.14Q20.81 -8.86 21.27 -8.27Q21.73 -7.69 21.98 -6.78Q22.25 -5.89 22.25 -4.67M20.97 -4.67Q20.97 -5.72 20.8 -6.44Q20.62 -7.16 20.33 -7.58Q20.05 -8.02 19.66 -8.2Q19.27 -8.39 18.86 -8.39Q18.44 -8.39 18.05 -8.2Q17.67 -8.02 17.38 -7.58Q17.09 -7.16 16.92 -6.44Q16.75 -5.72 16.75 -4.67Q16.75 -3.61 16.92 -2.89Q17.09 -2.17 17.38 -1.73Q17.67 -1.31 18.05 -1.12Q18.44 -0.94 18.86 -0.94Q19.27 -0.94 19.66 -1.12Q20.05 -1.31 20.33 -1.73Q20.62 -2.17 20.8 -2.89Q20.97 -3.61 20.97 -4.67"/></g>
<line x1="64" y1="206" x2="287" y2="206" stroke="#333333"/>
<line x1="86" y1="207" x2="86" y2="210" stroke="#333333"/>
<g transform="translate(82.2 227)" fill="#222222"><path d="M7.16 -4.67Q7.16 -3.44 6.89 -2.55Q6.64 -1.66 6.17 -1.06Q5.72 -0.47 5.09 -0.19Q4.48 0.09 3.77 0.09Q3.05 0.09 2.42 -0.19Q1.81 -0.47 1.34 -1.06Q0.89 -1.66 0.62 -2.55Q0.38 -3.44 0.38 -4.67Q0.38 -5.89 0.62 -6.78Q0.89 -7.69 1.34 -8.27Q1.81 -8.86 2.42 -9.14Q3.05 -9.44 3.77 -9.44Q4.48 -9.44 5.09 -9.14Q5.72 -8.86 6.17 -8.27Q6.64 -7.69 6.89 -6.78Q7.16 -5.89 7.16 -4.67M5.88 -4.67Q5.88 -5.72 5.7 -6.44Q5.53 -7.16 5.23 -7.58Q4.95 -8.02 4.56 -8.2Q4.17 -8.39 3.77 -8.39Q3.34 -8.39 2.95 -8.2Q2.58 -8.02 2.28 -7.58Q2 -7.16 1.83 -6.44Q1.66 -5.72 1.66 -4.67Q1.66 -3.61 1.83 -2.89Q2 -2.17 2.28 -1.73Q2.58 -1.31 2.95 -1.12Q3.34 -0.94 3.77 -0.94Q4.17 -0.94 4.56 -1.12Q4.95 -1.31 5.23 -1.73Q5.53 -2.17 5.7 -2.89Q5.88 -3.61 5.88 -4.67"/></g>
<line x1="130" y1="207" x2="130" y2="210" stroke="#333333"/>
<g transform="translate(126.2 227)" fill="#222222"><path d="M1.61 -0.94L3.59 -0.94L3.59 -7.14Q3.59 -7.42 3.61 -7.73L2 -6.36Q1.91 -6.28 1.81 -6.27Q1.73 -6.25 1.66 -6.27Q1.58 -6.28 1.52 -6.31Q1.45 -6.36 1.42 -6.41L1.03 -6.94L3.83 -9.34L4.83 -9.34L4.83 -0.94L6.64 -0.94L6.64 0L1.61 0L1.61 -0.94"/></g>
<line x1="175" y1="207" x2="175" y2="210" stroke="#333333"/>
<g transform="translate(171.2 227)" fill="#222222"><path d="M3.84 -9.44Q4.45 -9.44 4.97 -9.25Q5.48 -9.08 5.86 -8.73Q6.23 -8.41 6.44 -7.92Q6.66 -7.44 6.66 -6.83Q6.66 -6.31 6.5 -5.86Q6.36 -5.42 6.09 -5.02Q5.83 -4.61 5.48 -4.22Q5.14 -3.84 4.75 -3.45L2.34 -1Q2.61 -1.08 2.88 -1.12Q3.16 -1.17 3.41 -1.17L6.41 -1.17Q6.61 -1.17 6.72 -1.05Q6.84 -0.94 6.84 -0.75L6.84 0L0.59 0L0.59 -0.42Q0.59 -0.55 0.64 -0.69Q0.7 -0.83 0.81 -0.94L3.78 -3.92Q4.14 -4.3 4.44 -4.64Q4.75 -4.98 4.95 -5.33Q5.17 -5.67 5.28 -6.03Q5.41 -6.39 5.41 -6.78Q5.41 -7.19 5.28 -7.48Q5.16 -7.78 4.94 -7.98Q4.72 -8.19 4.42 -8.28Q4.12 -8.38 3.78 -8.38Q3.44 -8.38 3.14 -8.27Q2.86 -8.17 2.62 -7.98Q2.41 -7.81 2.25 -7.56Q2.11 -7.33 2.05 -7.05Q1.95 -6.8 1.81 -6.72Q1.67 -6.64 1.42 -6.67L0.78 -6.8Q0.88 -7.44 1.12 -7.92Q1.39 -8.42 1.8 -8.75Q2.2 -9.09 2.72 -9.27Q3.25 -9.44 3.84 -9.44"/></g>
<line x1="220" y1="207" x2="220" y2="210" stroke="#333333"/>
<g transform="translate(216.2 227)" fill="#222222"><path d="M3.89 -9.44Q4.5 -9.44 5 -9.27Q5.5 -9.09 5.86 -8.77Q6.22 -8.45 6.42 -8.02Q6.62 -7.58 6.62 -7.05Q6.62 -6.59 6.52 -6.25Q6.41 -5.91 6.19 -5.64Q5.98 -5.38 5.69 -5.2Q5.39 -5.03 5.03 -4.91Q5.92 -4.66 6.38 -4.09Q6.83 -3.55 6.83 -2.69Q6.83 -2.03 6.58 -1.52Q6.34 -1 5.92 -0.64Q5.5 -0.28 4.92 -0.08Q4.36 0.11 3.72 0.11Q2.98 0.11 2.45 -0.08Q1.92 -0.27 1.55 -0.58Q1.19 -0.91 0.94 -1.34Q0.7 -1.8 0.55 -2.33L1.08 -2.56Q1.28 -2.66 1.47 -2.61Q1.67 -2.58 1.77 -2.39Q1.86 -2.2 1.98 -1.95Q2.11 -1.7 2.33 -1.47Q2.55 -1.25 2.88 -1.09Q3.2 -0.95 3.7 -0.95Q4.17 -0.95 4.53 -1.11Q4.89 -1.27 5.12 -1.5Q5.36 -1.75 5.47 -2.05Q5.59 -2.36 5.59 -2.66Q5.59 -3.03 5.5 -3.33Q5.41 -3.64 5.14 -3.86Q4.89 -4.08 4.44 -4.2Q3.98 -4.33 3.25 -4.33L3.25 -5.22Q3.84 -5.23 4.25 -5.34Q4.67 -5.47 4.92 -5.67Q5.19 -5.89 5.3 -6.19Q5.42 -6.48 5.42 -6.83Q5.42 -7.22 5.3 -7.5Q5.19 -7.8 4.97 -7.98Q4.75 -8.19 4.45 -8.28Q4.17 -8.38 3.83 -8.38Q3.48 -8.38 3.19 -8.27Q2.91 -8.17 2.67 -7.98Q2.45 -7.81 2.3 -7.56Q2.14 -7.33 2.08 -7.05Q1.98 -6.8 1.84 -6.72Q1.72 -6.64 1.47 -6.67L0.81 -6.8Q0.91 -7.44 1.17 -7.92Q1.44 -8.42 1.84 -8.75Q2.25 -9.09 2.77 -9.27Q3.28 -9.44 3.89 -9.44"/></g>
<line x1="264" y1="207" x2="264" y2="210" stroke="#333333"/>
<g transform="translate(260.2 227)" fill="#222222"><path d="M5.8 -3.39L7.17 -3.39L7.17 -2.67Q7.17 -2.56 7.11 -2.48Q7.05 -2.42 6.91 -2.42L5.8 -2.42L5.8 0L4.72 0L4.72 -2.42L0.62 -2.42Q0.48 -2.42 0.38 -2.5Q0.28 -2.58 0.27 -2.7L0.14 -3.33L4.66 -9.33L5.8 -9.33L5.8 -3.39M4.72 -7.09Q4.72 -7.28 4.73 -7.48Q4.75 -7.69 4.78 -7.91L1.47 -3.39L4.72 -3.39L4.72 -7.09"/></g>
<rect x="71" y="109" width="30" height="98" fill="#1F77B4"/>
<rect x="115" y="91" width="30" height="116" fill="#1F77B4"/>
<rect x="159" y="73" width="30" height="134" fill="#1F77B4"/>
<rect x="203" y="55" width="30" height="152" fill="#1F77B4"/>
<rect x="247" y="37" width="30" height="170" fill="#1F77B4"/>
</g>
</g></svg>